<?xml version="1.0" standalone="no"?>
<!DOCTYPE svg PUBLIC "-//W3C//DTD SVG 1.1//EN" "http://www.w3.org/Graphics/SVG/1.1/DTD/svg11.dtd" >
<svg xmlns="http://www.w3.org/2000/svg" xmlns:xlink="http://www.w3.org/1999/xlink" version="1.1">
<metadata>
Created by FontForge 20170731 at Sun Feb 25 06:42:46 2018
 By Aleksey,,,
Copyright (c) 2003 by Murasu Systems Sdn. Bhd. Malaysia. All rights reserved.
</metadata>
<defs>
<font id="OriyaMN" horiz-adv-x="0" >
  <font-face 
    font-family="Oriya MN"
    font-weight="400"
    font-stretch="normal"
    units-per-em="2048"
    panose-1="0 0 5 0 0 0 0 0 0 0"
    ascent="1546"
    descent="-502"
    x-height="1024"
    cap-height="1326"
    bbox="-1114 -703 2328 1761"
    underline-thickness="50"
    underline-position="-200"
    unicode-range="U+000D-FB01"
  />
<missing-glyph horiz-adv-x="748" 
d="M68 0v1365h544v-1365h-544zM136 68h408v1229h-408v-1229z" />
    <glyph glyph-name="fi" unicode="fi" horiz-adv-x="1352" 
d="M955 937h-499v-937h-204v937h-213v87h213v118q0 84 30 157.5t81.5 128t121 86.5t148.5 32q63 0 119.5 -18t103.5 -52l-98 -96q-24 39 -60.5 64.5t-93.5 25.5q-33 0 -60.5 -17.5t-47 -46t-30 -65.5t-10.5 -76v-241h701v-1024h-202v937zM939 1416q0 24 9 45t25 37t37 25
t45 9t45 -9t37 -25t25 -37t9 -45t-9 -45t-25 -37t-37 -25t-45 -9t-45 9t-37 25t-25 37t-9 45z" />
    <glyph glyph-name=".notdef" horiz-adv-x="748" 
d="M68 0v1365h544v-1365h-544zM136 68h408v1229h-408v-1229z" />
    <glyph glyph-name="uni0000" 
 />
    <glyph glyph-name="uni0000" 
 />
    <glyph glyph-name="uni000D" unicode="&#xd;" horiz-adv-x="624" 
 />
    <glyph glyph-name="space" unicode=" " horiz-adv-x="500" 
 />
    <glyph glyph-name="exclam" unicode="!" horiz-adv-x="567" 
d="M252 339q-4 110 -18 223t-29 223.5t-27 215.5t-12 199q0 36 10 65t26.5 49t37.5 31t44 11q25 0 46 -11t37 -31t25 -49t9 -65q0 -94 -12 -199t-27.5 -215.5t-29.5 -223.5t-18 -223h-62zM284 180q22 0 42 -8.5t34.5 -22.5t23 -33.5t8.5 -40.5q0 -23 -8.5 -42t-23 -33.5
t-34.5 -22.5t-42 -8q-23 0 -43 8t-35 22.5t-23.5 33.5t-8.5 42q0 21 8.5 40.5t23.5 33.5t35 22.5t43 8.5z" />
    <glyph glyph-name="quotedbl" unicode="&#x22;" horiz-adv-x="752" 
d="M188 787q-9 73 -22.5 132.5t-26 114t-21.5 107.5t-9 114q0 43 29.5 72t72.5 29t72.5 -29t29.5 -72q0 -61 -9 -114t-21.5 -107.5t-26 -114t-22.5 -132.5h-46zM517 787q-9 73 -22.5 132.5t-26 114t-21 107.5t-8.5 114q0 43 29.5 72t72.5 29q21 0 39.5 -8t32 -21.5t21.5 -32
t8 -39.5q0 -61 -9 -114t-21.5 -107.5t-26 -114t-22.5 -132.5h-46z" />
    <glyph glyph-name="numbersign" unicode="#" horiz-adv-x="999" 
d="M283 861l99 465h102l-100 -465h331l100 465h99l-97 -465h173v-74h-189l-69 -329h258v-74h-275l-93 -433h-101l92 433h-330l-94 -433h-102l95 431h-172v76h187l70 329h-257v74h273zM298 458h332l69 329h-330z" />
    <glyph glyph-name="dollar" unicode="$" horiz-adv-x="1047" 
d="M468 598q-71 39 -135.5 82.5t-114.5 95t-79.5 114.5t-29.5 141q0 65 28 121.5t76.5 100t114 70.5t140.5 33v95h79v-95q52 -3 97.5 -11.5t87 -21.5t79.5 -28.5t76 -31.5v-292h-38q-11 90 -37 146t-64.5 90t-89 49.5t-111.5 24.5v-503q70 -38 139.5 -83t125 -99t90 -119
t34.5 -142q0 -72 -27.5 -135.5t-78.5 -113t-123 -80.5t-160 -37v-90h-79v90q-54 1 -101.5 6.5t-91 16t-84.5 27t-82 39.5v270h47q10 -76 32 -130t59.5 -88t92 -49.5t128.5 -15.5v553zM547 45q46 8 85.5 31t69 55t46 71.5t16.5 80.5q0 42 -16.5 80t-46 71.5t-69 62.5
t-85.5 54v-506zM468 1281q-41 -6 -75 -25t-59.5 -46.5t-39.5 -61.5t-14 -70q0 -37 14 -72t39.5 -67t59.5 -60t75 -51v453z" />
    <glyph glyph-name="percent" unicode="%" horiz-adv-x="1679" 
d="M353 1356q69 0 121 -32t87.5 -83.5t53 -117.5t17.5 -133q0 -66 -18 -129.5t-53.5 -113t-87.5 -79.5t-121 -30q-68 0 -120 30t-87.5 79.5t-54 113t-18.5 129.5q0 67 18.5 133t54 117.5t88 83.5t120.5 32zM355 1306q-29 0 -49.5 -17.5t-35 -45t-23 -62.5t-13 -70t-6 -67
t-1.5 -54q0 -21 1 -51t5.5 -63.5t12.5 -67t22 -60.5t34.5 -43.5t49.5 -16.5q28 0 48.5 16.5t34.5 43t22.5 59.5t13 66.5t6 64t1.5 52.5q0 21 -1.5 52.5t-6 66.5t-13 70.5t-22 63.5t-33 45.5t-47.5 17.5zM1330 688q69 0 121 -32t87 -84t53 -117.5t18 -132.5t-18 -130.5
t-53.5 -113t-88 -79.5t-121.5 -30q-68 0 -120 30t-87 79.5t-53 113t-18 130.5t18.5 132.5t54 117.5t87.5 84t120 32zM1332 638q-29 0 -49.5 -17.5t-34.5 -45t-23 -62.5t-14 -70.5t-6.5 -67t-1.5 -53.5q0 -21 1.5 -51.5t5.5 -64t12.5 -67t22.5 -60.5t34 -43.5t49 -16.5
t49.5 16.5t34.5 43t22.5 60t13 67t6 64.5t1.5 52t-1.5 52.5t-6 66.5t-13 70t-22 63.5t-33.5 46t-47 17.5zM410 -31h-87l951 1387h87z" />
    <glyph glyph-name="ampersand" unicode="&#x26;" horiz-adv-x="1561" 
d="M508 658q-50 -29 -92.5 -64t-73.5 -74.5t-48.5 -83.5t-17.5 -92q0 -54 17.5 -101t49.5 -81.5t78.5 -54.5t104.5 -20q79 0 150.5 35t136.5 86q-45 49 -86.5 104t-79.5 112.5t-72.5 117t-66.5 116.5zM652 805q52 27 97 56t78.5 62.5t52.5 74t19 89.5q0 48 -12.5 85.5
t-34 64t-50 40.5t-61.5 14q-37 0 -68 -19t-53.5 -49.5t-35.5 -68t-13 -74.5q0 -60 21.5 -132t59.5 -143zM1233 715q-12 -71 -29.5 -127t-42 -105.5t-57 -96.5t-73.5 -99q77 -78 145.5 -123.5t126.5 -45.5q75 0 128 29.5t85 104.5l38 -14q-13 -65 -42.5 -115t-72.5 -84.5
t-98 -52t-119 -17.5q-82 0 -168.5 46.5t-169.5 124.5q-98 -76 -213.5 -123.5t-249.5 -47.5q-94 0 -160 21t-108 59t-61.5 91t-19.5 117q0 91 34.5 161.5t91 126.5t128.5 99.5t148 80.5q-42 88 -66.5 162t-24.5 125q0 66 21.5 128t65 110t108.5 77t151 29q64 0 120.5 -18.5
t98.5 -54t66.5 -87t24.5 -116.5t-31 -114t-81 -88t-113.5 -71t-128.5 -63q52 -99 125.5 -196.5t158.5 -191.5q99 112 148.5 207t65.5 166z" />
    <glyph glyph-name="quotesingle" unicode="'" horiz-adv-x="346" 
d="M150 787q-9 73 -22.5 132.5t-26 114t-21 107.5t-8.5 114q0 21 8 39.5t21.5 32t32 21.5t39.5 8q43 0 72.5 -29t29.5 -72q0 -61 -9 -114t-21.5 -107.5t-25.5 -114t-22 -132.5h-47z" />
    <glyph glyph-name="parenleft" unicode="(" horiz-adv-x="733" 
d="M721 -413q-129 46 -235.5 135t-182.5 206.5t-118 255.5t-42 281q0 96 19 191t55 183.5t87 169t115 147.5t140.5 118.5t161.5 81.5v-34q-108 -72 -180.5 -168.5t-116 -208t-61.5 -234t-18 -246.5q0 -122 14.5 -242t56 -229.5t115 -204.5t190.5 -167v-35z" />
    <glyph glyph-name="parenright" unicode=")" horiz-adv-x="733" 
d="M14 -378q117 72 190 167t114 204.5t55.5 229.5t14.5 242q0 124 -18 246.5t-61 234t-115 208t-180 168.5v34q85 -31 161 -82t140 -118t115 -147.5t86.5 -169t54.5 -183.5t19 -191q0 -143 -42 -281t-118 -255.5t-182 -206.5t-234 -135v35z" />
    <glyph glyph-name="asterisk" unicode="*" horiz-adv-x="786" 
d="M379 989q0 33 -9.5 69t-21.5 71.5t-21.5 68.5t-9.5 60q0 42 22.5 70t54.5 28q33 0 55.5 -28t22.5 -70q0 -27 -10 -60t-21.5 -68.5t-21.5 -71.5t-10 -69q28 16 55 42.5t51.5 54.5t48 53t46.5 39q31 16 59 16q20 0 37 -8.5t27 -25.5q4 -7 6.5 -16t2.5 -17
q0 -23 -14.5 -46.5t-41.5 -38.5q-22 -13 -55 -21t-69 -15.5t-72.5 -17.5t-64.5 -26q28 -17 64 -26t73 -16.5t70 -15t56 -20.5q26 -17 40 -40t14 -46q0 -16 -8 -34q-9 -16 -26.5 -24t-37.5 -8q-14 0 -29 3.5t-31 11.5q-23 13 -46.5 38t-48 53t-50.5 54.5t-56 43.5
q0 -33 10 -69.5t21.5 -72.5t21.5 -69.5t10 -58.5q0 -21 -6 -39t-16.5 -31.5t-25 -21t-30.5 -7.5q-32 0 -54.5 28.5t-22.5 70.5q0 27 9.5 60t20.5 69t21 72t11 69q-29 -18 -55.5 -44.5t-51.5 -54.5t-49 -52.5t-47 -37.5q-28 -18 -59 -18q-44 0 -64 34q-8 12 -8 31
q0 25 14.5 48.5t40.5 38.5q21 13 54.5 21t70.5 15.5t73.5 17.5t65.5 27q-29 16 -65 25.5t-73 17t-70.5 15.5t-55.5 22q-26 17 -41.5 40t-15.5 45q0 18 10 33q10 17 27.5 25.5t37.5 8.5q14 0 29 -3.5t31 -11.5q23 -14 46 -39.5t47.5 -53.5t51 -54.5t56.5 -42.5z" />
    <glyph glyph-name="plus" unicode="+" horiz-adv-x="1135" 
d="M517 962h86v-441h461v-83h-461v-441h-86v441h-460v83h460v441z" />
    <glyph glyph-name="comma" unicode="," horiz-adv-x="508" 
d="M86 -282q45 13 85 36.5t69 53.5t46 65.5t17 72.5q0 21 -8.5 37.5t-21.5 16.5t-21.5 -5t-17 -10.5t-20 -10.5t-30.5 -5q-20 0 -37.5 8.5t-31 24t-21.5 36t-8 44.5q0 26 10.5 48t29 38.5t43.5 25.5t53 9q37 0 69 -16.5t56 -45t37.5 -66t13.5 -80.5q0 -68 -25.5 -125
t-68 -99.5t-99 -68.5t-119.5 -30v46z" />
    <glyph glyph-name="hyphen" unicode="-" horiz-adv-x="586" 
d="M536 536v-117h-487v117h487z" />
    <glyph glyph-name="period" unicode="." horiz-adv-x="436" 
d="M219 180q22 0 42 -8.5t35 -22.5t23.5 -33.5t8.5 -40.5q0 -23 -8.5 -42t-23.5 -33.5t-35 -22.5t-42 -8q-23 0 -43 8t-35 22.5t-23.5 33.5t-8.5 42q0 21 8.5 40.5t23.5 33.5t35 22.5t43 8.5z" />
    <glyph glyph-name="slash" unicode="/" horiz-adv-x="514" 
d="M435 1356h91l-445 -1387h-91z" />
    <glyph glyph-name="zero" unicode="0" horiz-adv-x="1122" 
d="M493 -26q-95 0 -172.5 44.5t-133 124t-85.5 189t-30 240.5q0 120 30 227t85.5 186.5t133 126t172.5 46.5q94 0 171.5 -46.5t132.5 -126t85 -186.5t30 -227q0 -131 -30 -240.5t-85 -189t-132.5 -124t-171.5 -44.5zM493 46q54 0 94.5 43t67.5 115.5t40.5 168t13.5 199.5
q0 105 -13.5 198.5t-40.5 164t-67.5 111.5t-94.5 41q-55 0 -95.5 -41t-67.5 -111.5t-40 -164t-13 -198.5q0 -104 13 -199.5t40 -168t67.5 -115.5t95.5 -43z" />
    <glyph glyph-name="one" unicode="1" horiz-adv-x="1122" 
d="M521 0v945h-187v63q104 0 166 39t96 111h99v-1158h-174z" />
    <glyph glyph-name="two" unicode="2" horiz-adv-x="1122" 
d="M86 0v41q124 117 214.5 207t154 159t103 120.5t61.5 92t30 74.5t8 68q0 48 -15 93t-44 79.5t-73.5 55.5t-102.5 21q-45 0 -88.5 -16t-79 -43.5t-60.5 -64t-32 -77.5h-48q5 72 37 135t82 110.5t114 75t134 27.5q88 0 155 -25.5t112 -69t68 -101t23 -120.5q0 -64 -29 -131
t-92 -148t-163 -183t-242 -237h591l-93 -143h-725z" />
    <glyph glyph-name="three" unicode="3" horiz-adv-x="1122" 
d="M318 595q64 7 117 28.5t91 55t59 78t21 98.5q0 36 -14.5 66.5t-40 53.5t-61 36t-78.5 13q-31 0 -64.5 -11t-64.5 -30t-57.5 -45t-42.5 -55l-48 17q19 54 50 101t74 82t98 55t121 20q63 0 118 -18.5t96 -51t64.5 -77.5t23.5 -97q0 -26 -12 -57.5t-33 -63.5t-50 -63
t-63 -56q46 -17 85.5 -48t69 -71.5t46.5 -87t17 -92.5q0 -101 -39 -176t-108 -125t-163 -75t-204 -25q-94 0 -148.5 27.5t-54.5 71.5q0 21 9.5 34.5t24.5 21.5t32 11.5t32 3.5q23 0 41 -3.5t32.5 -9t26.5 -12.5t23 -14q25 -17 49.5 -29t62.5 -12q57 0 100.5 18.5t72.5 49.5
t44 71.5t15 84.5q0 56 -22 104.5t-68 84t-115.5 56t-164.5 20.5v42z" />
    <glyph glyph-name="four" unicode="4" horiz-adv-x="1122" 
d="M583 289h-534v111l588 758h118v-732h160v-137h-160v-289h-172v289zM184 426h399v519z" />
    <glyph glyph-name="five" unicode="5" horiz-adv-x="1122" 
d="M806 980h-362l-76 -137q103 -2 195.5 -36t162 -93t110 -140t40.5 -176q0 -87 -39.5 -164.5t-107.5 -135t-160 -91t-197 -33.5q-48 0 -88.5 9.5t-69 26t-44.5 38t-16 45.5q0 34 25.5 50t59.5 16q32 0 55.5 -10.5t45.5 -24.5q26 -17 57 -31t81 -14q54 0 101 21t82 57
t55.5 84.5t20.5 104.5q0 76 -39.5 137.5t-112 105.5t-176 68t-231.5 24l250 451h456z" />
    <glyph glyph-name="six" unicode="6" horiz-adv-x="1122" 
d="M868 1114q-98 -8 -187 -48.5t-161.5 -104.5t-124.5 -146t-76 -173q52 34 111.5 56t138.5 22q69 0 130 -27t106.5 -73.5t72 -109t26.5 -133.5q0 -83 -32 -156.5t-87.5 -128t-129 -86.5t-157.5 -32q-89 0 -163 35.5t-127.5 96.5t-83.5 143.5t-30 176.5q0 99 25 191.5
t72 174t114.5 149t153.5 116t189 75t220 26.5v-44zM485 632q-19 0 -42 -4.5t-46 -13t-45.5 -20.5t-40.5 -26q-6 -37 -10 -75t-4 -73q0 -75 13.5 -142.5t41 -119t70 -82t100.5 -30.5q40 0 75 20t61 54.5t41 81t15 100.5q0 68 -18 128t-49 105t-72.5 71t-89.5 26z" />
    <glyph glyph-name="seven" unicode="7" horiz-adv-x="1122" 
d="M891 1092l-410 -1118h-125l368 1006h-589l71 152h685v-40z" />
    <glyph glyph-name="eight" unicode="8" horiz-adv-x="1122" 
d="M488 1158q78 0 143.5 -19.5t113 -54t74 -82.5t26.5 -104q0 -34 -21 -72.5t-55.5 -76t-80 -69.5t-93.5 -53q72 -42 124.5 -89.5t86.5 -94t50.5 -89.5t16.5 -77q0 -63 -29 -118t-78.5 -96t-116 -65t-141.5 -24q-80 0 -147 21.5t-115.5 59t-75.5 89.5t-27 112
q0 53 16.5 96.5t47 81.5t74 71.5t98.5 67.5q-59 44 -100.5 81t-68 73t-39 74t-12.5 85q0 55 26 104.5t71 87t104.5 59t127.5 21.5zM309 932q0 -39 21 -75t53.5 -69t73 -62.5t79.5 -55.5q70 55 113 119t43 148q0 31 -13.5 58.5t-39.5 48t-63 32t-83 11.5q-41 0 -74.5 -13.5
t-58 -35t-38 -49.5t-13.5 -57zM728 199q0 33 -12.5 63t-45.5 67t-89.5 85.5t-144.5 117.5q-37 -30 -63 -65t-42.5 -70t-24 -68t-7.5 -61q0 -46 17 -86.5t46 -70.5t67.5 -47.5t82.5 -17.5t83.5 12t69 32.5t46.5 48.5t17 60z" />
    <glyph glyph-name="nine" unicode="9" horiz-adv-x="1122" 
d="M113 18q91 9 178 49t160 102t126.5 142t78.5 169q-51 -30 -110 -51.5t-137 -21.5q-75 0 -135 29.5t-101.5 79t-64 113.5t-22.5 133q0 82 31.5 154t86.5 126t128 85t157 31q83 0 157 -35.5t129 -96.5t87 -144t32 -177q0 -101 -28 -194t-79 -174t-122.5 -148t-158 -115
t-186.5 -74t-207 -26v44zM495 498q21 0 46 5t49.5 14t46.5 21t38 26q6 36 10.5 79t4.5 85q0 73 -18 138.5t-49 114.5t-73 77.5t-90 28.5q-49 0 -84.5 -22.5t-58 -58.5t-33.5 -81.5t-11 -92.5q0 -72 13 -133.5t40 -106t69 -69.5t100 -25z" />
    <glyph glyph-name="colon" unicode=":" horiz-adv-x="436" 
d="M219 915q22 0 42 -8.5t35 -22.5t23.5 -33.5t8.5 -41.5t-8.5 -41t-23.5 -33.5t-35 -23t-42 -8.5q-23 0 -43 8.5t-35 23t-23.5 33.5t-8.5 41t8.5 41.5t23.5 33.5t35 22.5t43 8.5zM219 180q22 0 42 -8.5t35 -22.5t23.5 -33.5t8.5 -40.5q0 -23 -8.5 -42t-23.5 -33.5
t-35 -22.5t-42 -8q-23 0 -43 8t-35 22.5t-23.5 33.5t-8.5 42q0 21 8.5 40.5t23.5 33.5t35 22.5t43 8.5z" />
    <glyph glyph-name="semicolon" unicode=";" horiz-adv-x="532" 
d="M258 915q22 0 42 -9t34.5 -24t23 -35t8.5 -42q0 -23 -8.5 -43t-23 -34.5t-34.5 -23t-42 -8.5q-23 0 -43 8.5t-35 23t-23.5 34.5t-8.5 43q0 22 8.5 42t23.5 35t35 24t43 9zM109 -282q45 13 85 36.5t70 53.5t47 65.5t17 72.5q0 21 -9 37.5t-23 16.5q-12 0 -20 -5t-17 -10.5
t-20.5 -10.5t-30.5 -5q-20 0 -38 8.5t-31.5 24t-21.5 36t-8 44.5q0 26 10.5 48t29.5 38.5t43.5 25.5t53.5 9q37 0 69 -16.5t56 -45t37.5 -66t13.5 -80.5q0 -68 -25.5 -125t-68 -99.5t-99.5 -68.5t-120 -30v46z" />
    <glyph glyph-name="less" unicode="&#x3c;" horiz-adv-x="1077" 
d="M1040 940v-101l-840 -361l840 -346v-101l-1007 418v56z" />
    <glyph glyph-name="equal" unicode="=" horiz-adv-x="1190" 
d="M90 692h1007v-102h-1007v102zM90 365h1007v-101h-1007v101z" />
    <glyph glyph-name="greater" unicode="&#x3e;" horiz-adv-x="1067" 
d="M1037 450l-1006 -418v101l839 346l-839 361v101l1006 -435v-56z" />
    <glyph glyph-name="question" unicode="?" horiz-adv-x="922" 
d="M407 310q0 87 16 154.5t40 124t51.5 106t51.5 100t40 106.5t16 126q0 65 -16 113t-45 80t-68.5 48t-85.5 16q-41 0 -75.5 -9.5t-59.5 -27t-39 -41t-14 -50.5q0 -29 10 -47t21.5 -33t21.5 -30.5t10 -39.5q0 -42 -23 -66.5t-56 -24.5q-23 0 -42.5 10.5t-33.5 29.5
t-22.5 45.5t-8.5 57.5q0 81 33 137.5t84.5 92t115 52t124.5 16.5q81 0 149.5 -21.5t118 -62t77.5 -99t28 -131.5q0 -72 -27.5 -133.5t-69 -118t-90 -111t-90 -111.5t-69 -120.5t-27.5 -137.5h-46zM438 188q22 0 42 -9t34.5 -24t23 -35t8.5 -42q0 -23 -8.5 -42.5t-23 -34.5
t-34.5 -23.5t-42 -8.5q-23 0 -43 8.5t-35 23.5t-23.5 34.5t-8.5 42.5q0 22 8.5 42t23.5 35t35 24t43 9z" />
    <glyph glyph-name="at" unicode="@" horiz-adv-x="1892" 
d="M1221 876l159 19l-182 -618q-11 -38 -18.5 -73t-7.5 -72q0 -39 15 -68t50 -29q44 0 91.5 23.5t92.5 66t85.5 101.5t71 130t48.5 151.5t18 165.5q0 135 -48.5 248t-131 194.5t-190.5 127.5t-227 46q-127 0 -239 -30t-206 -84.5t-168.5 -131.5t-126 -171t-79 -203
t-27.5 -227q0 -104 25 -202.5t72.5 -186t116 -160.5t155 -125.5t189.5 -82t220 -29.5q103 0 191.5 23t163.5 63t136.5 93.5t110.5 114.5t86.5 126t64.5 128l74 -20q-61 -138 -138.5 -250t-179 -191t-230.5 -122t-293 -43q-132 0 -246 31t-208.5 88t-168 137t-124 177.5
t-77 210.5t-26.5 235q0 129 31.5 246t90 217t141.5 180.5t186 137.5t224 87.5t255 30.5q145 0 269.5 -49t216 -139.5t144 -218t52.5 -283.5q0 -92 -19 -179.5t-53.5 -165t-82 -142t-104 -111.5t-120 -73t-129.5 -26q-42 0 -78 6.5t-62 23.5t-41 45.5t-15 72.5q0 32 3.5 67.5
t12.5 71.5q-6 -6 -11.5 -15.5t-11.5 -17.5q-37 -42 -77.5 -86.5t-84.5 -82t-90.5 -61.5t-94.5 -24q-47 0 -81 19.5t-55.5 52t-32 74t-10.5 86.5q0 67 21 146.5t58 158.5t88.5 153t112.5 131t129 91t139 34q31 0 56 -15t43.5 -38.5t30 -53.5t15.5 -60zM727 94q49 0 98.5 30.5
t95 81.5t85 116.5t68.5 134.5t46 137.5t17 124.5q0 28 -12.5 54t-31.5 46.5t-41.5 32.5t-41.5 12q-54 0 -104 -32.5t-93 -85.5t-79 -120.5t-61 -138t-39 -138t-14 -119.5q0 -21 4.5 -44.5t16.5 -44t32.5 -34t53.5 -13.5z" />
    <glyph glyph-name="A" unicode="A" horiz-adv-x="1327" 
d="M699 1356l624 -1356h-227l-202 442h-569l-209 -442h-112l639 1356h56zM364 528h489l-241 525z" />
    <glyph glyph-name="B" unicode="B" horiz-adv-x="1354" 
d="M180 1326h534q106 0 194.5 -23.5t152 -66.5t98.5 -103t35 -132q0 -55 -11 -98t-39 -79.5t-74.5 -69t-117.5 -66.5v-4q71 -11 128 -38t97.5 -68.5t62.5 -97t22 -121.5q0 -75 -32.5 -140.5t-93 -114t-146 -76.5t-191.5 -28h-619v1326zM403 729h284q67 0 119 19t88 52.5
t54.5 80t18.5 100.5q0 58 -22 105.5t-68.5 81.5t-118 52t-171.5 18h-184v-509zM403 97h241q97 0 168.5 18.5t118 52t69 80.5t22.5 103q0 63 -20 117t-65.5 93.5t-119 62.5t-180.5 23h-234v-550z" />
    <glyph glyph-name="C" unicode="C" horiz-adv-x="1589" 
d="M390 658q0 -139 42 -249.5t115.5 -187t173.5 -117t217 -40.5q70 0 135 27t120.5 70.5t99.5 98t72 110.5l94 -60q-41 -67 -97 -128.5t-129.5 -109t-166 -75.5t-206.5 -28q-165 0 -299.5 55t-230.5 149t-148.5 219.5t-52.5 265.5q0 93 24 181.5t69.5 166t111 142t148 111
t180.5 72t209 25.5q106 0 195.5 -28.5t163 -75.5t131 -108.5t98.5 -128.5l-97 -64q-83 161 -186 235.5t-237 74.5q-115 0 -215 -42t-174.5 -120t-117 -189.5t-42.5 -251.5z" />
    <glyph glyph-name="D" unicode="D" horiz-adv-x="1563" 
d="M180 1326h442q204 0 351 -38t245 -122q112 -96 168.5 -220t56.5 -271q0 -140 -50.5 -263t-148 -214.5t-241 -144.5t-328.5 -53h-495v1326zM403 97h237q112 0 211 37t172.5 110t116 179.5t42.5 246.5q0 123 -40 225.5t-112 176.5t-171.5 115t-217.5 41h-238v-1131z" />
    <glyph glyph-name="E" unicode="E" horiz-adv-x="1184" 
d="M1102 1326v-86h-699v-474h468v-86h-468v-594h699v-86h-922v1326h922z" />
    <glyph glyph-name="F" unicode="F" horiz-adv-x="1047" 
d="M1036 1326v-86h-647v-474h468v-86h-468v-680h-223v1326h870z" />
    <glyph glyph-name="G" unicode="G" horiz-adv-x="1622" 
d="M934 1261q-120 0 -221.5 -42.5t-175 -122t-114.5 -192t-41 -251.5q0 -140 44.5 -252.5t122 -191.5t182.5 -121.5t225 -42.5q87 0 157 23.5t126 67.5v465h-251v79h474v-583q-58 -31 -117 -55t-127.5 -40t-150.5 -24.5t-186 -8.5q-110 0 -209 24.5t-183.5 69.5
t-152.5 107.5t-115.5 138.5t-73.5 163.5t-26 180.5t24.5 181.5t70.5 167t112 143.5t149 112t181 73t208 26q105 0 194.5 -28.5t163 -75.5t130.5 -108.5t98 -128.5l-96 -64q-84 161 -186.5 235.5t-235.5 74.5z" />
    <glyph glyph-name="H" unicode="H" horiz-adv-x="1473" 
d="M403 636v-636h-223v1326h223v-604h666v604h223v-1326h-223v636h-666z" />
    <glyph glyph-name="I" unicode="I" horiz-adv-x="584" 
d="M180 1326h223v-1326h-223v1326z" />
    <glyph glyph-name="J" unicode="J" horiz-adv-x="924" 
d="M764 379q0 -72 -13 -142t-53 -126t-114 -90.5t-196 -34.5q-69 0 -124.5 13t-100.5 33.5t-81.5 46.5t-67.5 53l70 94q22 -18 53 -45t67.5 -51.5t76 -42.5t79.5 -18q88 0 134.5 46t46.5 124v1087h223v-947z" />
    <glyph glyph-name="K" unicode="K" horiz-adv-x="1427" 
d="M180 1326h223v-588l698 588h145l-662 -558l840 -768h-284l-737 673v-673h-223v1326z" />
    <glyph glyph-name="L" unicode="L" horiz-adv-x="1090" 
d="M180 1326h223v-1240h668v-86h-891v1326z" />
    <glyph glyph-name="M" unicode="M" horiz-adv-x="1845" 
d="M180 1326h228l516 -1017h11l506 1017h224v-1326h-224v1087h-7l-544 -1087h-46l-550 1078h-15v-1078h-99v1326z" />
    <glyph glyph-name="N" unicode="N" horiz-adv-x="1462" 
d="M180 1326h125l869 -970h10v970h98v-1357h-52l-941 1078h-8v-1047h-101v1326z" />
    <glyph glyph-name="O" unicode="O" horiz-adv-x="1704" 
d="M852 -31q-154 0 -287.5 55t-232 150.5t-155 223t-56.5 272.5q0 95 25.5 183t72.5 164t113.5 138.5t147.5 107t175.5 69t196.5 24.5q103 0 197 -24.5t175.5 -69t147.5 -107t113.5 -138.5t73 -164t25.5 -183q0 -97 -25.5 -186t-73 -167t-113.5 -142t-147.5 -110t-175.5 -71
t-197 -25zM852 35q114 0 201.5 47.5t147.5 132.5t90.5 201t30.5 254q0 137 -30.5 251t-90.5 196.5t-147.5 128t-201.5 45.5q-116 0 -203.5 -45.5t-147 -128t-89.5 -196.5t-30 -251q0 -138 30 -254t89.5 -201t147 -132.5t203.5 -47.5z" />
    <glyph glyph-name="P" unicode="P" horiz-adv-x="1184" 
d="M180 1326h420q104 0 195 -25t158.5 -73.5t106 -119t38.5 -161.5q0 -90 -37.5 -157t-99 -111t-139.5 -65.5t-159 -21.5q-35 0 -73 1.5t-73 4.5t-65 7t-49 8v-613h-223v1326zM403 688q38 -13 81 -21.5t88 -8.5q72 0 126 21.5t90 59t53.5 88t17.5 107.5q0 67 -23 121
t-63.5 92.5t-95 59.5t-116.5 21h-158v-540z" />
    <glyph glyph-name="Q" unicode="Q" horiz-adv-x="1686" 
d="M1558 -415q-98 0 -194 18t-186 49t-172.5 72.5t-152.5 87t-125.5 93t-92.5 91.5q-113 28 -207.5 96t-162.5 160t-106 200.5t-38 217.5q0 142 55 267t152 218t229 147t287 54q154 0 286 -54t229 -147t152 -218t55 -267q0 -115 -41 -226.5t-113.5 -204.5t-173 -159.5
t-220.5 -90.5q22 -66 73.5 -132t123 -118.5t159.5 -85t184 -32.5v-36zM844 35q112 12 199.5 61.5t147.5 131t91.5 193t31.5 249.5q0 137 -31 251t-91 196.5t-147.5 128t-200.5 45.5q-116 0 -204 -45.5t-147 -128t-89 -196.5t-30 -251q0 -138 30 -254t89 -201t147 -132.5
t204 -47.5z" />
    <glyph glyph-name="R" unicode="R" horiz-adv-x="1280" 
d="M180 1326h460q119 0 209 -25.5t150 -71.5t90.5 -109.5t30.5 -138.5q0 -62 -23.5 -116t-66 -97.5t-102.5 -75t-132 -49.5l483 -643h-259l-461 623h-156v-623h-223v1326zM403 690h129q75 0 138.5 20t110 56.5t72.5 88.5t26 117q0 60 -20.5 110t-58 85.5t-89 55.5t-112.5 20
h-196v-553z" />
    <glyph glyph-name="S" unicode="S" horiz-adv-x="1204" 
d="M614 53q49 0 97 13.5t86 40t61 65t23 89.5q0 61 -31.5 108.5t-82.5 87t-116.5 74.5t-133.5 70t-133.5 73.5t-116.5 86t-82.5 106t-31.5 134.5t28.5 141t83.5 112.5t135.5 74.5t184.5 27q94 0 168 -20t130 -59t95 -96t63 -132l-114 -52q-20 61 -51 111.5t-74 86.5
t-99.5 55.5t-127.5 19.5q-63 0 -110 -17.5t-78.5 -46t-47 -64t-15.5 -72.5q0 -52 32 -95.5t85 -82t120.5 -74.5t137.5 -73t137.5 -77t120.5 -87.5t85 -104t32 -126.5q0 -79 -30 -148.5t-90 -121t-149 -81.5t-207 -30q-96 0 -171 21t-132.5 61t-98.5 97.5t-67 131.5l119 49
q21 -65 56.5 -116t82.5 -86.5t104.5 -54.5t122.5 -19z" />
    <glyph glyph-name="T" unicode="T" horiz-adv-x="1260" 
d="M1222 1326v-86h-480v-1240h-223v1240h-480v86h1183z" />
    <glyph glyph-name="U" unicode="U" horiz-adv-x="1464" 
d="M160 1326h223v-861q0 -85 29 -159.5t83 -130.5t130.5 -88.5t170.5 -32.5q95 0 171 32.5t129.5 88.5t82 130.5t28.5 159.5v861h98v-861q0 -102 -33 -192t-103.5 -157.5t-180.5 -107t-264 -39.5q-137 0 -242.5 39.5t-177 107.5t-108 159.5t-36.5 195.5v855z" />
    <glyph glyph-name="V" unicode="V" horiz-adv-x="1315" 
d="M239 1326l501 -1055l465 1055h106l-602 -1357h-58l-647 1357h235z" />
    <glyph glyph-name="W" unicode="W" horiz-adv-x="1825" 
d="M223 1326l396 -1008l348 910l359 -914l387 1012h108l-510 -1337h-66l-328 827l-314 -827h-76l-527 1337h223z" />
    <glyph glyph-name="X" unicode="X" horiz-adv-x="1321" 
d="M117 0h-117l559 654l-510 672h265l385 -509l434 509h118l-498 -582l565 -744h-267l-438 581z" />
    <glyph glyph-name="Y" unicode="Y" horiz-adv-x="1274" 
d="M230 1326l460 -672l458 672h121l-514 -753v-573h-223v552l-530 774h228z" />
    <glyph glyph-name="Z" unicode="Z" horiz-adv-x="1290" 
d="M1277 1326l-959 -1240h959v-86h-1259v33l931 1207h-931v86h1259z" />
    <glyph glyph-name="bracketleft" unicode="[" horiz-adv-x="612" 
d="M166 1356h438v-88h-282v-1556h282v-90h-438v1734z" />
    <glyph glyph-name="backslash" unicode="\" horiz-adv-x="516" 
d="M435 -31l-445 1387h92l444 -1387h-91z" />
    <glyph glyph-name="bracketright" unicode="]" horiz-adv-x="612" 
d="M10 -378v90h280v1556h-280v88h436v-1734h-436z" />
    <glyph glyph-name="asciicircum" unicode="^" horiz-adv-x="934" 
d="M8 639l429 717h62l429 -717h-124l-339 570l-341 -570h-116z" />
    <glyph glyph-name="underscore" unicode="_" horiz-adv-x="1065" 
d="M1071 -196v-88h-1071v88h1071z" />
    <glyph glyph-name="grave" unicode="`" horiz-adv-x="610" 
d="M340 1356l102 -344h-54l-294 344h246z" />
    <glyph glyph-name="a" unicode="a" horiz-adv-x="1075" 
d="M817 0q-40 20 -67.5 56.5t-27.5 83.5q-36 -27 -70.5 -56t-75 -52.5t-90 -38.5t-114.5 -15q-60 0 -108.5 19.5t-82 53.5t-52 81t-18.5 101q0 66 26 119t71.5 94.5t105.5 74t128 58t140 45.5t140 37v64q0 70 -10 118t-31 77.5t-53.5 42t-77.5 12.5q-43 0 -79 -17
t-63.5 -45.5t-45 -67t-23.5 -81.5h-186q8 66 45.5 118t94.5 87.5t129.5 54.5t150.5 19q100 0 168 -19.5t109 -54.5t58.5 -85.5t17.5 -111.5v-632q0 -47 27.5 -83.5t67.5 -56.5h-204zM722 596q-44 -14 -91 -32t-92 -40.5t-86 -48.5t-72 -56t-49 -63t-18 -69q0 -38 14 -71.5
t37 -59t53 -40t62 -14.5q34 0 65 9t60 24.5t58 35.5t59 43v382z" />
    <glyph glyph-name="b" unicode="b" horiz-adv-x="1253" 
d="M180 1489l144 57h60v-715q25 43 65.5 82t88 67.5t99 45.5t98.5 17q89 0 164 -36t129 -98t84.5 -144.5t30.5 -176.5q0 -127 -44.5 -238t-122 -193.5t-181.5 -130.5t-222 -48q-114 0 -214.5 30t-178.5 91v1390zM384 167q19 -18 41.5 -37t50.5 -34.5t62.5 -25t77.5 -9.5
q71 0 129 34.5t99.5 96t64 146t22.5 184.5q0 76 -23.5 142.5t-64 116t-95 78t-116.5 28.5q-35 0 -71.5 -10t-69.5 -27t-61 -39.5t-46 -48.5v-595z" />
    <glyph glyph-name="c" unicode="c" horiz-adv-x="1171" 
d="M852 736q-11 40 -30 81t-48.5 74.5t-69.5 54.5t-94 21q-69 0 -124 -28t-93 -76t-58 -112t-20 -136q0 -98 25.5 -185.5t72 -153.5t112 -104.5t146.5 -38.5q71 0 123.5 22.5t91 60.5t66.5 88.5t50 106.5l61 -25q-26 -96 -70 -172t-103.5 -128.5t-134 -80t-161.5 -27.5
q-101 0 -189 39.5t-153 108.5t-103 161t-38 197q0 77 19 148.5t53.5 133.5t83 113t107.5 87.5t126.5 56.5t140.5 20q61 0 117 -14t103 -39.5t83 -63t56 -83.5z" />
    <glyph glyph-name="d" unicode="d" horiz-adv-x="1262" 
d="M882 99q-35 -28 -76 -50.5t-85.5 -38t-89.5 -24t-88 -8.5q-90 0 -168.5 42t-137 113t-92.5 165.5t-34 199.5q0 104 42.5 202t115.5 174.5t170.5 122.5t208.5 46q75 0 130.5 -26t103.5 -69v540l143 58h59v-1546h-202v99zM882 698q0 60 -22.5 109.5t-58.5 85t-81.5 55
t-91.5 19.5q-61 0 -114 -30t-92.5 -84.5t-62.5 -130t-23 -166.5q0 -98 25 -183t68.5 -148.5t102 -100t125.5 -36.5q32 0 64.5 8.5t61.5 23t54.5 33.5t44.5 40v505z" />
    <glyph glyph-name="e" unicode="e" horiz-adv-x="1206" 
d="M613 -22q-104 0 -195.5 39t-159.5 106t-107.5 157.5t-39.5 192.5q0 123 36 227.5t102 180.5t158.5 119t206.5 43q100 0 184 -35.5t144.5 -95t94 -137.5t33.5 -163h-763q0 -103 26.5 -191t74.5 -152t114 -100t145 -36q66 0 127 21.5t110.5 56.5t84.5 80t49 93l59 -26
q-22 -79 -71 -148t-114.5 -120.5t-142.5 -81.5t-156 -30zM815 694q0 58 -20.5 108t-56.5 86.5t-84 57.5t-103 21q-46 0 -88 -20.5t-75 -57t-54.5 -86.5t-25.5 -108z" />
    <glyph glyph-name="f" unicode="f" horiz-adv-x="739" 
d="M604 1470q-33 0 -60.5 -17.5t-47 -46t-30 -65.5t-10.5 -76v-241h273v-87h-273v-937h-204v937h-213v87h213v118q0 84 30 157.5t81.5 128t121 86.5t148.5 32q54 0 104.5 -14t93.5 -39.5t76.5 -63t53.5 -83.5l-148 -107q-11 40 -26 81t-38 74.5t-58 54.5t-87 21z" />
    <glyph glyph-name="g" unicode="g" horiz-adv-x="1153" 
d="M1144 970v-86h-194q29 -41 47.5 -93.5t18.5 -103.5q0 -80 -35 -145t-97.5 -112t-149.5 -72.5t-192 -25.5q-39 0 -79.5 6t-70.5 16q-29 -24 -49 -55.5t-20 -63.5q0 -31 33.5 -49t95.5 -21l378 -17q91 -4 151.5 -21.5t96.5 -47t51 -69.5t15 -90q0 -89 -41.5 -161.5
t-119.5 -123.5t-190.5 -79t-254.5 -28q-127 0 -222 15t-158 42.5t-94 66t-31 86.5q0 42 21 80.5t54 74t73 68.5t79 63q-28 9 -52.5 21.5t-42.5 28.5t-28 34.5t-10 39.5q0 31 16.5 64.5t45 64t66 56t80.5 40.5q-103 44 -161.5 122.5t-58.5 180.5q0 75 34.5 142t95.5 117
t142.5 79t176.5 29q46 0 90.5 -6t83 -16t68 -23t46.5 -28h292zM323 8q-23 -17 -40 -38t-29 -44t-18 -46.5t-6 -44.5q0 -34 24 -65t72 -55t120.5 -38t168.5 -14q102 0 182.5 16t137 42.5t86 59t29.5 65.5q0 34 -17.5 59t-50.5 41t-80 24t-106 8q-74 0 -149 3.5t-140 8
t-114 10t-70 8.5zM576 385q43 0 83 19.5t70.5 53.5t48.5 79.5t18 98.5q0 75 -20.5 139.5t-55.5 112t-82 74.5t-99 27q-51 0 -88.5 -21t-61.5 -58.5t-35.5 -88t-11.5 -108.5q0 -69 17 -129t48 -104.5t74 -69.5t95 -25z" />
    <glyph glyph-name="h" unicode="h" horiz-adv-x="1217" 
d="M384 836q91 104 192 155.5t204 51.5q54 0 100.5 -24t81.5 -66t55 -98.5t20 -120.5v-734h-203v699q0 102 -46 154.5t-118 52.5q-32 0 -68 -11t-73 -30.5t-74 -46.5t-71 -60v-758h-204v1488l146 58h58v-710z" />
    <glyph glyph-name="i" unicode="i" horiz-adv-x="592" 
d="M196 985l143 58h59v-1043h-202v985zM180 1416q0 24 9 45t25 37t37 25t45 9t45 -9t37 -25t25 -37t9 -45t-9 -45t-25 -37t-37 -25t-45 -9t-45 9t-37 25t-25 37t-9 45z" />
    <glyph glyph-name="j" unicode="j" horiz-adv-x="582" 
d="M-107 -264q15 -27 34.5 -51t44.5 -42t55.5 -28.5t67.5 -10.5q24 0 43.5 8.5t33 28.5t21 53t7.5 83v1208l144 58h58v-1043q0 -153 -28 -246t-77.5 -143t-117.5 -66.5t-149 -16.5q-75 0 -145.5 31.5t-120.5 82.5zM185 1416q0 24 9 45t25 37t37 25t45 9t45 -9t37 -25t25 -37
t9 -45t-9 -45t-25 -37t-37 -25t-45 -9t-45 9t-37 25t-25 37t-9 45z" />
    <glyph glyph-name="k" unicode="k" horiz-adv-x="1092" 
d="M364 611l514 413h132l-459 -373l567 -651h-268l-486 560v-560h-204v1488l146 58h58v-935z" />
    <glyph glyph-name="l" unicode="l" horiz-adv-x="563" 
d="M384 0h-204v1488l145 58h59v-1546z" />
    <glyph glyph-name="m" unicode="m" horiz-adv-x="1919" 
d="M326 1043h58v-212q39 42 88 80.5t101 68t104 46.5t99 17q45 0 91.5 -16t86 -45t68 -68.5t37.5 -86.5q25 45 69.5 84.5t98.5 68.5t114.5 46t118.5 17t108.5 -25.5t88.5 -69t60 -102t22 -124.5v-722h-203v694q0 43 -14.5 81.5t-39.5 67.5t-58.5 46t-70.5 17
q-42 0 -85.5 -11.5t-82.5 -31.5t-71 -46.5t-51 -56.5v-760h-203v694q0 43 -15 81.5t-40 67.5t-59 46t-71 17q-39 0 -80.5 -12t-81 -32t-73.5 -46.5t-56 -55.5v-760h-204v986z" />
    <glyph glyph-name="n" unicode="n" horiz-adv-x="1217" 
d="M326 1043h58v-207q93 104 193 155.5t203 51.5q54 0 100.5 -24t81.5 -66t55 -98.5t20 -120.5v-734h-203v699q0 51 -12 89.5t-34 64.5t-51.5 39.5t-65.5 13.5q-32 0 -68 -11t-73.5 -30.5t-74.5 -46.5t-71 -60v-758h-204v986z" />
    <glyph glyph-name="o" unicode="o" horiz-adv-x="1300" 
d="M652 -22q-118 0 -217 41t-171 111.5t-112.5 165t-40.5 202.5q0 113 40.5 212.5t112.5 173.5t171 116.5t217 42.5q117 0 215.5 -39t170.5 -107t112.5 -159.5t40.5 -196.5q0 -116 -40.5 -218.5t-112.5 -179t-170.5 -121t-215.5 -44.5zM691 53q60 0 110 31t86 83.5t56 121.5
t20 146q0 111 -19 208t-62 169t-112 113.5t-168 41.5q-51 0 -99 -29.5t-84.5 -80.5t-58.5 -119.5t-22 -145.5q0 -112 23.5 -210t69 -171t111 -115.5t149.5 -42.5z" />
    <glyph glyph-name="p" unicode="p" horiz-adv-x="1268" 
d="M326 1043h58v-230q31 39 68.5 80t83 74.5t100.5 54.5t120 21q91 0 165 -38t126.5 -103t81 -152.5t28.5 -186.5q0 -127 -35 -234.5t-100 -185.5t-158 -121.5t-208 -43.5q-42 0 -78.5 4.5t-69 13.5t-63 23t-61.5 34v-484h-204v1417zM384 276q0 -46 20 -86.5t56 -71t86 -48
t110 -17.5q57 0 107.5 29t88 82.5t59 127.5t21.5 164q0 113 -20 197.5t-55.5 140.5t-84 84t-106.5 28q-44 0 -84.5 -13.5t-76.5 -36.5t-66.5 -53t-54.5 -63v-464z" />
    <glyph glyph-name="q" unicode="q" horiz-adv-x="1266" 
d="M885 160q-31 -33 -66.5 -66t-79.5 -58.5t-98 -41.5t-121 -16q-85 0 -159.5 38t-130 103t-87.5 153t-32 188q0 80 20 154.5t56 139.5t87 118t112.5 91t132.5 59t148 21q34 0 67.5 -6t63 -16.5t52.5 -24t35 -29.5l153 76h49v-1474h-202v591zM885 774q0 42 -18 73t-44 55
q-14 13 -35.5 25t-46 21t-50.5 14t-50 5q-66 0 -123.5 -31.5t-100.5 -86.5t-68 -128t-25 -155q0 -90 23.5 -169t64.5 -137.5t95.5 -92.5t117.5 -34q46 0 87.5 12t76 30.5t59.5 40.5t37 42v516z" />
    <glyph glyph-name="r" unicode="r" horiz-adv-x="885" 
d="M325 1043h31l27 -209q24 46 60 84t79.5 66t92 43.5t98.5 15.5q45 0 88.5 -12t81.5 -38l-64 -171q-20 22 -42 35.5t-45 21t-47 9.5t-48 2q-38 0 -74.5 -11t-69.5 -32.5t-61 -55t-49 -78.5v-713h-203v987z" />
    <glyph glyph-name="s" unicode="s" horiz-adv-x="987" 
d="M489 49q41 0 76 12.5t60.5 33.5t39.5 48.5t14 56.5q0 47 -23.5 82t-62 62.5t-87.5 50.5t-100 47.5t-100 52t-87.5 64.5t-62 85.5t-23.5 113.5q0 61 26 113.5t72.5 90.5t110.5 59.5t140 21.5q51 0 95 -7t86.5 -27t84.5 -57.5t89 -97.5l-75 -67q-58 95 -129.5 141.5
t-152.5 46.5q-44 0 -80 -10.5t-61.5 -29t-40 -43.5t-14.5 -53q0 -46 25.5 -80t67.5 -61.5t95.5 -50.5t109 -47t109 -52t95.5 -64.5t67.5 -84.5t25.5 -112q0 -65 -24 -121.5t-72.5 -98t-121.5 -65.5t-172 -24q-45 0 -92.5 7t-95.5 27.5t-96 57.5t-94 97l83 75
q37 -52 71 -88.5t69.5 -60t73 -34t81.5 -10.5z" />
    <glyph glyph-name="t" unicode="t" horiz-adv-x="813" 
d="M395 1372h58v-348h228v-87h-228v-721q0 -23 8.5 -43t23 -35t34.5 -23.5t44 -8.5q34 0 62 17t49 42l51 -34q-42 -71 -109 -112t-166 -41q-51 0 -89 17.5t-62.5 49t-36.5 75t-12 96.5v721h-178v38l178 49v291z" />
    <glyph glyph-name="u" unicode="u" horiz-adv-x="1233" 
d="M384 1024v-729q0 -38 17.5 -72t48.5 -59t71.5 -39.5t87.5 -14.5q30 0 64.5 13t67.5 35.5t61.5 53t48.5 64.5v748h202v-1024h-202v192q-27 -44 -67.5 -83t-87.5 -68t-97 -46t-95 -17q-67 0 -126 25t-103 68t-69.5 101t-25.5 123v729h204z" />
    <glyph glyph-name="v" unicode="v" horiz-adv-x="1042" 
d="M225 1024l362 -775l347 775h92l-461 -1035h-70l-483 1035h213z" />
    <glyph glyph-name="w" unicode="w" horiz-adv-x="1599" 
d="M233 1024l324 -748l321 748l323 -748l286 748h98l-418 -1035h-69l-286 669l-287 -669h-63l-448 1035h219z" />
    <glyph glyph-name="x" unicode="x" horiz-adv-x="969" 
d="M10 1024h240l708 -1024h-239zM121 0h-111l836 1024h112z" />
    <glyph glyph-name="y" unicode="y" horiz-adv-x="1092" 
d="M144 -242q12 -5 26.5 -13t32 -15.5t38.5 -12.5t47 -5q32 0 60 18t51 45t41 59t30 60l69 154l-523 976h231l394 -740l323 740h109l-523 -1204q-33 -75 -75.5 -130t-90.5 -91t-99 -53.5t-99 -17.5q-36 0 -70 11t-57 29z" />
    <glyph glyph-name="z" unicode="z" horiz-adv-x="1067" 
d="M20 53l736 885h-736v86h1025v-44l-753 -894h753v-86h-1025v53z" />
    <glyph glyph-name="braceleft" unicode="{" horiz-adv-x="639" 
d="M616 1322q-52 -5 -97.5 -29.5t-79 -63.5t-53 -90t-19.5 -107q0 -38 5 -69.5t10.5 -60t10.5 -54.5t5 -52q0 -48 -20.5 -97t-56.5 -92t-84 -76.5t-103 -50.5q55 -13 103 -45.5t84 -76.5t56.5 -96.5t20.5 -105.5q0 -32 -5 -59.5t-10.5 -55t-10.5 -57.5t-5 -66
q0 -59 19.5 -111t53 -91.5t79 -64.5t97.5 -29v-35q-80 0 -151 30.5t-124 83.5t-83.5 124t-30.5 151q0 29 4.5 56.5t10.5 56t10.5 60t4.5 69.5q0 48 -17.5 91t-48.5 74.5t-72 50t-88 18.5v47q47 0 88 18.5t72 50t48.5 74.5t17.5 91q0 42 -4.5 76t-10.5 63t-10.5 54t-4.5 49
q0 79 30.5 148t83.5 121t124 82t151 30v-34z" />
    <glyph glyph-name="bar" unicode="|" horiz-adv-x="332" 
d="M213 1346v-1776h-94v1776h94z" />
    <glyph glyph-name="braceright" unicode="}" horiz-adv-x="637" 
d="M23 1356q81 0 152 -30t124 -82t83.5 -121t30.5 -148q0 -24 -5 -49t-10.5 -54t-10.5 -63t-5 -76q0 -48 18 -91t48.5 -74.5t71.5 -50t88 -18.5v-47q-47 0 -88 -18.5t-71.5 -50t-48.5 -74.5t-18 -91q0 -38 5 -69.5t10.5 -60t10.5 -56t5 -56.5q0 -80 -30.5 -151t-83.5 -124
t-124 -83.5t-152 -30.5v35q52 4 97.5 29t79.5 64.5t53.5 91.5t19.5 111q0 36 -5 66t-10.5 57.5t-10.5 55t-5 59.5q0 53 20.5 105.5t56.5 96.5t84 76.5t103 45.5q-55 17 -103 50.5t-84 76.5t-56.5 92t-20.5 97q0 26 5 52t10.5 54.5t10.5 60t5 69.5q0 56 -19.5 107t-53.5 90
t-79.5 63.5t-97.5 29.5v34z" />
    <glyph glyph-name="asciitilde" unicode="~" horiz-adv-x="1069" 
d="M1050 633q0 -78 -19.5 -136.5t-55 -98t-85.5 -59.5t-112 -20q-56 0 -105 13.5t-92.5 33t-83.5 43t-77.5 43t-73.5 33t-73 13.5q-36 0 -70 -15t-61 -39.5t-45.5 -57t-24.5 -67.5h-47q0 76 20 135t58 98.5t92.5 60t123.5 20.5q44 0 90 -13.5t90.5 -33.5t88.5 -43t84.5 -43
t77 -33.5t68.5 -13.5q42 0 71.5 15t50.5 40t35.5 57.5t26.5 67.5h48z" />
    <glyph glyph-name="copyright" unicode="&#xa9;" horiz-adv-x="1561" 
d="M783 1399q99 0 190 -25.5t169.5 -72t142.5 -111.5t109.5 -144t70.5 -169t25 -187q0 -100 -26 -191t-73 -169.5t-112.5 -142.5t-144 -109.5t-168 -70.5t-183.5 -25q-99 0 -190.5 25.5t-170.5 72t-143.5 111t-110.5 143.5t-71 169t-25 187t26.5 187.5t74.5 169.5t114 144
t145 111t168 71.5t183 25.5zM783 1284q-124 0 -232 -48.5t-188 -130.5t-126 -189.5t-46 -225.5q0 -82 22 -157t61 -141t94 -120t120.5 -92.5t140.5 -59.5t154 -21q78 0 152.5 21.5t140 60t120 92.5t94 119.5t61.5 141t22 156.5t-22 157t-61.5 142t-94 120.5t-120 93t-140 60
t-152.5 21.5zM1009 577l114 -36q-12 -61 -43 -108.5t-75 -80.5t-99.5 -50.5t-118.5 -17.5q-91 0 -161 32t-117.5 87.5t-72 128.5t-24.5 156q0 93 26.5 167.5t75.5 126t119.5 79t159.5 27.5q245 0 319 -220l-113 -28q-59 145 -211 145q-66 0 -112.5 -26t-76.5 -68t-44 -95.5
t-14 -108.5q0 -144 66 -217.5t180 -73.5q92 0 145 44t77 137z" />
    <glyph glyph-name="onequarter" unicode="&#xbc;" horiz-adv-x="1620" 
d="M1254 0v177h-349v94l366 435h132v-453h111v-76h-111v-177h-149zM1254 566l-265 -313h265v313zM225 1156q0 33 -1 53.5t-4.5 32t-10.5 15.5t-18 4q-17 0 -35 -6.5t-33 -14.5l-19 29l208 87h60v-705h-147v505zM335 -49h-109l948 1405h109z" />
    <glyph glyph-name="onehalf" unicode="&#xbd;" horiz-adv-x="1554" 
d="M321 -49h-108l947 1405h109zM937 35q32 23 71.5 53.5t80.5 66.5t80 75.5t69 80.5t48.5 83t18.5 82q0 30 -12 55t-32 43.5t-47.5 28.5t-58.5 10q-60 0 -98.5 -29t-57.5 -84h-47q7 42 28 79.5t53.5 65.5t75 44.5t92.5 16.5q117 0 182.5 -53.5t65.5 -153.5q0 -36 -17 -74
t-45 -75.5t-63.5 -74t-73.5 -69.5t-74.5 -62.5t-66.5 -52.5h340v-91h-512v35zM225 1156q0 33 -1 53.5t-4.5 32t-10.5 15.5t-18 4q-17 0 -35 -6.5t-33 -14.5l-19 29l208 87h60v-705h-147v505z" />
    <glyph glyph-name="threequarters" unicode="&#xbe;" horiz-adv-x="1704" 
d="M236 1039q34 0 65 6.5t54.5 22t37.5 40t14 60.5q0 54 -26.5 79.5t-83.5 25.5q-45 0 -75 -24.5t-54 -61.5l-56 18q31 71 91 111t143 40q34 0 67.5 -8.5t60 -26.5t43 -45.5t16.5 -65.5q0 -44 -26 -85t-63 -67q63 -21 97.5 -64.5t34.5 -112.5q0 -66 -28.5 -113t-75 -77
t-104.5 -44.5t-116 -14.5q-14 0 -39 3t-49 10.5t-42 20.5t-18 33q0 23 18 31t37 8t39 -6.5t41 -14t44.5 -13.5t50.5 -6q26 0 49 9.5t40 26t26.5 38.5t9.5 48q0 45 -16.5 75t-46.5 48t-71 25t-89 7v64zM410 -49h-89l947 1405h90zM1348 0v177h-348v94l374 435h111v-453h112
v-76h-112v-177h-137zM1348 570l-265 -317h265v317z" />
    <glyph glyph-name="dn_danda" unicode="&#x964;" horiz-adv-x="435" 
d="M285 0l-135 -83v1200l135 83v-1200z" />
    <glyph glyph-name="dn_dbl_danda" unicode="&#x965;" horiz-adv-x="747" 
d="M285 0l-135 -83v1200l135 83v-1200zM597 0l-135 -83v1200l135 83v-1200z" />
    <glyph glyph-name="ori_chandra" unicode="&#xb01;" 
d="M-156 1151q-44 0 -87.5 19.5t-83 52.5t-75.5 75.5t-65 88.5l55 47q47 -56 88 -86t74 -43.5t57 -16t37 -2.5t37 2.5t57 16t74 43.5t88 86l55 -47q-29 -46 -65 -88.5t-75.5 -75.5t-83 -52.5t-87.5 -19.5zM-250 1517q0 19 7.5 36.5t20 30t29.5 20t37 7.5q19 0 36.5 -7.5
t30 -20t20 -30t7.5 -36.5q0 -39 -27.5 -66t-66.5 -27t-66.5 27t-27.5 66z" />
    <glyph glyph-name="ori_anuswara" unicode="&#xb02;" horiz-adv-x="401" 
d="M-9 921q0 45 17 84.5t47 69t70 46.5t86 17t86 -17t70 -46.5t47.5 -69t17.5 -84.5t-17.5 -84t-47.5 -68.5t-70 -46.5t-86 -17t-86 17t-70 46.5t-47 68.5t-17 84zM73 921q0 -27 10.5 -51.5t29.5 -43t44 -29t54 -10.5t54.5 10.5t44 29t29.5 43t11 51.5q0 28 -11 52.5
t-29.5 43t-44 29t-54.5 10.5t-54 -10.5t-44 -29t-29.5 -43t-10.5 -52.5z" />
    <glyph glyph-name="ori_visarga" unicode="&#xb03;" horiz-adv-x="707" 
d="M343 1003q-51 0 -85 -14.5t-54.5 -37t-29 -49.5t-8.5 -52q0 -49 48 -110.5t129 -125.5q81 64 129 125.5t48 110.5q0 25 -8.5 52t-29 49.5t-54.5 37t-85 14.5zM404 563q63 -56 102 -100t60.5 -80t29 -66.5t7.5 -58.5q0 -62 -20 -111.5t-55 -85t-82.5 -54.5t-102.5 -19
q-54 0 -101.5 19t-83 54.5t-55.5 85t-20 111.5q0 28 7.5 58.5t29 66.5t60.5 80t103 100q-64 55 -103 99t-60.5 80t-29 66.5t-7.5 58.5q0 62 20 112t55.5 85.5t83 54.5t101.5 19q55 0 102.5 -19t82.5 -54.5t55 -85.5t20 -112q0 -28 -7.5 -58.5t-29 -66.5t-60.5 -80t-102 -99z
M343 123q51 0 85 14.5t54.5 36.5t29 49t8.5 53q0 48 -48 109.5t-129 126.5q-81 -65 -129 -126.5t-48 -109.5q0 -26 8.5 -53t29 -49t54.5 -36.5t85 -14.5z" />
    <glyph glyph-name="ori_a" unicode="&#xb05;" horiz-adv-x="1237" 
d="M1029 573v544h104v-1117h-104v404q-29 -44 -62.5 -93t-74 -96t-89 -90t-106 -75.5t-126 -51.5t-149.5 -19q-52 0 -111.5 20t-110 61t-84 103.5t-33.5 146.5q0 78 30.5 128.5t80 82.5t113 50.5t129.5 33.5t129.5 31t113 43t80 69t30.5 110q0 65 -35 105t-96 40
q-38 0 -66.5 -15t-47.5 -41t-29 -60t-10 -73v-87h-83v88q0 37 -9 71t-26.5 60t-42 41.5t-54.5 15.5q-24 0 -46.5 -9.5t-40 -27t-27.5 -43t-10 -57.5q0 -27 6 -49.5t15 -41t19.5 -33t19.5 -24.5l-77 -61q-25 32 -45.5 89t-20.5 127q0 44 12.5 91t38 85.5t64.5 63.5t93 25
q40 0 70.5 -15t51.5 -37.5t33.5 -49t17.5 -50.5q11 27 27 54t38.5 49t54 35.5t74.5 13.5q62 0 103.5 -28.5t66 -70.5t35 -90.5t10.5 -89.5q0 -92 -30.5 -155t-80 -105.5t-113 -68.5t-130 -43.5t-130 -31.5t-113 -32t-80 -44.5t-30.5 -69.5q0 -48 23.5 -84.5t63 -61t91 -37
t106.5 -12.5q72 0 139.5 24.5t127.5 64t111.5 89.5t91.5 101t68 98.5t41 81.5z" />
    <glyph glyph-name="ori_aa" unicode="&#xb06;" horiz-adv-x="1497" 
d="M1289 1117h104v-1117h-104v1117zM1029 573v544h104v-1117h-104v404q-29 -44 -62.5 -93t-74 -96t-89 -90t-106 -75.5t-126 -51.5t-149.5 -19q-52 0 -111.5 20t-110 61t-84 103.5t-33.5 146.5q0 78 30.5 128.5t80 82.5t113 50.5t129.5 33.5t129.5 31t113 43t80 69t30.5 110
q0 65 -35 105t-96 40q-38 0 -66.5 -15t-47.5 -41t-29 -60t-10 -73v-87h-83v88q0 37 -9 71t-26.5 60t-42 41.5t-54.5 15.5q-24 0 -46.5 -9.5t-40 -27t-27.5 -43t-10 -57.5q0 -27 6 -49.5t15 -41t19.5 -33t19.5 -24.5l-77 -61q-25 32 -45.5 89t-20.5 127q0 44 12.5 91t38 85.5
t64.5 63.5t93 25q40 0 70.5 -15t51.5 -37.5t33.5 -49t17.5 -50.5q11 27 27 54t38.5 49t54 35.5t74.5 13.5q62 0 103.5 -28.5t66 -70.5t35 -90.5t10.5 -89.5q0 -92 -30.5 -155t-80 -105.5t-113 -68.5t-130 -43.5t-130 -31.5t-113 -32t-80 -44.5t-30.5 -69.5q0 -48 23.5 -84.5
t63 -61t91 -37t106.5 -12.5q72 0 139.5 24.5t127.5 64t111.5 89.5t91.5 101t68 98.5t41 81.5z" />
    <glyph glyph-name="ori_i" unicode="&#xb07;" horiz-adv-x="1441" 
d="M83 619q0 60 15.5 122t47 119.5t81 108t117 88t154.5 59.5t194 22q105 0 191 -22.5t154 -61.5t118 -93t83 -116.5t49 -132t16 -140.5q0 -46 -7.5 -98t-26 -106t-49 -108t-76.5 -104l193 -218l-95 -75l-217 339q45 25 81 67.5t61.5 92.5t39 103.5t13.5 100.5
q0 76 -36 153.5t-103.5 140.5t-166 103t-222.5 40t-221.5 -34t-165.5 -88.5t-104 -124t-36 -139.5q0 -78 38.5 -138.5t106.5 -108.5q25 57 69.5 91.5t98.5 34.5q47 0 86 -25.5t65 -69.5q27 44 66.5 69.5t85.5 25.5q40 0 75 -19.5t61 -53.5t41 -80t15 -98t-13.5 -100
t-38.5 -85t-61 -59t-80 -22q-50 0 -88.5 27t-63.5 71q-25 -44 -63 -71t-88 -27q-43 0 -77.5 21t-59.5 56t-39.5 81t-15.5 97q-94 70 -148 168t-54 217zM368 240q0 -69 31.5 -107.5t77.5 -38.5q23 0 43 10.5t35 29t23.5 44.5t9.5 57v5q0 34 -8.5 63t-23.5 50t-35.5 33
t-43.5 12t-43 -11t-34.5 -32t-23 -50t-8.5 -65zM671 240q0 -69 31.5 -107.5t77.5 -38.5q23 0 43 11t35 30.5t23.5 46t8.5 58.5q0 34 -8.5 63t-23.5 50t-35 33t-43 12t-42.5 -10.5t-34 -30t-23 -47.5t-9.5 -62v-8z" />
    <glyph glyph-name="ori_ii" unicode="&#xb08;" horiz-adv-x="1410" 
d="M662 1003q-40 0 -83.5 -4.5t-86.5 -14.5t-82.5 -26.5t-72 -40.5t-54.5 -56.5t-30 -73.5q50 22 103 22q31 0 63 -7.5t57.5 -24.5t41.5 -44.5t16 -67.5q0 -36 -14.5 -62t-37.5 -42.5t-53 -24.5t-60 -8q-54 0 -99 27t-71 75q-33 -53 -33 -115q0 -31 9 -56t24 -45t33 -34.5
t36 -24.5q24 63 70.5 102t104.5 39q46 0 85 -25.5t66 -69.5q26 44 65.5 69.5t86.5 25.5q40 0 75 -19.5t61 -53.5t41 -80t15 -98t-13.5 -100t-39 -85t-61 -59t-79.5 -22q-50 0 -88.5 27t-63.5 71q-25 -44 -63 -71t-88 -27q-43 0 -77.5 20.5t-59.5 55.5t-39.5 81t-15.5 96
q-81 46 -124 119t-43 159q0 64 22.5 119.5t61.5 96.5q-1 8 -1 16v16q0 92 39.5 163t107 119t158 73t191.5 25q105 0 191.5 -22.5t154.5 -61.5t118 -93t83 -116.5t49 -132t16 -140.5q0 -46 -7.5 -98t-26 -106t-49 -108t-76.5 -104l193 -218l-95 -75l-217 339q45 25 81 67.5
t61.5 92.5t39 103.5t13.5 100.5q0 76 -36 153.5t-104 140.5t-166 103t-223 40zM635 240q0 -69 31.5 -107.5t78.5 -38.5q23 0 43 11t35 30.5t23.5 46t8.5 58.5q0 34 -8.5 63t-23.5 50t-35 33t-43 12q-46 0 -77 -40.5t-33 -109.5v-8zM333 240q0 -69 31.5 -107.5t77.5 -38.5
q23 0 43 11t35 30.5t23.5 46t8.5 58.5v5q-1 33 -9.5 61t-23.5 48.5t-35 32t-42 11.5q-23 0 -43 -11t-34.5 -32t-23 -50t-8.5 -65zM368 612q35 0 58.5 15t23.5 41q0 21 -18 39.5t-64 18.5q-31 0 -59 -9t-51 -24q14 -36 42.5 -58.5t67.5 -22.5z" />
    <glyph glyph-name="ori_u" unicode="&#xb09;" horiz-adv-x="1441" 
d="M681 1138q105 0 191 -22.5t154 -61.5t118.5 -93t83.5 -116.5t49 -132t16 -140.5q0 -46 -8 -98t-26.5 -106t-49 -108t-75.5 -104l193 -218l-96 -75l-216 339q45 25 81 67.5t61.5 92.5t39 103.5t13.5 100.5q0 76 -36 153.5t-104 140.5t-166 103t-223 40q-123 0 -219 -34
t-162 -88.5t-100.5 -124t-34.5 -139.5q0 -69 30.5 -124t84.5 -100q20 88 79 153t144 94l41 -125q-41 -9 -75.5 -27.5t-60 -44.5t-39.5 -58t-14 -67q0 -42 17.5 -79t51.5 -65t84.5 -44t116.5 -16q60 0 106 18t77 45.5t46.5 59.5t15.5 61q0 33 -12.5 59t-33.5 43.5t-48.5 27
t-57.5 9.5h-10l-34 -50l-77 52l219 318l74 -54l-118 -174q43 -10 76.5 -33.5t57 -55t36 -69.5t12.5 -77q0 -69 -22.5 -127t-65 -99.5t-103 -65t-136.5 -23.5q-68 0 -126 19.5t-102.5 54t-74.5 81.5t-43 103q-92 70 -145 167t-53 215q0 60 16.5 122t49 119.5t82 108t116 88
t150 59.5t184.5 22z" />
    <glyph glyph-name="ori_uu" unicode="&#xb0a;" horiz-adv-x="1427" 
d="M1323 -141l-96 -75l-198 313q49 0 85.5 12.5t61 32t36.5 42.5t12 46q0 37 -17 64t-44 45t-60.5 27t-67.5 9v84q30 7 58 25t49.5 45t34.5 63t13 78q0 60 -34.5 119.5t-99.5 107t-159.5 77t-215.5 29.5q-123 0 -219 -34t-162 -88.5t-100.5 -124t-34.5 -139.5
q0 -69 30.5 -124t84.5 -100q20 88 79 153t144 94l41 -125q-41 -9 -75.5 -27.5t-60 -44.5t-39.5 -58t-14 -67q0 -42 17.5 -79t51.5 -65t84.5 -44t116.5 -16q60 0 106 18t77 45.5t46.5 59.5t15.5 61q0 33 -12.5 59t-33.5 43.5t-48.5 27t-57.5 9.5h-10l-34 -50l-77 52l219 318
l74 -54l-118 -174q43 -10 76.5 -33.5t57 -55t36 -69.5t12.5 -77q0 -69 -22.5 -127t-65 -99.5t-103 -65t-136.5 -23.5q-68 0 -126 19.5t-102.5 54t-74.5 81.5t-43 103q-92 70 -145 167t-53 215q0 60 16.5 122t49 119.5t82 108t116 88t150 59.5t184.5 22q154 0 266 -44
t184.5 -113.5t107 -155t34.5 -168.5q0 -33 -10 -68.5t-27 -68.5t-39.5 -60.5t-47.5 -44.5q34 -6 63 -23t50 -41t33 -55t12 -65q0 -28 -10.5 -56t-29 -53.5t-45 -48t-57.5 -39.5z" />
    <glyph glyph-name="ori_ri" unicode="&#xb0b;" horiz-adv-x="1388" 
d="M643 1138q154 0 265.5 -44t184 -113.5t107 -155t34.5 -168.5q0 -33 -10 -68.5t-27 -68.5t-39 -60.5t-47 -44.5q34 -6 63 -23t50 -41t33 -55t12 -65q0 -56 -39.5 -109.5t-103.5 -87.5l158 -175l-95 -75l-199 313q49 0 86 12.5t61.5 32t36.5 42.5t12 46q0 37 -17 64t-44 45
t-61 27t-68 9v84q30 7 58 25t49.5 45t34.5 63t13 78q0 60 -34 119.5t-99.5 107t-160 77t-214.5 29.5q-98 0 -185 -29t-152 -79.5t-102.5 -117.5t-37.5 -143q0 -77 38 -144t104 -118q15 44 42 81t63.5 63.5t80.5 41.5t93 15q61 0 115 -23.5t94 -63.5t63 -94.5t23 -115.5
q0 -62 -23 -116t-63 -94.5t-94 -63.5t-115 -23q-55 0 -104.5 19t-88 52t-64.5 78.5t-35 98.5q-48 35 -87.5 79t-67 95t-42.5 107.5t-15 117.5q0 106 43.5 199.5t119 163t178 109.5t219.5 40zM375 276q0 -34 16.5 -63.5t45 -51.5t67.5 -34.5t83 -12.5t82.5 12.5t67.5 34.5
t45.5 51.5t16.5 63.5q0 33 -16.5 62.5t-45.5 51.5t-67.5 35t-82.5 13t-83 -13t-67.5 -35t-45 -51.5t-16.5 -62.5z" />
    <glyph glyph-name="ori_li" unicode="&#xb0c;" horiz-adv-x="996" 
d="M457 287q0 47 16.5 88t46 72t71 48.5t91.5 17.5q51 0 90 -20t66 -52.5t40.5 -74.5t13.5 -87q0 -77 -34.5 -133.5t-92.5 -93.5t-132.5 -55t-153.5 -18q-65 0 -135 22.5t-128 66t-95.5 108t-37.5 148.5q0 76 26 127t68 85.5t96.5 56t110.5 38.5t110.5 34t96.5 42.5t68 63
t26 95.5q0 33 -16.5 58.5t-44 43t-64.5 26.5t-77 9q-28 0 -62.5 -4t-65 -16.5t-51 -35.5t-20.5 -60q0 -19 6 -36.5t15 -32.5t19 -27.5t19 -20.5l-77 -61q-10 14 -21 32t-20.5 40.5t-16 50.5t-6.5 62q0 51 20.5 95.5t57.5 77.5t89 52t114 19q76 0 130 -26t88.5 -66.5t51 -89
t16.5 -93.5q0 -80 -26 -134.5t-68.5 -92t-96.5 -61.5t-110.5 -42t-110.5 -34.5t-96.5 -39t-68.5 -54.5t-26 -81q0 -51 26.5 -90.5t71 -66t103.5 -40t124 -13.5h20t20 1q-36 32 -55 78t-19 94zM809 284q0 48 -34.5 81t-94.5 33q-30 0 -55.5 -9t-44 -25t-29.5 -39t-11 -50
t8.5 -49.5t23 -40.5t33.5 -32t40 -23q34 9 64 22t52.5 32t35 43.5t12.5 56.5z" />
    <glyph glyph-name="ori_e" unicode="&#xb0f;" horiz-adv-x="1078" 
d="M974 1117v-1117h-106q-151 45 -286 123.5t-240.5 193.5t-173.5 266.5t-85 340.5l83 44q13 -182 71.5 -321t151.5 -240t215.5 -168t265.5 -104v831q-54 -17 -101 -42t-85 -55t-66 -61.5t-44 -60.5q22 -4 41 -13.5t33 -24t22 -32t8 -36.5q0 -24 -8.5 -44.5t-23.5 -35.5
t-35 -24t-43 -9t-44 8t-37 23t-25 36.5t-9 47.5q0 65 30.5 125t78.5 113t107.5 96.5t117.5 74.5t108 48t79 17z" />
    <glyph glyph-name="ori_ai" unicode="&#xb10;" horiz-adv-x="1468" 
d="M1186 1117q29 29 52 61q20 27 36 59t16 64q0 33 -13.5 57.5t-38 41t-58 25t-73.5 8.5q-47 0 -91 -12t-87 -30.5t-85.5 -40t-87.5 -40t-92 -30.5t-99 -12q-51 0 -93.5 13.5t-77.5 38t-63.5 58.5t-50.5 75l59 49q42 -76 96 -113.5t128 -37.5q48 0 91.5 16t85 40t83.5 52.5
t86.5 52.5t93 40t104.5 16q51 0 97.5 -17t82.5 -49.5t57 -79.5t21 -108q0 -40 -12 -75.5t-26 -62.5q-17 -32 -37 -59v-1117h-104v463q-16 -26 -34 -48.5t-44 -22.5t-46 18.5t-32 39.5v-450h-106q-151 45 -286.5 123.5t-241 193.5t-173.5 266.5t-85 340.5l84 44
q13 -182 71 -321t151 -240t216 -168t266 -104v831q-54 -17 -101.5 -42t-85.5 -55t-66 -61.5t-44 -60.5q22 -4 41 -13.5t33 -24t22 -32t8 -36.5q0 -24 -8.5 -44.5t-23.5 -35.5t-35 -24t-43 -9t-43.5 8t-36.5 23t-25 36.5t-9 47.5q0 65 30.5 125t78.5 113t107.5 96.5t117 74.5
t107.5 48t80 17v-576q14 -13 34.5 -24t43.5 -11q22 0 39.5 9.5t38.5 30.5v571z" />
    <glyph glyph-name="ori_o" unicode="&#xb13;" horiz-adv-x="1127" 
d="M1023 324q0 -83 -34.5 -147t-91 -108t-129 -67t-147.5 -23q-86 0 -159.5 23t-133 64.5t-105.5 97.5t-77 122t-47 139t-16 148q0 171 53.5 292.5t153.5 208.5l56 -71q-57 -45 -92.5 -95t-55 -104.5t-26 -112.5t-6.5 -118q0 -99 31.5 -183t91 -145.5t144 -96t189.5 -34.5
q47 0 102.5 10.5t103.5 35t80 64.5t32 100q0 49 -21 81t-55.5 50t-79 25t-90.5 7h-142v125h51q59 0 110 15t88.5 42.5t59 66.5t21.5 87q0 45 -20 78.5t-51 56t-68.5 34t-72.5 11.5q-30 0 -62.5 -7.5t-59.5 -22.5t-44.5 -38.5t-17.5 -55.5q0 -25 7 -45.5t19 -37.5l-60 -43
q-9 11 -18 28.5t-16 37.5t-11.5 40t-4.5 37q0 49 17.5 93t52 77t86 52.5t118.5 19.5q69 0 122.5 -23.5t90.5 -64.5t56.5 -95.5t19.5 -115.5q0 -41 -9.5 -82.5t-28 -77.5t-47 -63.5t-66.5 -42.5q103 -26 155 -84.5t54 -164.5z" />
    <glyph glyph-name="ori_au" unicode="&#xb14;" horiz-adv-x="1462" 
d="M1179 1117q29 29 52 61q20 27 36 59t16 64q0 33 -13.5 57.5t-38 41t-58 25t-73.5 8.5q-47 0 -91 -12t-87 -30.5t-85.5 -40t-87.5 -40t-92 -30.5t-99 -12q-51 0 -93.5 13.5t-77.5 38t-63.5 58.5t-50.5 75l59 49q42 -76 96 -113.5t128 -37.5q48 0 91.5 16t85 40t83.5 52.5
t86.5 52.5t93 40t104.5 16q51 0 97.5 -17t82.5 -49.5t57 -79.5t21 -108q0 -40 -12 -75.5t-26 -62.5q-17 -32 -37 -59v-1117h-104v626q-18 -11 -49 -19t-63 -8q-27 0 -49 5t-40.5 12.5t-35.5 16t-34 14.5q-18 -25 -41.5 -44t-52.5 -30q103 -26 156 -84.5t53 -164.5
q0 -83 -34.5 -147t-91 -108t-129 -67t-147.5 -23q-86 0 -159.5 23t-133 64.5t-105.5 97.5t-77 122t-47 139t-16 148q0 171 53.5 292.5t153.5 208.5l56 -71q-57 -45 -92.5 -95t-55 -104.5t-26 -112.5t-6.5 -118q0 -99 31.5 -183t91 -145.5t144 -96t189.5 -34.5
q47 0 102.5 10.5t103.5 35t80 64.5t32 100q0 49 -21 81t-55.5 50t-79 25t-90.5 7h-142v125h51q59 0 110 15t88.5 42.5t59 66.5t21.5 87q0 45 -20 78.5t-51 56t-68.5 34t-72.5 11.5q-30 0 -62.5 -7.5t-59.5 -22.5t-44.5 -38.5t-17.5 -55.5q0 -25 7 -45.5t19 -37.5l-60 -43
q-9 11 -18 28.5t-16 37.5t-11.5 40t-4.5 37q0 49 17.5 93t52 77t86 52.5t118.5 19.5q69 0 122.5 -23.5t90.5 -64.5t56.5 -95.5t19.5 -115.5q0 -32 -5.5 -63.5t-16.5 -61.5q34 -11 63 -21.5t65 -10.5q25 0 55 7.5t53 22.5v405z" />
    <glyph glyph-name="ori_ka" unicode="&#xb15;" horiz-adv-x="1306" 
d="M1046 437q39 44 61 96t22 110q0 74 -36 139.5t-99.5 114.5t-152 77.5t-193.5 28.5t-193.5 -26t-152.5 -72t-100 -109t-36 -138q0 -70 35 -124.5t86 -83.5q5 45 20 83t39.5 65.5t57.5 43t74 15.5q51 0 89 -23t63 -63q24 40 62 63t89 23q48 0 85.5 -20.5t63.5 -55
t39.5 -81.5t13.5 -99v-401h-104v373q0 28 -4 55t-15 48t-30 33.5t-49 12.5q-28 0 -47 -13t-30.5 -34.5t-16.5 -49.5t-5 -59v-366h-104v212q-16 -17 -42.5 -31.5t-58.5 -14.5t-59 11t-49 30t-39 45t-27 56q-42 22 -81.5 57t-70.5 80t-49.5 99t-18.5 116q0 102 41 189.5
t115 151.5t177 100.5t227 36.5t227 -39t177 -105.5t115 -156.5t41 -192q0 -77 -23.5 -147t-65.5 -129zM368 392q0 -57 31.5 -89.5t77.5 -32.5q47 0 79 33.5t32 88.5v5q-1 25 -8 47.5t-20.5 39.5t-34 27.5t-47.5 10.5q-51 0 -80.5 -36.5t-29.5 -93.5z" />
    <glyph glyph-name="ori_kha" unicode="&#xb16;" horiz-adv-x="1290" 
d="M1186 1117v-1117h-104v861q-41 -100 -100.5 -152t-139.5 -52q-46 0 -84.5 18.5t-66.5 49.5t-44 71t-16 83q0 30 8 62t21 61q-7 0 -13.5 0.5t-14.5 0.5q-100 0 -185 -28.5t-147.5 -77.5t-98 -114.5t-35.5 -139.5q0 -80 39 -147.5t105 -115.5q16 42 43.5 77.5t63.5 61
t79 40t91 14.5q61 0 115 -23.5t94 -63.5t63 -94.5t23 -115.5q0 -62 -23 -116t-63 -94.5t-94 -63.5t-115 -23q-58 0 -109.5 21t-91 57.5t-64 86.5t-29.5 107q-48 33 -87 76t-66 93.5t-42 107t-15 117.5q0 102 41.5 192t114.5 156.5t172.5 105.5t215.5 39q35 0 73.5 -5.5
t71.5 -15.5q-27 -35 -44 -79t-17 -85q0 -33 9 -62.5t28.5 -51t49.5 -34.5t71 -13q62 0 101.5 33.5t63 83t34 106t14.5 102.5h104zM375 276q0 -34 16.5 -63.5t45 -51.5t67.5 -34.5t83 -12.5t82.5 12.5t67.5 34.5t45.5 51.5t16.5 63.5q0 33 -16.5 62.5t-45.5 51.5t-67.5 35
t-82.5 13t-83 -13t-67.5 -35t-45 -51.5t-16.5 -62.5z" />
    <glyph glyph-name="ori_ga" unicode="&#xb17;" horiz-adv-x="1290" 
d="M1082 1117h104v-1117h-104v739q-20 57 -61.5 105.5t-100.5 83.5t-132 55t-156 20q-100 0 -185 -28.5t-147.5 -77.5t-98 -114.5t-35.5 -139.5q0 -80 39 -147.5t105 -115.5q16 42 43.5 77.5t63.5 61t79 40t91 14.5q61 0 115 -23.5t94 -63.5t63 -94.5t23 -115.5
q0 -62 -23 -116t-63 -94.5t-94 -63.5t-115 -23q-58 0 -109.5 21t-91 57.5t-64 86.5t-29.5 107q-48 33 -87 76t-66 93.5t-42 107t-15 117.5q0 102 41.5 192t114.5 156.5t172.5 105.5t215.5 39q73 0 139.5 -15.5t124.5 -44t106.5 -69t84.5 -89.5v197zM375 276
q0 -34 16.5 -63.5t45 -51.5t67.5 -34.5t83 -12.5t82.5 12.5t67.5 34.5t45.5 51.5t16.5 63.5q0 33 -16.5 62.5t-45.5 51.5t-67.5 35t-82.5 13t-83 -13t-67.5 -35t-45 -51.5t-16.5 -62.5z" />
    <glyph glyph-name="ori_gha" unicode="&#xb18;" horiz-adv-x="1290" 
d="M1082 1117h104v-1117h-104v208q-19 -52 -46.5 -94t-61 -72t-72 -46.5t-78.5 -16.5q-70 0 -115 35.5t-65 92.5q-11 -24 -26.5 -47t-36.5 -41t-48 -29t-60 -11q-49 0 -85.5 22t-60.5 57.5t-35.5 80t-11.5 89.5v15.5t1 15.5q-45 33 -82 75.5t-62.5 92t-39.5 104.5t-14 114
q0 102 41.5 192t114.5 156.5t172.5 105.5t215.5 39q73 0 139.5 -15.5t124.5 -44t106.5 -69t84.5 -89.5v197zM681 374l63 -53q-18 -23 -25.5 -45.5t-7.5 -42.5q0 -30 10.5 -52.5t28 -37.5t39 -22t43.5 -7q46 0 87 22.5t73 57.5t55 78.5t35 85.5v381q-20 57 -61.5 105.5
t-100.5 83.5t-132 55t-156 20q-100 0 -185 -28.5t-147.5 -77.5t-98 -114.5t-35.5 -139.5q0 -79 39 -147t105 -116q26 61 69 105.5t86 74.5l56 -68q-33 -21 -61.5 -47t-50 -56t-34 -64.5t-12.5 -73.5q0 -65 31.5 -101t82.5 -36q20 0 41.5 9t41.5 24t38 35t30 42q2 35 14 73.5
t39 76.5z" />
    <glyph glyph-name="ori_nga" unicode="&#xb19;" horiz-adv-x="1366" 
d="M924 687q0 55 25.5 97.5t67.5 63.5q-62 70 -161.5 112.5t-223.5 42.5q-100 0 -185 -28.5t-147.5 -77.5t-98 -114.5t-35.5 -139.5q0 -71 31 -132.5t85 -109.5q21 85 80.5 148t141.5 91l41 -125q-41 -9 -75.5 -27.5t-60 -44.5t-39.5 -58t-14 -67q0 -42 17.5 -79t51.5 -65
t84.5 -44t116.5 -16q60 0 106 18t77 45.5t47 59.5t16 61q0 33 -12.5 59t-34 43.5t-49 27t-57.5 9.5h-12l-32 -50l-77 52l199 297l73 -54l-100 -152q43 -10 77.5 -33.5t58.5 -55.5t36.5 -70t12.5 -77q0 -69 -22.5 -127t-65 -99.5t-103 -65t-136.5 -23.5q-72 0 -132 21.5
t-105.5 59.5t-75 90t-38.5 112q-90 68 -142 167t-52 216q0 102 41.5 192t114.5 156.5t172.5 105.5t215.5 39q83 0 158 -20t138 -56.5t112.5 -87.5t82.5 -112q30 -5 56.5 -19.5t46 -37.5t30.5 -53t11 -65q0 -39 -13.5 -71t-36.5 -55.5t-54 -36.5t-66 -13t-66 13t-53.5 36.5
t-35.5 55.5t-13 71zM1007 687q0 -43 24.5 -68t60.5 -25t61 25t25 68q0 44 -25 69t-61 25t-60.5 -25t-24.5 -69z" />
    <glyph glyph-name="ori_ca" unicode="&#xb1a;" horiz-adv-x="1234" 
d="M973 437q39 44 61.5 96t22.5 110q0 74 -35 139.5t-95.5 114.5t-141.5 77.5t-173 28.5t-173.5 -28.5t-142 -77.5t-95.5 -114.5t-35 -139.5q0 -80 39 -147.5t105 -115.5q16 42 43.5 77.5t63.5 61t79 40t91 14.5q61 0 115 -23.5t94 -63.5t63 -94.5t23 -115.5q0 -62 -23 -116
t-63 -94.5t-94 -63.5t-115 -23q-58 0 -109.5 21t-91 57.5t-64 86.5t-29.5 107q-48 33 -87 76t-66 93.5t-42 107t-15 117.5q0 102 41 192t112 156.5t166.5 105.5t203.5 39t203.5 -39t167 -105.5t112.5 -156.5t41 -192q0 -77 -23.5 -147t-65.5 -129zM375 276q0 -34 16.5 -63.5
t45 -51.5t67.5 -34.5t83 -12.5t82.5 12.5t67.5 34.5t45.5 51.5t16.5 63.5q0 33 -16.5 62.5t-45.5 51.5t-67.5 35t-82.5 13t-83 -13t-67.5 -35t-45 -51.5t-16.5 -62.5z" />
    <glyph glyph-name="ori_cha" unicode="&#xb1b;" horiz-adv-x="1146" 
d="M864 573q44 35 69.5 79.5t25.5 95.5q0 52 -27 98.5t-73.5 81.5t-109.5 55t-134 20q-72 0 -138 -20t-116.5 -55t-80.5 -81.5t-30 -98.5q0 -29 11 -55.5t28.5 -48.5t40 -38.5t45.5 -25.5q31 48 79.5 76t105.5 28q47 0 88.5 -20.5t72 -55t48.5 -80t18 -96.5q0 -23 -4 -45.5
t-12 -43.5q15 3 33 3q53 0 90 -15.5t60.5 -40.5t34.5 -57t11 -65q0 -38 -11 -72t-33.5 -60t-57.5 -41.5t-83 -15.5q-47 0 -84 10t-68 27.5t-56.5 40t-48.5 46.5q-23 -24 -48 -46.5t-55 -40t-67.5 -27.5t-83.5 -10q-48 0 -83 15.5t-57.5 41.5t-33.5 60t-11 72q0 33 10.5 65
t33.5 58q-31 -1 -62 -4t-54 -5l13 85q21 -2 42 -2h42h12q50 0 97.5 -3t95.5 -19q-16 41 -16 88v16.5t2 17.5q-37 20 -68 49t-53.5 65.5t-35 79t-12.5 89.5q0 81 30.5 152t88 124t141 83.5t189.5 30.5q99 0 178 -30.5t134.5 -83.5t85 -124t29.5 -152q0 -75 -28.5 -142
t-80.5 -118zM416 419q0 -37 11 -66t30.5 -49t46 -30.5t56.5 -10.5t56 12.5t45.5 33.5t31 49.5t11.5 60.5q0 31 -11.5 59t-31 49t-45.5 33.5t-56 12.5t-56.5 -12t-46 -32.5t-30.5 -48.5t-11 -61zM308 263q-15 0 -33.5 -3t-34.5 -11t-27 -22t-11 -35q0 -13 5.5 -26.5t18 -25
t33.5 -19t52 -7.5q52 0 96 17.5t85 43.5q-36 37 -79.5 62.5t-104.5 25.5zM811 114q33 0 54 7t32.5 17.5t15.5 23.5t4 26q0 21 -11 35.5t-27 23t-34.5 12.5t-33.5 4q-61 0 -103.5 -24.5t-78.5 -60.5q46 -28 91.5 -46t90.5 -18z" />
    <glyph glyph-name="ori_ja" unicode="&#xb1c;" horiz-adv-x="1282" 
d="M960 0h-104v545l-165 -119q27 -33 41.5 -81t14.5 -93q0 -42 -13.5 -90t-44 -88.5t-81 -67.5t-123.5 -27q-77 0 -130 31t-85 79.5t-46 107t-14 113.5v13q-60 65 -93.5 146.5t-33.5 175.5q0 102 41 192t115 156.5t177 105.5t227 39t227 -39t177 -105.5t115 -156.5t41 -192
q0 -77 -23.5 -147t-65.5 -129l-68 68q39 44 61 96t22 110q0 74 -36 139.5t-99.5 114.5t-152 77.5t-193.5 28.5t-193.5 -28.5t-152.5 -77.5t-100 -114.5t-36 -139.5q0 -55 18.5 -104.5t53.5 -91.5q29 69 82 119.5t122 73.5l41 -125q-41 -9 -76 -27.5t-60.5 -44.5t-39.5 -60
t-14 -74q0 -36 11.5 -70.5t35.5 -62.5t60 -45t85 -17q46 0 79.5 13.5t55.5 36t33 50.5t11 57q0 58 -32.5 103.5t-95.5 64.5l424 283v-722z" />
    <glyph glyph-name="ori_jha" unicode="&#xb1d;" horiz-adv-x="1180" 
d="M1061 0l-68 -120l-232 156q-37 -27 -81 -42t-93 -15q-58 0 -109.5 21t-91 57.5t-64 86.5t-29.5 107q-48 33 -87 76t-66 93.5t-42 107t-15 117.5q0 102 35.5 185t97.5 142t145 91t179 32q63 0 125.5 -16.5t105.5 -50.5q-21 -19 -39 -48.5t-18 -65.5q0 -25 8 -49
t25.5 -42.5t45.5 -30t67 -11.5q34 0 59 9.5t41.5 25t24.5 35t8 39.5q0 25 -11 44t-26.5 33t-33.5 23t-32 13l77 106q52 -36 80.5 -92.5t28.5 -131.5q0 -29 -8.5 -69.5t-32 -78t-66.5 -64t-112 -26.5q-49 0 -89.5 15.5t-70 42t-46 62.5t-16.5 77q0 32 6 56.5t13 35.5
q-40 24 -114 24q-78 0 -146 -21.5t-119 -62.5t-80 -100t-29 -133q0 -80 39 -147.5t105 -115.5q16 42 43.5 77.5t63.5 61t79 40t91 14.5q61 0 115 -23.5t94 -63.5t63 -94.5t23 -115.5q0 -48 -13.5 -89.5t-37.5 -77.5zM375 276q0 -34 16.5 -63.5t45 -51.5t67.5 -34.5t83 -12.5
t82.5 12.5t67.5 34.5t45.5 51.5t16.5 63.5q0 33 -16.5 62.5t-45.5 51.5t-67.5 35t-82.5 13t-83 -13t-67.5 -35t-45 -51.5t-16.5 -62.5z" />
    <glyph glyph-name="ori_nya" unicode="&#xb1e;" horiz-adv-x="1164" 
d="M166 911q0 -71 32 -125.5t87 -91.5t128.5 -56t157.5 -19q65 0 136.5 12.5t131.5 40t99 72t39 108.5q0 29 -10.5 56.5t-30.5 48.5t-50 33.5t-69 12.5q-23 0 -46.5 -8t-43 -24t-31.5 -40.5t-12 -57.5v-92h-83v120q0 46 -32 74t-80 28q-31 0 -52.5 -8.5t-35 -21t-19.5 -28
t-6 -29.5q0 -33 14 -59.5t42 -51.5l-74 -56q-27 32 -46 76t-19 103q0 36 13.5 73.5t39 68t63 49.5t85.5 19q58 0 96.5 -29.5t61.5 -82.5q31 59 78.5 85.5t113.5 26.5q49 0 88.5 -22t68 -60t44 -88.5t15.5 -106.5q0 -83 -31.5 -146.5t-85.5 -110.5q55 -35 86 -100.5
t31 -146.5q0 -96 -42 -167t-111 -118t-156 -70t-177 -23q-95 0 -183.5 25.5t-156.5 78t-109.5 132t-41.5 187.5q0 68 26 132.5t63 112.5q-42 50 -65.5 114.5t-23.5 145.5q0 68 24.5 130.5t58.5 105.5l73 -68q-11 -11 -23.5 -26t-23.5 -35t-18.5 -46t-7.5 -57zM166 407
q0 -71 32 -126t87 -92t128.5 -56t157.5 -19q65 0 136.5 12.5t131.5 40.5t99 72.5t39 107.5q0 29 -10.5 56.5t-30.5 48.5t-50 33.5t-69 12.5q-23 0 -46.5 -7.5t-43 -23.5t-31.5 -40.5t-12 -58.5v-91h-83v119q0 23 -10 40t-26 27.5t-36.5 15.5t-41.5 5q-54 0 -82.5 -22.5
t-28.5 -49.5q0 -34 14 -60t42 -51l-74 -57q-27 33 -46 76.5t-19 102.5q0 60 33 111q-23 9 -43 20.5t-39 24.5q-12 -11 -25.5 -27.5t-25.5 -38.5t-19.5 -48.5t-7.5 -57.5z" />
    <glyph glyph-name="ori_tta" unicode="&#xb1f;" horiz-adv-x="1249" 
d="M1041 1117h104v-460h-104q0 75 -32.5 138t-90 109.5t-136 72.5t-170.5 26t-173.5 -28.5t-142 -77.5t-95.5 -114.5t-35 -139.5q0 -80 39 -147.5t105 -115.5q16 42 43.5 77.5t63.5 61t79 40t91 14.5q61 0 115 -23.5t94 -63.5t63 -94.5t23 -115.5q0 -62 -23 -116t-63 -94.5
t-94 -63.5t-115 -23q-58 0 -109.5 21t-91 57.5t-64 86.5t-29.5 107q-48 33 -87 76t-66 93.5t-42 107t-15 117.5q0 102 41 192t112 156.5t166.5 105.5t203.5 39q69 0 133 -15t119.5 -43.5t102 -68.5t80.5 -90v196zM375 276q0 -34 16.5 -63.5t45 -51.5t67.5 -34.5t83 -12.5
t82.5 12.5t67.5 34.5t45.5 51.5t16.5 63.5q0 33 -16.5 62.5t-45.5 51.5t-67.5 35t-82.5 13t-83 -13t-67.5 -35t-45 -51.5t-16.5 -62.5z" />
    <glyph glyph-name="ori_ttha" unicode="&#xb20;" horiz-adv-x="1327" 
d="M83 558q0 120 45.5 225.5t123.5 184.5t181.5 124.5t219.5 45.5t219.5 -46t181.5 -125t123.5 -185t45.5 -226t-45.5 -225t-123.5 -183t-181.5 -123.5t-219.5 -45.5t-219.5 45.5t-181.5 124.5t-123.5 184t-45.5 225zM166 558q0 -92 38.5 -173t104.5 -141t154.5 -95
t189.5 -35q100 0 189 35t155 95t104.5 141t38.5 173t-38.5 173t-104.5 141.5t-155 95.5t-189 35q-101 0 -189.5 -35t-154.5 -95.5t-104.5 -141.5t-38.5 -173z" />
    <glyph glyph-name="ori_dda" unicode="&#xb21;" horiz-adv-x="1276" 
d="M1015 437q39 44 61 96t22 110q0 74 -35.5 139.5t-97.5 114.5t-147.5 77.5t-185.5 28.5t-185 -28.5t-147.5 -77.5t-98 -114.5t-35.5 -139.5q0 -71 31 -132.5t85 -109.5q21 85 80.5 148t141.5 91l41 -125q-41 -9 -75.5 -27.5t-60 -44.5t-39.5 -58t-14 -67q0 -42 17.5 -79
t51.5 -65t84.5 -44t116.5 -16q60 0 106 18t77 45.5t47 59.5t16 61q0 33 -12.5 59t-34 43.5t-49 27t-57.5 9.5h-12l-32 -50l-77 52l199 297l73 -54l-100 -152q43 -10 77.5 -33.5t58.5 -55.5t36.5 -70t12.5 -77q0 -69 -22.5 -127t-65 -99.5t-103 -65t-136.5 -23.5
q-72 0 -132 21.5t-105.5 59.5t-75 90t-38.5 112q-90 68 -142 167t-52 216q0 102 41.5 192t114.5 156.5t172.5 105.5t215.5 39t216 -39t173 -105.5t114.5 -156.5t41.5 -192q0 -77 -23.5 -147t-65.5 -129z" />
    <glyph glyph-name="ori_ddha" unicode="&#xb22;" horiz-adv-x="1276" 
d="M1015 437q39 44 61 96t22 110q0 74 -35.5 139.5t-97.5 114.5t-147.5 77.5t-185.5 28.5t-185 -28.5t-147.5 -77.5t-98 -114.5t-35.5 -139.5q0 -75 33.5 -138.5t93.5 -112.5q15 75 59 135.5t108 95.5l54 -93q-32 -13 -59 -34.5t-46 -48.5t-29.5 -59.5t-10.5 -68.5
q0 -48 20.5 -90.5t54 -75t76.5 -52t89 -19.5q-46 32 -70.5 79.5t-24.5 101.5q0 34 11.5 70t35.5 65t61 47.5t88 18.5q48 0 84 -20.5t61 -52.5t37.5 -70.5t12.5 -75.5q0 -59 -24.5 -108t-65.5 -84t-94 -54.5t-111 -19.5q-63 0 -116.5 20.5t-94.5 57.5t-69 86.5t-38 108.5
q-48 33 -86.5 76t-65.5 93t-42 106.5t-15 117.5q0 102 41.5 192t114.5 156.5t172.5 105.5t215.5 39t216 -39t173 -105.5t114.5 -156.5t41.5 -192q0 -77 -23.5 -147t-65.5 -129zM597 227q0 -24 9 -44.5t24 -35.5t35.5 -24t43.5 -9q24 0 44.5 9t35.5 24t24 35.5t9 44.5
q0 23 -9 43.5t-24 35.5t-35.5 24t-44.5 9q-23 0 -43.5 -9t-35.5 -24t-24 -35.5t-9 -43.5z" />
    <glyph glyph-name="ori_nna" unicode="&#xb23;" horiz-adv-x="1217" 
d="M473 792q48 0 89.5 -9t73.5 -21.5t55 -25.5t35 -22l-75 -107q-14 10 -35.5 19t-46 16t-50 11t-47.5 4q-68 0 -124.5 -16.5t-97 -49t-62.5 -80.5t-22 -111q0 -58 25.5 -105.5t69.5 -83.5q19 67 55.5 116.5t82.5 82t97 48.5t100 16q57 0 108.5 -17t91.5 -48t63.5 -74.5
t23.5 -96.5q0 -78 -33 -128t-84 -79t-112 -40.5t-117 -11.5q-97 0 -180 29.5t-144 84t-95.5 132.5t-34.5 175q0 71 23 134.5t64.5 114t97.5 85.5t122 49q-17 29 -27 62t-10 62q0 55 19 98t54 72.5t84 45t108 15.5q103 0 202 -68.5t189 -215.5v263h104v-1117h-104v682
q-37 67 -77.5 125.5t-89 102t-108.5 68.5t-136 25q-75 0 -118.5 -28t-43.5 -82q0 -24 10 -51t27 -50zM558 114q38 0 80.5 8t78.5 23.5t59.5 38t23.5 52.5q0 26 -18 45.5t-47 32t-65.5 19t-73.5 6.5q-50 0 -92.5 -13.5t-76.5 -37.5t-57.5 -56.5t-33.5 -69.5
q49 -23 105.5 -35.5t116.5 -12.5z" />
    <glyph glyph-name="ori_ta" unicode="&#xb24;" horiz-adv-x="1276" 
d="M1015 437q39 44 61 96t22 110q0 74 -35.5 139.5t-97.5 114.5t-147.5 77.5t-185.5 28.5t-185 -28.5t-147.5 -77.5t-98 -114.5t-35.5 -139.5q0 -75 33.5 -138.5t93.5 -112.5q15 75 59 135.5t108 95.5l54 -93q-32 -13 -59 -34.5t-46 -48.5t-29.5 -59.5t-10.5 -68.5
q0 -48 20.5 -86t53.5 -64.5t74.5 -40.5t83.5 -14q40 0 79.5 12.5t71 36t50.5 57.5t19 77q0 21 -7 42.5t-21 39.5t-35.5 31t-50.5 16q15 -13 23 -27.5t8 -34.5q0 -32 -22 -54t-54 -22q-37 0 -61.5 23.5t-24.5 64.5q0 28 11.5 50t30.5 37.5t44.5 23.5t53.5 8q46 0 81 -20.5
t59 -53t36 -73.5t12 -82q0 -64 -22.5 -117t-62.5 -90.5t-95 -58.5t-120 -21q-63 0 -116 20.5t-93.5 57.5t-67 86.5t-36.5 108.5q-48 33 -86.5 76t-65.5 93t-41.5 106.5t-14.5 117.5q0 102 41.5 192t114.5 156.5t172.5 105.5t215.5 39t216 -39t173 -105.5t114.5 -156.5
t41.5 -192q0 -77 -23.5 -147t-65.5 -129z" />
    <glyph glyph-name="ori_tha" unicode="&#xb25;" horiz-adv-x="1217" 
d="M543 1138q85 0 144 -30.5t96 -75.5t53.5 -96.5t16.5 -92.5q0 -91 -29.5 -150.5t-77.5 -97.5t-110 -59t-126 -35t-126 -25t-110 -29t-77.5 -47.5t-29.5 -80.5t23.5 -89.5t63 -64t91 -38.5t106.5 -13q73 0 139 24.5t123.5 64t106 89.5t86.5 101t64 98.5t39 81.5v544h104
v-1117h-104v404q-25 -41 -55.5 -88t-68.5 -94t-85 -91t-103.5 -78t-124.5 -54t-149 -20q-52 0 -111.5 20t-110.5 61t-84.5 103.5t-33.5 146.5q0 81 29.5 133t78 85.5t110 52.5t126 33t126 27.5t110 36t78 58t29.5 94.5q0 42 -19 74.5t-50.5 54.5t-72.5 33t-85 11
q-41 0 -83.5 -10t-76.5 -29t-55.5 -47t-21.5 -64q0 -23 5.5 -43t14.5 -37t19.5 -31t19.5 -24l-77 -61q-24 32 -44 85.5t-20 122.5q0 49 22.5 97.5t64 87.5t100.5 63.5t132 24.5z" />
    <glyph glyph-name="ori_da" unicode="&#xb26;" horiz-adv-x="1165" 
d="M942 437q39 44 61 96t22 110q0 74 -30 139.5t-84.5 114.5t-130.5 77.5t-168 28.5t-173.5 -26t-142 -72.5t-95.5 -109.5t-35 -138q0 -36 10 -67t27 -56t40 -43t50 -27q27 64 82.5 107.5t128.5 68.5l41 -125q-41 -9 -75.5 -23.5t-60 -34.5t-39.5 -46t-14 -58
q0 -42 16.5 -69.5t42 -44.5t57.5 -24t62 -7q49 0 90 22t71.5 56t51 76t29.5 81l67 35v-478h-104v203q-6 -11 -20.5 -31.5t-39.5 -41t-60.5 -35.5t-83.5 -15q-54 0 -101 20.5t-82 56t-56 83t-24 101.5q-86 40 -137.5 123.5t-51.5 203.5q0 97 41 183t112 149.5t166.5 100.5
t203.5 37t199 -39t156 -105.5t101.5 -156.5t36.5 -192q0 -77 -23.5 -147t-65.5 -129z" />
    <glyph glyph-name="ori_dha" unicode="&#xb27;" horiz-adv-x="1179" 
d="M696 567l-69 -57l-32 34q-58 30 -96 35t-62 5q-33 0 -79.5 -9t-89 -32t-72.5 -62.5t-30 -99.5q0 -57 28 -105.5t75 -84.5t107.5 -56.5t126.5 -20.5q68 0 126.5 9.5t114 30t110.5 52.5t117 76v835h104v-1117h-104v179q-35 -30 -82.5 -65t-106.5 -65t-129 -50t-150 -20
q-90 0 -167 29.5t-133 82.5t-88 127.5t-32 163.5q0 80 30 143t76.5 106.5t103.5 66t111 22.5h14t16 -1l-301 324l75 74z" />
    <glyph glyph-name="ori_na" unicode="&#xb28;" horiz-adv-x="1171" 
d="M773 657h76v-657h-104v522q-88 0 -158.5 -21.5t-119.5 -62.5t-75 -100.5t-26 -135.5q0 -36 5 -77t12 -78l-120 -47v58q0 126 28 228q-44 23 -82 59.5t-66 83t-44 101.5t-16 115q0 102 41 192t112 156.5t166.5 105.5t203.5 39t200.5 -39t160 -105.5t105.5 -156.5t38 -192
q0 -77 -24 -147t-66 -129l-67 68q39 44 61 96t22 110q0 74 -32 139.5t-88.5 114.5t-134 77.5t-169.5 28.5t-173.5 -28.5t-142 -77.5t-95.5 -114.5t-35 -139.5q0 -44 14.5 -81.5t38 -68.5t54 -53.5t63.5 -35.5q62 122 172 187.5t265 65.5z" />
    <glyph glyph-name="ori_pa" unicode="&#xb2a;" horiz-adv-x="1180" 
d="M83 768q0 91 32 160.5t88.5 116t133.5 70t167 23.5q80 0 150 -20t129 -50t106.5 -65t82.5 -65v179h104v-1117h-104v225q-24 -38 -65 -81t-93 -80t-112.5 -61t-124.5 -24q-66 0 -123 19.5t-99 57t-66 93t-24 127.5q0 59 16.5 106.5t45.5 86.5q-50 11 -94.5 37.5t-77.5 65
t-52.5 88.5t-19.5 108zM604 657l48 -125q-54 -15 -108 -35t-97.5 -49t-71 -69.5t-27.5 -95.5q0 -51 23.5 -83.5t58 -51.5t75 -26.5t75.5 -7.5q69 0 131 22.5t113 58t89 77.5t59 81v482q-62 44 -117 76t-110.5 52.5t-114 30t-126.5 9.5q-53 0 -111.5 -13t-107 -42t-80.5 -77
t-32 -117q0 -93 56 -146.5t159 -70.5q49 43 107 71.5t109 48.5z" />
    <glyph glyph-name="ori_pha" unicode="&#xb2b;" horiz-adv-x="1496" 
d="M1192 1003q41 0 77.5 -15.5t63.5 -41.5t43 -61.5t16 -75.5t-16 -75t-43 -61.5t-63.5 -41.5t-77.5 -15q-33 0 -62 9t-54 26v-651h-104v225q-24 -38 -65 -81t-93 -80t-112.5 -61t-124.5 -24q-66 0 -123 19.5t-99 57t-66 93t-24 127.5q0 59 16.5 106.5t45.5 86.5
q-50 11 -94.5 37.5t-77.5 65t-52.5 88.5t-19.5 108q0 91 32 160.5t88.5 116t133.5 70t167 23.5q80 0 150 -20t129 -50t106.5 -65t82.5 -65v179h104v-151q25 17 54 27t62 10zM604 657l48 -125q-54 -15 -108 -35t-97.5 -49t-71 -69.5t-27.5 -95.5q0 -51 23.5 -83.5t58 -51.5
t75 -26.5t75.5 -7.5q69 0 131 22.5t113 58t89 77.5t59 81v482q-62 44 -117 76t-110.5 52.5t-114 30t-126.5 9.5q-53 0 -111.5 -13t-107 -42t-80.5 -77t-32 -117q0 -93 56 -146.5t159 -70.5q49 43 107 71.5t109 48.5zM1192 699q24 0 45 8.5t37 23.5t25 35t9 43t-9 43t-25 35
t-37 23.5t-45 8.5t-45 -8t-36.5 -22.5t-24.5 -34t-10 -41.5v-9q1 -22 10 -41t24.5 -33.5t36.5 -22.5t45 -8z" />
    <glyph glyph-name="ori_ba" unicode="&#xb2c;" horiz-adv-x="1173" 
d="M953 437q39 44 61 96t22 110q0 74 -33.5 139.5t-92 114.5t-138 77.5t-171.5 28.5t-171.5 -22t-138 -64t-92 -102.5t-33.5 -136.5q0 -79 36 -134.5t93 -84.5q7 53 29.5 98.5t57.5 79t81.5 52.5t102.5 19q61 0 111.5 -23.5t86.5 -63.5t56 -94.5t20 -115.5v-411h-104v186
q-29 -27 -70.5 -49.5t-99.5 -22.5q-50 0 -92.5 15.5t-76 43t-57.5 65.5t-36 83q-45 20 -85 52.5t-70.5 76.5t-48 101t-17.5 127q0 105 39.5 190t108.5 145t163 92.5t202 32.5t202 -39t163.5 -105.5t109 -156.5t39.5 -192q0 -77 -24 -147t-66 -129zM375 411q0 -34 13 -63.5
t38 -51t60.5 -34t79.5 -12.5t79.5 12.5t60 34t38 51t13.5 63.5q0 33 -13.5 62.5t-38 51.5t-60 35t-79.5 13t-79.5 -13t-60.5 -35t-38 -51.5t-13 -62.5z" />
    <glyph glyph-name="ori_bha" unicode="&#xb2d;" horiz-adv-x="1441" 
d="M681 1003q-123 0 -219 -34t-162 -88.5t-100.5 -124t-34.5 -139.5q0 -69 30 -123.5t83 -99.5q9 49 30.5 89t51.5 72.5t66.5 58t76.5 46.5l37 -110q-87 -29 -136 -82.5t-49 -138.5q0 -46 18 -85.5t52 -68t83.5 -45t111.5 -16.5q95 0 154 30t88 80q-41 -28 -93 -28
q-44 0 -79.5 16t-60.5 42.5t-38.5 61t-13.5 71.5q0 68 22.5 111t59.5 75l55 -54q-33 -34 -43.5 -61t-10.5 -57q0 -21 9 -41.5t25 -36t38.5 -25t50.5 -9.5q43 0 72 20.5t35 62.5q-3 35 -16 71.5t-45 80.5l86 59q22 -39 34 -75t17.5 -69t6.5 -62.5t1 -55.5q0 -69 -24.5 -131
t-69.5 -109t-110 -74.5t-146 -27.5q-67 0 -124 19.5t-101 54t-74 81.5t-43 102q-92 70 -145.5 167.5t-53.5 215.5q0 60 16.5 122t49 119.5t82 108t116 88t150 59.5t184.5 22q105 0 191 -22.5t154 -61.5t118.5 -93t83.5 -116.5t49 -132t16 -140.5q0 -46 -8 -98t-26.5 -106
t-49 -108t-75.5 -104l193 -218l-96 -75l-216 339q45 25 81 67.5t61.5 92.5t39 103.5t13.5 100.5q0 76 -36 153.5t-104 140.5t-166 103t-223 40z" />
    <glyph glyph-name="ori_ma" unicode="&#xb2e;" horiz-adv-x="1180" 
d="M656 564q-36 -11 -80.5 -35.5t-91.5 -56.5t-92.5 -68.5t-83.5 -71.5t-66 -65t-38 -49q22 -3 41 -13t33 -24.5t22 -32t8 -36.5q0 -23 -8.5 -43.5t-23.5 -35.5t-35 -24t-43 -9t-44 8.5t-37 24t-25 38t-9 49.5q0 43 23.5 92t61.5 99t87.5 98.5t100.5 91.5q-51 1 -100 21.5
t-87.5 56t-62 84t-23.5 105.5q0 91 32 160.5t88.5 116t133.5 70t167 23.5q80 0 150 -20t129 -50t106.5 -65t82.5 -65v179h104v-1117h-104v835q-70 40 -132 71.5t-122 53t-121 32.5t-129 11q-42 0 -93.5 -12.5t-96.5 -39t-75 -68.5t-30 -101q0 -46 21 -78.5t52.5 -52.5
t69 -29.5t70.5 -9.5q14 0 32 1t37 2.5t37 3.5t33 5q18 11 34 19.5t29 13.5z" />
    <glyph glyph-name="ori_ya" unicode="&#xb2f;" horiz-adv-x="1332" 
d="M235 768q0 91 32 160.5t88.5 116t133.5 70t167 23.5q79 0 149 -20t129.5 -50t107 -65t82.5 -65v179h104v-1117h-104v225q-24 -38 -65 -81t-93 -80t-112.5 -61t-124.5 -24q-66 0 -123 19.5t-99 57t-66 93t-24 127.5q0 59 18 109q-39 -16 -76 -34t-68 -37t-53.5 -39
t-33.5 -40q22 -3 41 -13t33 -24.5t22 -32t8 -36.5q0 -23 -8.5 -43.5t-23.5 -35.5t-35 -24t-43 -9t-44 8.5t-37 24t-25 37.5t-9 49q0 39 15 76t41 70.5t59.5 63t71 56t76 48.5t73.5 39q-39 17 -73 44.5t-58.5 63t-38.5 78.5t-14 93zM756 657l48 -125q-54 -15 -108.5 -35
t-98 -49t-70.5 -69.5t-27 -95.5q0 -51 23.5 -83.5t58 -51.5t75 -26.5t75.5 -7.5q69 0 131 22.5t113 58t89 77.5t59 81v482q-62 44 -117 76t-110.5 52.5t-114 30t-126.5 9.5q-53 0 -111.5 -13t-107.5 -42t-81 -77t-32 -117q0 -93 56 -146.5t160 -70.5q49 43 106.5 71.5
t109.5 48.5z" />
    <glyph glyph-name="ori_ra" unicode="&#xb30;" horiz-adv-x="1338" 
d="M651 1138q104 0 187.5 -22.5t148 -61.5t111.5 -93t77 -116.5t44 -132t14 -140.5q0 -46 -7.5 -98t-26 -106t-49 -108t-76.5 -104l194 -218l-96 -75l-216 339q44 25 80 67.5t61.5 92.5t39 103.5t13.5 100.5q0 76 -31 153.5t-93.5 140.5t-156 103t-218.5 40q-98 0 -186 -29
t-154.5 -79.5t-105.5 -117.5t-39 -143q0 -77 38 -144t104 -118q15 44 42 81t63.5 63.5t80.5 41.5t93 15q61 0 115 -23.5t94 -63.5t63 -94.5t23 -115.5q0 -62 -23 -116t-63 -94.5t-94 -63.5t-115 -23q-55 0 -104.5 19t-88 52t-64.5 78.5t-35 98.5q-48 35 -87.5 79t-67 95
t-42.5 107.5t-15 117.5q0 106 42 199.5t117.5 163t179.5 109.5t229 40zM375 276q0 -34 16.5 -63.5t45 -51.5t67.5 -34.5t83 -12.5t82.5 12.5t67.5 34.5t45.5 51.5t16.5 63.5q0 33 -16.5 62.5t-45.5 51.5t-67.5 35t-82.5 13t-83 -13t-67.5 -35t-45 -51.5t-16.5 -62.5z" />
    <glyph glyph-name="ori_la" unicode="&#xb32;" horiz-adv-x="1441" 
d="M984 0h-104v385q0 25 -7 49.5t-20 44t-31.5 31.5t-41.5 12t-41 -11.5t-30.5 -30t-19.5 -42t-7 -48.5v-390h-104v385q0 25 -7 49.5t-20 44t-32 31.5t-42 12t-41 -12t-31 -31.5t-19.5 -44t-6.5 -49.5v-385h-104v234q-94 70 -143 168t-49 217q0 60 17.5 122t51.5 119.5
t85.5 108t119.5 88t152.5 59.5t185.5 22q105 0 191 -22.5t154 -61.5t118 -93t83 -116.5t49 -132t16 -140.5q0 -46 -7.5 -98t-26 -106t-49 -108t-76.5 -104l194 -218l-96 -75l-216 339q44 25 80 67.5t61.5 92.5t39 103.5t13.5 100.5q0 76 -35.5 153.5t-103.5 140.5t-166 103
t-223 40q-124 0 -222 -34t-166.5 -88.5t-105 -124t-36.5 -139.5q0 -71 26.5 -127t83.5 -101v38q0 52 16.5 94.5t44.5 72.5t65 46.5t77 16.5q47 0 86 -21.5t65 -60.5q27 39 66.5 60.5t85.5 21.5q40 0 77 -16.5t65 -46.5t44.5 -72.5t16.5 -94.5v-427z" />
    <glyph glyph-name="ori_lla" unicode="&#xb33;" horiz-adv-x="1307" 
d="M275 427q0 52 16.5 94.5t44.5 72.5t65 46.5t77 16.5q47 0 86 -21.5t65 -60.5q27 39 66.5 60.5t85.5 21.5q40 0 77 -16.5t65 -46.5t44.5 -72.5t16.5 -94.5v-427h-104v385q0 25 -7 49.5t-20 44t-31.5 31.5t-41.5 12t-41 -11.5t-30.5 -30t-19.5 -42t-7 -48.5v-390h-104v385
q0 25 -7 49.5t-20 44t-32 31.5t-42 12t-41 -12t-31 -31.5t-19.5 -44t-6.5 -49.5v-385h-104v263q-88 68 -140 166.5t-52 215.5q0 102 41 192t115 156.5t177 105.5t227 39t227 -39t177 -105.5t115 -156.5t41 -192q0 -77 -23.5 -147t-65.5 -129l-68 68q39 44 61 96t22 110
q0 74 -36 139.5t-99.5 114.5t-152 77.5t-193.5 28.5t-193.5 -28.5t-152.5 -77.5t-100 -114.5t-36 -139.5q0 -69 29 -128t80 -107v19z" />
    <glyph glyph-name="ori_va" unicode="&#xb35;" horiz-adv-x="1214" 
d="M497 410q0 29 20.5 49.5t49.5 20.5t49 -20.5t20 -49.5q0 -30 -20 -50.5t-49 -20.5t-49.5 20.5t-20.5 50.5zM953 437q39 44 61 96t22 110q0 74 -33.5 139.5t-92 114.5t-138 77.5t-171.5 28.5t-171.5 -22t-138 -64t-92 -102.5t-33.5 -136.5q0 -79 36 -134.5t93 -84.5
q7 53 29.5 98.5t57.5 79t81.5 52.5t102.5 19q61 0 111.5 -23.5t86.5 -63.5t56 -94.5t20 -115.5v-411h-104v186q-29 -27 -70.5 -49.5t-99.5 -22.5q-50 0 -92.5 15.5t-76 43t-57.5 65.5t-36 83q-45 20 -85 52.5t-70.5 76.5t-48 101t-17.5 127q0 105 39.5 190t108.5 145
t163 92.5t202 32.5t202 -39t163.5 -105.5t109 -156.5t39.5 -192q0 -77 -24 -147t-66 -129zM375 411q0 -34 13 -63.5t38 -51t60.5 -34t79.5 -12.5t79.5 12.5t60 34t38 51t13.5 63.5q0 33 -13.5 62.5t-38 51.5t-60 35t-79.5 13t-79.5 -13t-60.5 -35t-38 -51.5t-13 -62.5z" />
    <glyph glyph-name="ori_sha" unicode="&#xb36;" horiz-adv-x="1290" 
d="M1082 1117h104v-1117h-104v700q-27 72 -71 128t-102.5 95t-128.5 59.5t-149 20.5q-39 0 -76.5 -7t-67 -21t-48 -36.5t-18.5 -53.5q0 -14 3 -26q73 -3 137 -30t120 -86l-79 -71q-16 13 -37 26t-48 23t-60 16.5t-73 6.5q-41 0 -80.5 -12.5t-70 -36.5t-49 -60t-18.5 -83
q0 -33 12.5 -61.5t33 -52t45.5 -41t51 -27.5q14 44 41 81.5t64 64.5t81 42t93 15q61 0 115 -23.5t94 -63.5t63 -94.5t23 -115.5q0 -62 -23 -116t-63 -94.5t-94 -63.5t-115 -23q-57 0 -108 20.5t-90 55.5t-64.5 83t-31.5 104q-42 17 -80.5 46t-67 68t-45.5 89t-17 109
q0 61 21 112.5t57 90.5t84 64t102 34q-9 27 -9 58q0 50 21.5 91.5t60 71t92 46t118.5 16.5q74 0 140.5 -18t124 -50t104.5 -77t83 -100v224zM375 276q0 -34 16.5 -63.5t45 -51.5t67.5 -34.5t83 -12.5t82.5 12.5t67.5 34.5t45.5 51.5t16.5 63.5q0 33 -16.5 62.5t-45.5 51.5
t-67.5 35t-82.5 13t-83 -13t-67.5 -35t-45 -51.5t-16.5 -62.5z" />
    <glyph glyph-name="ori_ssa" unicode="&#xb37;" horiz-adv-x="1180" 
d="M83 768q0 91 32 160.5t88.5 116t133.5 70t167 23.5q80 0 150 -20t129 -50t106.5 -65t82.5 -65v179h104v-1117h-104v225q-24 -38 -65 -81t-93 -80t-112.5 -61t-124.5 -24q-66 0 -123 19.5t-99 57t-66 93t-24 127.5q0 59 16.5 106.5t45.5 86.5q-50 11 -94.5 37.5t-77.5 65
t-52.5 88.5t-19.5 108zM554 501q-41 -15 -78.5 -35t-66 -46.5t-45 -60t-16.5 -76.5q0 -51 23.5 -83.5t58 -51.5t75 -26.5t75.5 -7.5q55 0 105.5 14.5t95 38.5t81 55t64.5 64l-593 685q-33 -13 -62.5 -32.5t-51 -46.5t-34 -61.5t-12.5 -76.5q0 -93 56 -146.5t159 -70.5
q28 24 59 43.5t63 36.5zM972 835q-62 44 -117 76t-110.5 52.5t-114 30t-126.5 9.5q-33 0 -66 -6l534 -629v467z" />
    <glyph glyph-name="ori_sa" unicode="&#xb38;" horiz-adv-x="1180" 
d="M83 206l291 244q-59 12 -111.5 40t-92.5 70.5t-63.5 97.5t-23.5 121q0 88 32 155t88.5 112.5t133.5 68.5t167 23q80 0 150 -20t129 -50t106.5 -65t82.5 -65v179h104v-1117h-104zM972 835q-62 44 -117 76t-110.5 52.5t-114 30t-126.5 9.5q-53 0 -111.5 -14t-107 -43
t-80.5 -75.5t-32 -110.5q0 -44 21 -84t58 -72t88.5 -54.5t113.5 -32.5l167 140l57 -78l-350 -290l644 -158v704z" />
    <glyph glyph-name="ori_ha" unicode="&#xb39;" horiz-adv-x="1234" 
d="M973 437q39 44 61.5 96t22.5 110q0 74 -35 139.5t-95.5 114.5t-141.5 77.5t-173 28.5t-173.5 -26t-142 -72.5t-95.5 -109.5t-35 -138q0 -36 10 -67t27 -56t40 -43t50 -27q27 64 82.5 107.5t128.5 68.5l41 -125q-41 -9 -75.5 -25t-60 -37.5t-39.5 -49t-14 -59.5
q0 -36 9.5 -60t24 -38.5t32 -20.5t32.5 -6q25 0 72 25t102 65.5t112 92t103 104.5v-486h-104v279q-57 -68 -108.5 -102t-95.5 -49l-179 -113l476 -173l-83 -59l-575 217l214 134q-58 25 -85 77t-31 110q-86 39 -137.5 122.5t-51.5 204.5q0 97 41 183t112 149.5t166.5 100.5
t203.5 37t203.5 -39t167 -105.5t112.5 -156.5t41 -192q0 -77 -23.5 -147t-65.5 -129z" />
    <glyph glyph-name="ori_nukta" unicode="&#xb3c;" 
d="M-99 -214q0 21 8 39t21.5 31.5t31.5 21t38 7.5q42 0 71 -28.5t29 -70.5t-29 -70.5t-71 -28.5q-20 0 -38 7.5t-31.5 21t-21.5 31.5t-8 39z" />
    <glyph glyph-name="ori_avagraha" unicode="&#xb3d;" horiz-adv-x="813" 
d="M704 165l-49 -76l-572 321l388 188l-388 219l561 272l65 -108l-400 -183l395 -225l-395 -183z" />
    <glyph glyph-name="ori_aa_matra" unicode="&#xb3e;" horiz-adv-x="308" 
d="M204 0h-104v1117h104v-1117z" />
    <glyph glyph-name="ori_i_matra" unicode="&#xb3f;" 
d="M0 1419q-21 0 -60 -2t-94 -14t-123 -37.5t-147 -73.5l-52 68q30 26 81 59.5t115 63.5t136 50.5t144 20.5t144 -20.5t136 -50.5t115 -63.5t81 -59.5l-52 -68q-79 48 -147 73.5t-123 37.5t-94 14t-60 2z" />
    <glyph glyph-name="ori_ii_matra" unicode="&#xb40;" horiz-adv-x="349" 
d="M245 0h-104v1003l-141 -110l-52 69l297 219v-1181z" />
    <glyph glyph-name="ori_u_matra" unicode="&#xb41;" 
d="M52 0v-121q0 -78 -23 -150q38 -38 78.5 -66t94.5 -28q16 0 33 5.5t32 12.5t26 14t16 10l49 -81q-9 -6 -26 -16.5t-38.5 -20.5t-45.5 -17t-46 -7q-36 0 -66.5 8.5t-56.5 23.5t-48.5 34t-42.5 40q-32 -48 -81 -77t-116 -29q-43 0 -79.5 11.5t-63.5 34.5t-42 57t-15 80
q0 42 18 73.5t45 52.5t58 31t57 10q56 0 97.5 -20t76.5 -50q3 16 4 32t1 32v121h104zM-229 -196q-42 0 -71 -19.5t-29 -62.5q0 -23 11.5 -39.5t28 -27t34.5 -15.5t30 -5q49 0 83 24.5t55 64.5q-32 34 -65.5 57t-76.5 23z" />
    <glyph glyph-name="ori_uu_matra" unicode="&#xb42;" 
d="M178 -280l205 -192l-61 -76l-171 164q-45 -81 -100 -122t-131 -41q-44 0 -79 15t-60.5 40.5t-39 60t-13.5 73.5q0 51 17 90t46.5 68.5t69.5 50t87 35.5v114h104v-202q-42 -13 -82 -24.5t-71 -27t-50 -36.5t-19 -54q0 -19 9.5 -32t23 -21t29 -11.5t28.5 -3.5
q18 0 40.5 3.5t48 16.5t52.5 38t54 68z" />
    <glyph glyph-name="ori_ri_matra" unicode="&#xb43;" 
d="M178 -204q34 -5 61.5 -22.5t47 -42.5t29.5 -54.5t10 -58.5q0 -48 -20 -88.5t-56.5 -70t-87 -46t-110.5 -16.5q-48 0 -98.5 12t-92.5 40.5t-69 75.5t-27 116q0 43 14 80.5t39 68.5t58 55t72 40v115h104v-201q-57 -15 -96 -31t-63 -34.5t-34.5 -41.5t-10.5 -52
q0 -30 15 -54.5t42 -42t64.5 -26.5t82.5 -9q43 0 78.5 9t60.5 24.5t38.5 37t13.5 46.5q0 33 -23 60t-70 35z" />
    <glyph glyph-name="ori_rri_matra" unicode="&#xb44;" 
d="M-286 -343q0 -42 27 -69.5t66 -41.5q-3 11 -4 20t-1 16q0 71 50.5 114t145.5 43q36 0 68.5 -10t57 -29.5t38.5 -48t14 -65.5q0 -34 -13 -59.5t-34 -44.5t-48.5 -32t-56.5 -21t-57 -11.5t-51 -3.5q-48 0 -98.5 14.5t-92 44t-68 74t-26.5 103.5q0 88 65.5 143.5t183.5 71.5
q-18 10 -33 26t-15 41q0 17 8 30t21 21.5t29.5 12.5t32.5 4h129v-62h-104q-16 0 -27 -5t-11 -15q0 -12 21.5 -31t79.5 -46l-34 -50q-22 8 -39.5 9.5t-34.5 1.5q-33 0 -66.5 -9t-60.5 -27t-44.5 -45t-17.5 -64zM-120 -419q0 -15 3 -27.5t8 -23.5q5 -1 8.5 -1h8.5
q85 0 123.5 20t38.5 52q0 25 -25 40.5t-67 15.5q-41 0 -69.5 -18.5t-28.5 -57.5z" />
    <glyph glyph-name="ori_e_matra" unicode="&#xb47;" horiz-adv-x="921" 
d="M516 1003q-77 0 -138 -33.5t-104.5 -87t-70 -120.5t-33.5 -134q64 32 141.5 56t165.5 24q85 0 151.5 -26t112 -72t69 -109t23.5 -138q0 -76 -19.5 -145.5t-60 -122.5t-102.5 -84.5t-148 -31.5q-90 0 -166.5 43.5t-133 122t-88.5 188t-32 240.5q0 66 12 134t36 130.5
t60 117.5t84 95.5t108 64t132 23.5q62 0 112 -16.5t90.5 -45t72.5 -65.5t59 -78l-55 -51q-36 38 -69.5 61.5t-66.5 37t-68 18t-74 4.5zM492 573q-45 0 -89 -8.5t-85 -22.5t-77.5 -31t-66.5 -33q11 -69 37.5 -134.5t68.5 -116.5t99 -82t129 -31q52 0 96.5 21t77 54.5t50.5 77
t18 88.5q0 52 -18.5 92.5t-52.5 68.5t-81.5 42.5t-105.5 14.5z" />
    <glyph glyph-name="ori_ai_matra" unicode="&#xb48;" horiz-adv-x="2113" 
d="M516 1003q-77 0 -138 -33.5t-104.5 -87t-70 -120.5t-33.5 -134q64 32 141.5 56t165.5 24q85 0 151.5 -26t112 -72t69 -109t23.5 -138q0 -76 -19.5 -145.5t-60 -122.5t-102.5 -84.5t-148 -31.5q-90 0 -166.5 43.5t-133 122t-88.5 188t-32 240.5q0 66 12 134t36 130.5
t60 117.5t84 95.5t108 64t132 23.5q62 0 112 -16.5t90.5 -45t72.5 -65.5t59 -78l-55 -51q-36 38 -69.5 61.5t-66.5 37t-68 18t-74 4.5zM492 573q-45 0 -89 -8.5t-85 -22.5t-77.5 -31t-66.5 -33q11 -69 37.5 -134.5t68.5 -116.5t99 -82t129 -31q52 0 96.5 21t77 54.5t50.5 77
t18 88.5q0 52 -18.5 92.5t-52.5 68.5t-81.5 42.5t-105.5 14.5zM1121 954q0 30 21 53t55 23q31 0 51.5 -23t20.5 -53q0 -36 -20.5 -55t-51.5 -19q-34 0 -55 19t-21 55zM967 736q0 36 20 55t54 19q28 0 50 -19t22 -55q0 -34 -22 -54t-50 -20q-34 0 -54 20t-20 54zM937 487
q0 35 21 54.5t53 19.5t54 -19.5t22 -54.5q0 -30 -22 -51t-54 -21t-53 21t-21 51zM1041 259q0 34 21 54t51 20t52 -20t22 -54q0 -32 -22 -53t-52 -21t-51 21t-21 53zM1237 111q0 34 21.5 53t56.5 19q28 0 48.5 -19t20.5 -53t-20.5 -54t-48.5 -20q-35 0 -56.5 20t-21.5 54z
M1490 81q0 30 20 52t52 22q35 0 54.5 -22t19.5 -52q0 -34 -19.5 -55t-54.5 -21q-32 0 -52 21t-20 55zM1727 183q0 34 19.5 55t51.5 21q36 0 55 -21t19 -55q0 -30 -19 -51t-55 -21q-32 0 -51.5 21t-19.5 51zM1868 376q0 35 22 54.5t52 19.5q32 0 53 -19.5t21 -54.5
q0 -30 -21 -51.5t-53 -21.5q-30 0 -52 21.5t-22 51.5zM1890 641q0 35 20.5 54t51.5 19q34 0 55 -19t21 -54t-21 -54.5t-55 -19.5q-31 0 -51.5 19.5t-20.5 54.5zM1792 878q0 26 21 50t53 24q28 0 51 -24t23 -50q0 -36 -23 -57t-51 -21q-32 0 -53 21t-21 57zM1604 1008
q0 30 21 52t57 22q30 0 49 -22t19 -52q0 -32 -19 -53t-49 -21q-36 0 -57 21t-21 53zM1358 1036q0 32 19.5 53t54.5 21q32 0 52 -21t20 -53t-20 -54t-52 -22q-35 0 -54.5 22t-19.5 54zM1830 1117q29 29 52 61q20 27 36 59t16 64q0 33 -13.5 57.5t-38 41t-58 25t-73.5 8.5
q-47 0 -91 -12t-87 -30.5t-85.5 -40t-87.5 -40t-92 -30.5t-99 -12q-51 0 -93.5 13.5t-77.5 38t-63.5 58.5t-50.5 75l59 49q42 -76 96 -113.5t128 -37.5q48 0 91.5 16t85 40t83.5 52.5t86.5 52.5t93 40t104.5 16q51 0 97.5 -17t82.5 -49.5t57 -79.5t21 -108q0 -40 -12 -75.5
t-26 -62.5q-17 -32 -37 -59h-104z" />
    <glyph glyph-name="ori_o_matra" unicode="&#xb4b;" horiz-adv-x="2357" 
d="M516 1003q-77 0 -138 -33.5t-104.5 -87t-70 -120.5t-33.5 -134q64 32 141.5 56t165.5 24q85 0 151.5 -26t112 -72t69 -109t23.5 -138q0 -76 -19.5 -145.5t-60 -122.5t-102.5 -84.5t-148 -31.5q-90 0 -166.5 43.5t-133 122t-88.5 188t-32 240.5q0 66 12 134t36 130.5
t60 117.5t84 95.5t108 64t132 23.5q62 0 112 -16.5t90.5 -45t72.5 -65.5t59 -78l-55 -51q-36 38 -69.5 61.5t-66.5 37t-68 18t-74 4.5zM492 573q-45 0 -89 -8.5t-85 -22.5t-77.5 -31t-66.5 -33q11 -69 37.5 -134.5t68.5 -116.5t99 -82t129 -31q52 0 96.5 21t77 54.5t50.5 77
t18 88.5q0 52 -18.5 92.5t-52.5 68.5t-81.5 42.5t-105.5 14.5zM1121 954q0 30 21 53t55 23q31 0 51.5 -23t20.5 -53q0 -36 -20.5 -55t-51.5 -19q-34 0 -55 19t-21 55zM967 736q0 36 20 55t54 19q28 0 50 -19t22 -55q0 -34 -22 -54t-50 -20q-34 0 -54 20t-20 54zM937 487
q0 35 21 54.5t53 19.5t54 -19.5t22 -54.5q0 -30 -22 -51t-54 -21t-53 21t-21 51zM1041 259q0 34 21 54t51 20t52 -20t22 -54q0 -32 -22 -53t-52 -21t-51 21t-21 53zM1237 111q0 34 21.5 53t56.5 19q28 0 48.5 -19t20.5 -53t-20.5 -54t-48.5 -20q-35 0 -56.5 20t-21.5 54z
M1490 81q0 30 20 52t52 22q35 0 54.5 -22t19.5 -52q0 -34 -19.5 -55t-54.5 -21q-32 0 -52 21t-20 55zM1727 183q0 34 19.5 55t51.5 21q36 0 55 -21t19 -55q0 -30 -19 -51t-55 -21q-32 0 -51.5 21t-19.5 51zM1868 376q0 35 22 54.5t52 19.5q32 0 53 -19.5t21 -54.5
q0 -30 -21 -51.5t-53 -21.5q-30 0 -52 21.5t-22 51.5zM1890 641q0 35 20.5 54t51.5 19q34 0 55 -19t21 -54t-21 -54.5t-55 -19.5q-31 0 -51.5 19.5t-20.5 54.5zM1792 878q0 26 21 50t53 24q28 0 51 -24t23 -50q0 -36 -23 -57t-51 -21q-32 0 -53 21t-21 57zM1604 1008
q0 30 21 52t57 22q30 0 49 -22t19 -52q0 -32 -19 -53t-49 -21q-36 0 -57 21t-21 53zM1358 1036q0 32 19.5 53t54.5 21q32 0 52 -21t20 -53t-20 -54t-52 -22q-35 0 -54.5 22t-19.5 54zM2253 0h-104v1117h104v-1117z" />
    <glyph glyph-name="ori_au_matra" unicode="&#xb4c;" horiz-adv-x="2379" 
d="M516 1003q-77 0 -138 -33.5t-104.5 -87t-70 -120.5t-33.5 -134q64 32 141.5 56t165.5 24q85 0 151.5 -26t112 -72t69 -109t23.5 -138q0 -76 -19.5 -145.5t-60 -122.5t-102.5 -84.5t-148 -31.5q-90 0 -166.5 43.5t-133 122t-88.5 188t-32 240.5q0 66 12 134t36 130.5
t60 117.5t84 95.5t108 64t132 23.5q62 0 112 -16.5t90.5 -45t72.5 -65.5t59 -78l-55 -51q-36 38 -69.5 61.5t-66.5 37t-68 18t-74 4.5zM492 573q-45 0 -89 -8.5t-85 -22.5t-77.5 -31t-66.5 -33q11 -69 37.5 -134.5t68.5 -116.5t99 -82t129 -31q52 0 96.5 21t77 54.5t50.5 77
t18 88.5q0 52 -18.5 92.5t-52.5 68.5t-81.5 42.5t-105.5 14.5zM1121 954q0 30 21 53t55 23q31 0 51.5 -23t20.5 -53q0 -36 -20.5 -55t-51.5 -19q-34 0 -55 19t-21 55zM967 736q0 36 20 55t54 19q28 0 50 -19t22 -55q0 -34 -22 -54t-50 -20q-34 0 -54 20t-20 54zM937 487
q0 35 21 54.5t53 19.5t54 -19.5t22 -54.5q0 -30 -22 -51t-54 -21t-53 21t-21 51zM1041 259q0 34 21 54t51 20t52 -20t22 -54q0 -32 -22 -53t-52 -21t-51 21t-21 53zM1237 111q0 34 21.5 53t56.5 19q28 0 48.5 -19t20.5 -53t-20.5 -54t-48.5 -20q-35 0 -56.5 20t-21.5 54z
M1490 81q0 30 20 52t52 22q35 0 54.5 -22t19.5 -52q0 -34 -19.5 -55t-54.5 -21q-32 0 -52 21t-20 55zM1727 183q0 34 19.5 55t51.5 21q36 0 55 -21t19 -55q0 -30 -19 -51t-55 -21q-32 0 -51.5 21t-19.5 51zM1868 376q0 35 22 54.5t52 19.5q32 0 53 -19.5t21 -54.5
q0 -30 -21 -51.5t-53 -21.5q-30 0 -52 21.5t-22 51.5zM1890 641q0 35 20.5 54t51.5 19q34 0 55 -19t21 -54t-21 -54.5t-55 -19.5q-31 0 -51.5 19.5t-20.5 54.5zM1792 878q0 26 21 50t53 24q28 0 51 -24t23 -50q0 -36 -23 -57t-51 -21q-32 0 -53 21t-21 57zM1604 1008
q0 30 21 52t57 22q30 0 49 -22t19 -52q0 -32 -19 -53t-49 -21q-36 0 -57 21t-21 53zM1358 1036q0 32 19.5 53t54.5 21q32 0 52 -21t20 -53t-20 -54t-52 -22q-35 0 -54.5 22t-19.5 54zM2149 1117q29 29 52 61q20 27 36 59t16 64q0 33 -13.5 57.5t-38 41t-58 25t-73.5 8.5
q-47 0 -91 -12t-87 -30.5t-85.5 -40t-87.5 -40t-92 -30.5t-99 -12q-51 0 -93.5 13.5t-77.5 38t-63.5 58.5t-50.5 75l59 49q42 -76 96 -113.5t128 -37.5q48 0 91.5 16t85 40t83.5 52.5t86.5 52.5t93 40t104.5 16q51 0 97.5 -17t82.5 -49.5t57 -79.5t21 -108q0 -40 -12 -75.5
t-26 -62.5q-17 -32 -37 -59v-1117h-104v1117z" />
    <glyph glyph-name="ori_virama" unicode="&#xb4d;" 
d="M314 -306l-82 -90l-296 276l64 65z" />
    <glyph glyph-name="ori_aimark" unicode="&#xb56;" 
d="M-208 1117q29 29 52 61q20 27 36 59t16 64q0 33 -13.5 57.5t-38 41t-58 25t-73.5 8.5q-47 0 -91 -12t-87 -30.5t-85.5 -40t-87.5 -40t-92 -30.5t-99 -12q-51 0 -93.5 13.5t-77.5 38t-63.5 58.5t-50.5 75l59 49q42 -76 96 -113.5t128 -37.5q48 0 91.5 16t85 40t83.5 52.5
t86.5 52.5t93 40t104.5 16q51 0 97.5 -17t82.5 -49.5t57 -79.5t21 -108q0 -40 -12 -75.5t-26 -62.5q-17 -32 -37 -59h-104z" />
    <glyph glyph-name="ori_aumark" unicode="&#xb57;" horiz-adv-x="291" 
d="M83 1117q29 29 52 61q20 27 36 59t16 64q0 33 -13.5 57.5t-38 41t-58 25t-73.5 8.5q-47 0 -91 -12t-87 -30.5t-85.5 -40t-87.5 -40t-92 -30.5t-99 -12q-51 0 -93.5 13.5t-77.5 38t-63.5 58.5t-50.5 75l59 49q42 -76 96 -113.5t128 -37.5q48 0 91.5 16t85 40t83.5 52.5
t86.5 52.5t93 40t104.5 16q51 0 97.5 -17t82.5 -49.5t57 -79.5t21 -108q0 -40 -12 -75.5t-26 -62.5q-17 -32 -37 -59v-1117h-104v1117z" />
    <glyph glyph-name="ori_rra" unicode="&#xb5c;" horiz-adv-x="1276" 
d="M1015 437q39 44 61 96t22 110q0 74 -35.5 139.5t-97.5 114.5t-147.5 77.5t-185.5 28.5t-185 -28.5t-147.5 -77.5t-98 -114.5t-35.5 -139.5q0 -71 31 -132.5t85 -109.5q21 85 80.5 148t141.5 91l41 -125q-41 -9 -75.5 -27.5t-60 -44.5t-39.5 -58t-14 -67q0 -42 17.5 -79
t51.5 -65t84.5 -44t116.5 -16q60 0 106 18t77 45.5t47 59.5t16 61q0 33 -12.5 59t-34 43.5t-49 27t-57.5 9.5h-12l-32 -50l-77 52l199 297l73 -54l-100 -152q43 -10 77.5 -33.5t58.5 -55.5t36.5 -70t12.5 -77q0 -69 -22.5 -127t-65 -99.5t-103 -65t-136.5 -23.5
q-72 0 -132 21.5t-105.5 59.5t-75 90t-38.5 112q-90 68 -142 167t-52 216q0 102 41.5 192t114.5 156.5t172.5 105.5t215.5 39t216 -39t173 -105.5t114.5 -156.5t41.5 -192q0 -77 -23.5 -147t-65.5 -129zM525 -214q0 21 8 39t21.5 31.5t31.5 21t38 7.5q42 0 71 -28.5
t29 -70.5t-29 -70.5t-71 -28.5q-20 0 -38 7.5t-31.5 21t-21.5 31.5t-8 39z" />
    <glyph glyph-name="ori_rha" unicode="&#xb5d;" horiz-adv-x="1276" 
d="M1015 437q39 44 61 96t22 110q0 74 -35.5 139.5t-97.5 114.5t-147.5 77.5t-185.5 28.5t-185 -28.5t-147.5 -77.5t-98 -114.5t-35.5 -139.5q0 -75 33.5 -138.5t93.5 -112.5q15 75 59 135.5t108 95.5l54 -93q-32 -13 -59 -34.5t-46 -48.5t-29.5 -59.5t-10.5 -68.5
q0 -48 20.5 -90.5t54 -75t76.5 -52t89 -19.5q-46 32 -70.5 79.5t-24.5 101.5q0 34 11.5 70t35.5 65t61 47.5t88 18.5q48 0 84 -20.5t61 -52.5t37.5 -70.5t12.5 -75.5q0 -59 -24.5 -108t-65.5 -84t-94 -54.5t-111 -19.5q-63 0 -116.5 20.5t-94.5 57.5t-69 86.5t-38 108.5
q-48 33 -86.5 76t-65.5 93t-42 106.5t-15 117.5q0 102 41.5 192t114.5 156.5t172.5 105.5t215.5 39t216 -39t173 -105.5t114.5 -156.5t41.5 -192q0 -77 -23.5 -147t-65.5 -129zM597 227q0 -24 9 -44.5t24 -35.5t35.5 -24t43.5 -9q24 0 44.5 9t35.5 24t24 35.5t9 44.5
q0 23 -9 43.5t-24 35.5t-35.5 24t-44.5 9q-23 0 -43.5 -9t-35.5 -24t-24 -35.5t-9 -43.5zM508 -214q0 21 8 39t21.5 31.5t31.5 21t38 7.5q42 0 71 -28.5t29 -70.5t-29 -70.5t-71 -28.5q-20 0 -38 7.5t-31.5 21t-21.5 31.5t-8 39z" />
    <glyph glyph-name="ori_yya" unicode="&#xb5f;" horiz-adv-x="1459" 
d="M698 -21q-61 0 -112.5 19.5t-89 57t-58.5 93t-21 127.5q0 59 18 109q-39 -16 -76 -34t-68 -37t-53.5 -39t-33.5 -40q22 -3 41 -13t33 -24.5t22 -32t8 -36.5q0 -23 -8.5 -43.5t-23.5 -35.5t-35 -24t-43 -9t-44 8.5t-37 24t-25 37.5t-9 49q0 39 15 76t41 70.5t59.5 63
t71 56t76 48.5t73.5 39q-39 17 -73 44.5t-58.5 63t-38.5 78.5t-14 93q0 91 32 160.5t88.5 116t133.5 70t167 23.5q79 0 149 -20t129.5 -50t107 -65t82.5 -65v179h104v-718q62 -19 94.5 -67.5t32.5 -114.5q0 -37 -16.5 -68t-41.5 -55.5t-54 -42t-54 -26.5l166 -113l-63 -64
l-252 211q28 5 67.5 19t76 35.5t62.5 51t26 65.5q0 45 -29 70.5t-74 25.5q-41 0 -72.5 -25.5t-61 -64.5t-60.5 -83.5t-70 -83.5t-89 -64.5t-118 -25.5zM1124 835q-62 44 -117 76t-110.5 52.5t-114 30t-126.5 9.5q-53 0 -111.5 -13t-107.5 -42t-81 -77t-32 -117
q0 -93 56 -146.5t160 -70.5q49 43 106.5 71.5t109.5 48.5l48 -125q-54 -15 -108.5 -35t-98 -49t-70.5 -69.5t-27 -95.5q0 -44 17.5 -76t44 -52.5t57.5 -30.5t58 -10q51 0 93 19t78.5 48.5t69 65t65 68t67 57t74.5 33.5v430z" />
    <glyph glyph-name="ori_rri" unicode="&#xb60;" horiz-adv-x="1370" 
d="M1118 604q78 -18 113 -59.5t35 -94.5q0 -34 -12 -57.5t-29.5 -39.5t-38 -25.5t-38.5 -15.5q21 -3 42 -11.5t38 -23t27.5 -36t10.5 -52.5q0 -28 -10.5 -49t-29.5 -39t-45.5 -34t-57.5 -33l143 -154l-84 -65l-195 282q98 1 146.5 31.5t48.5 67.5q0 24 -16.5 39t-43.5 23
t-61 10.5t-68 2.5v84q95 2 142 27t47 69q0 22 -16.5 37.5t-43.5 25t-61 13.5t-68 4v84q9 5 23.5 15.5t28.5 27t24.5 39t10.5 51.5q0 48 -26 94t-76.5 82t-125 57.5t-171.5 21.5q-123 0 -219 -34t-162 -88.5t-100.5 -124t-34.5 -139.5q0 -78 39.5 -139.5t108.5 -109.5
q15 45 42 82.5t63.5 64.5t81 42.5t93.5 15.5q61 0 115 -23.5t94 -63.5t63 -94.5t23 -115.5q0 -62 -23 -116t-63 -94.5t-94 -63.5t-115 -23q-54 0 -102.5 18t-87 50.5t-64.5 76.5t-36 96q-102 70 -161 172t-59 227q0 60 16.5 122t49 119.5t82 108t116 88t150 59.5t184.5 22
q84 0 155.5 -16.5t129.5 -44.5t102.5 -65.5t74.5 -78.5t45.5 -84t15.5 -83q0 -37 -10 -64.5t-24 -47t-28.5 -32t-23.5 -18.5zM382 276q0 -34 16.5 -63.5t45 -51.5t67 -34.5t82.5 -12.5t82.5 12.5t67.5 34.5t45.5 51.5t16.5 63.5q0 33 -16.5 62.5t-45.5 51.5t-67.5 35
t-82.5 13t-82.5 -13t-67 -35t-45 -51.5t-16.5 -62.5z" />
    <glyph glyph-name="ori_lli" unicode="&#xb61;" horiz-adv-x="996" 
d="M769 -207q-63 37 -115 86.5t-93 104.5q-20 -2 -41 -3.5t-41 -1.5q-65 0 -135 22.5t-128 66t-95.5 108t-37.5 148.5q0 76 26 127t68 85.5t96.5 56t110.5 38.5t110.5 34t96.5 42.5t68 63t26 95.5q0 33 -16.5 58.5t-44 43t-64.5 26.5t-77 9q-28 0 -62.5 -4t-65 -16.5
t-51 -35.5t-20.5 -60q0 -19 6 -36.5t15 -32.5t19 -27.5t19 -20.5l-77 -61q-10 14 -21 32t-20.5 40.5t-16 50.5t-6.5 62q0 51 20.5 95.5t57.5 77.5t89 52t114 19q76 0 130 -26t88.5 -66.5t51 -89t16.5 -93.5q0 -80 -26 -134.5t-68.5 -92t-96.5 -61.5t-110.5 -42t-110.5 -34.5
t-96.5 -39t-68.5 -54.5t-26 -81q0 -51 26 -90.5t70 -66t102.5 -40t123.5 -13.5q-31 77 -31 145q0 58 17 105t47 80t72 51t92 18q51 0 90 -20t65 -52.5t39 -74.5t13 -87q0 -55 -18 -99t-50 -78.5t-75 -59t-94 -39.5q62 -66 154 -123zM809 284q0 48 -34.5 81t-94.5 33
q-30 0 -55.5 -9.5t-44 -28.5t-29.5 -46t-11 -61q0 -33 8.5 -67t25.5 -67q46 5 89 16.5t75 31.5t51.5 49t19.5 68z" />
    <glyph glyph-name="ori_li_matra" unicode="&#xb62;" 
d="M-284 -446q0 47 31 79.5t82 32.5q25 0 45 -10t33 -26t20 -37t7 -43q0 -39 -17.5 -67t-46 -46.5t-65.5 -27.5t-77 -9q-33 0 -68 11t-64 33t-47.5 54.5t-18.5 74.5q0 50 22 79t55.5 46t72.5 27.5t72.5 23.5t55.5 34t22 60q0 33 -29.5 51t-70.5 18q-14 0 -31.5 -2
t-32.5 -8.5t-25.5 -18t-10.5 -30.5t10.5 -34t19.5 -24l-39 -30q-10 14 -21 36t-11 57q0 25 10 47t29 38.5t44.5 26t57.5 9.5q37 0 64 -13t44.5 -33.5t25.5 -44.5t8 -46q0 -53 -22 -84.5t-55.5 -50.5t-72.5 -30t-72.5 -23.5t-55.5 -30t-22 -50.5q0 -26 13 -45.5t35 -33
t51.5 -20t62.5 -6.5h10t10 1q-18 15 -28 38.5t-10 46.5zM-107 -448q0 24 -17.5 40.5t-47.5 16.5q-29 0 -49.5 -17t-20.5 -44t16 -45.5t37 -26.5q35 8 58.5 26t23.5 50z" />
    <glyph glyph-name="ori_lli_matra" unicode="&#xb63;" 
d="M-128 -694q-30 19 -56.5 44t-46.5 52q-10 -1 -20 -1.5t-21 -0.5q-33 0 -68 11t-64 33t-47.5 54.5t-18.5 74.5q0 50 22 79t55.5 46t72.5 27.5t72.5 23.5t55.5 34t22 60q0 33 -29.5 51t-70.5 18q-14 0 -31.5 -2t-32.5 -8.5t-25.5 -18t-10.5 -30.5t10.5 -34t19.5 -24
l-39 -30q-10 14 -21 36t-11 57q0 25 10 47t29 38.5t44.5 26t57.5 9.5q37 0 64 -13t44.5 -33.5t25.5 -44.5t8 -46q0 -53 -22 -84.5t-55.5 -50.5t-72.5 -30t-72.5 -23.5t-55.5 -30t-22 -50.5q0 -26 13 -45t34.5 -32.5t51 -20.5t62.5 -7q-17 37 -17 71q0 58 32 92.5t82 34.5
q26 0 45.5 -10t32.5 -26t19.5 -37t6.5 -43q0 -55 -33.5 -89t-85.5 -49q16 -17 35.5 -32.5t42.5 -29.5zM-107 -448q0 24 -17.5 40.5t-47.5 16.5q-29 0 -49.5 -19t-20.5 -54q0 -32 17 -66q24 3 45 8.5t37.5 15.5t26 24t9.5 34z" />
    <glyph glyph-name="ori_zero" unicode="&#xb66;" horiz-adv-x="1097" 
d="M94 558q0 92 34 173t93.5 141.5t140.5 95.5t176 35q94 0 175.5 -35t141.5 -95.5t94 -141.5t34 -173t-34 -173t-94 -141t-141.5 -95t-175.5 -35q-95 0 -176 35t-140.5 95t-93.5 141t-34 173zM177 558q0 -64 27.5 -120t76 -98t114.5 -66t143 -24t143.5 24t115 66t76 98
t27.5 120t-27.5 120.5t-76 98.5t-115 66t-143.5 24t-143 -24t-114.5 -66t-76 -98.5t-27.5 -120.5z" />
    <glyph glyph-name="ori_one" unicode="&#xb67;" horiz-adv-x="834" 
d="M166 686q0 -113 45 -212.5t120 -180t173 -139t204 -88.5l-52 -87q-115 39 -219 107t-182.5 160t-125 206.5t-46.5 246.5q0 82 22 160.5t66 140.5t110 100t154 38q66 0 120 -25.5t93 -69.5t60.5 -102.5t21.5 -125.5t-24.5 -121t-64.5 -92.5t-92.5 -59t-107.5 -20.5
q-37 0 -76 12.5t-76 37.5t-68.5 62t-53.5 86q-1 -9 -1 -17.5v-16.5zM437 657q45 0 83 12t66.5 34t44.5 52.5t16 67.5q0 44 -19 77.5t-49 56.5t-68 34.5t-76 11.5q-44 0 -80 -12.5t-65 -34.5t-51.5 -51.5t-37.5 -62.5q18 -48 44 -83t57.5 -57.5t66 -33.5t68.5 -11z" />
    <glyph glyph-name="ori_two" unicode="&#xb68;" horiz-adv-x="834" 
d="M647 686v16.5t-2 17.5q-22 -49 -53.5 -86t-68 -62t-75.5 -37.5t-76 -12.5q-55 0 -107 20.5t-92.5 59t-65 92.5t-24.5 121t21.5 125.5t60.5 102.5t93.5 69.5t120.5 25.5q88 0 154 -38t109.5 -100t65.5 -140.5t22 -160.5q0 -132 -46.5 -246.5t-125 -206.5t-182.5 -160
t-219 -107l-52 87q106 30 204 88.5t173 139t120 180t45 212.5zM376 657q33 0 68 11t66.5 33.5t58 57.5t43.5 83q-15 33 -37.5 62.5t-51.5 51.5t-65 34.5t-79 12.5q-38 0 -76 -11.5t-68.5 -34.5t-49.5 -56.5t-19 -77.5q0 -37 16 -67.5t44.5 -52.5t66.5 -34t83 -12z" />
    <glyph glyph-name="ori_three" unicode="&#xb69;" horiz-adv-x="1472" 
d="M166 605v-15.5t1 -15.5q39 85 99.5 125.5t121.5 40.5q56 0 100 -23.5t74 -62.5t46 -89t16 -104q0 -57 -17.5 -110.5t-49 -95.5t-75.5 -67.5t-96 -25.5q-57 0 -101.5 20t-78 54t-57 78.5t-38.5 94t-21.5 100t-6.5 96.5q0 105 31.5 201.5t88.5 170t136 117.5t174 44
q61 0 108.5 -12t85.5 -36t68.5 -60t57.5 -85q16 43 41.5 79t58 61t72 39t83.5 14q79 0 132.5 -31t86.5 -77.5t47 -102.5t14 -105v-822h-104v808q0 31 -11.5 65t-35 63t-58.5 48t-82 19q-39 0 -73.5 -17t-60 -44.5t-40.5 -62.5t-15 -71v-808h-104v833q-20 52 -47.5 85t-62 52
t-74.5 26t-85 7q-70 0 -133.5 -33t-111.5 -88t-76 -127t-28 -150zM386 605q-62 0 -114 -32t-85 -109q11 -35 28.5 -65.5t42 -53t56.5 -35.5t72 -13q29 0 57 11.5t49.5 32t35 48.5t13.5 62q0 41 -14.5 70.5t-37.5 48t-50.5 27t-52.5 8.5z" />
    <glyph glyph-name="ori_four" unicode="&#xb6a;" horiz-adv-x="1090" 
d="M83 1055l70 83q105 -115 203 -219t179 -189q81 85 178.5 189t202.5 219l70 -83q-114 -112 -212.5 -210.5t-177.5 -179.5q36 -38 65 -68t49 -51q24 -25 43 -44q36 -38 56.5 -71.5t30.5 -60.5t12.5 -47t2.5 -32q0 -66 -24.5 -123t-67.5 -99t-101.5 -66t-126.5 -24t-127 24
t-102 66t-67.5 99t-24.5 123q0 12 2.5 32t12.5 47t30.5 60.5t56.5 71.5q18 19 42 44q20 21 49 51t65 68q-79 81 -177.5 179.5t-211.5 210.5zM535 114q49 0 91.5 14t73.5 39.5t48.5 60.5t17.5 78q0 14 -1.5 26t-7.5 25.5t-18.5 30t-34.5 40.5q-19 20 -45 46q-22 23 -53 55
t-71 73q-41 -41 -72 -73t-53 -55q-26 -26 -45 -46q-22 -24 -34.5 -40.5t-18.5 -30t-7.5 -25.5t-1.5 -26q0 -43 18 -78t49 -60.5t73.5 -39.5t91.5 -14z" />
    <glyph glyph-name="ori_five" unicode="&#xb6b;" horiz-adv-x="947" 
d="M68 624l38 64q83 -46 155 -83.5t133 -69.5l72 83q-59 33 -104.5 64t-76.5 64t-47 70.5t-16 83.5q0 58 21.5 102.5t55.5 74.5t77 45.5t87 15.5q57 0 102 -19t76.5 -51.5t48 -76t16.5 -91.5q0 -63 -36.5 -129t-90.5 -132q58 -32 127.5 -67t152.5 -79l-38 -65
q-84 47 -155.5 84.5t-133.5 69.5l-71 -84q59 -33 104.5 -64t76.5 -64t47 -70.5t16 -82.5q0 -58 -21.5 -102.5t-56 -74.5t-77.5 -45.5t-86 -15.5q-57 0 -102.5 19t-77 51.5t-48 76t-16.5 91.5q0 31 10 63.5t27 65t40.5 65.5t49.5 66q-58 32 -127.5 68t-151.5 79zM623 876
q0 31 -13.5 55t-36 40t-51 24t-59.5 8q-35 0 -64 -9t-50 -25.5t-32.5 -40.5t-11.5 -53q0 -50 52 -95.5t157 -104.5q46 57 77.5 110.5t31.5 90.5zM304 241q0 -32 13.5 -55.5t36 -39.5t51 -24t59.5 -8q34 0 63 9t50 25.5t33 40.5t12 53q0 49 -52.5 95t-156.5 105
q-45 -58 -77 -111t-32 -90z" />
    <glyph glyph-name="ori_six" unicode="&#xb6c;" horiz-adv-x="1116" 
d="M172 764q0 -51 16 -95.5t45.5 -77.5t69.5 -52t88 -19q25 0 53.5 5.5t56 17t51.5 30t40 44.5q-32 -17 -57 -21.5t-37 -4.5q-47 0 -82.5 19.5t-59.5 51t-36 72t-12 82.5q0 60 22 118t65 103.5t106.5 73t145.5 27.5q67 0 120 -18t93.5 -48.5t69 -70.5t47 -83t27 -86.5
t8.5 -81.5t-5.5 -83.5t-27.5 -99.5t-65.5 -117.5t-121 -137t-193.5 -156.5t-282 -177l-61 91q164 89 276.5 167t186.5 145t114.5 123t60 102t23 81.5t3.5 61.5q0 34 -15 78t-49 83t-87.5 65.5t-130.5 26.5q-43 0 -87 -11.5t-79.5 -37.5t-58 -67.5t-22.5 -101.5
q0 -27 9 -50.5t25 -40.5t38 -27t48 -10q38 0 67.5 17.5t56.5 55.5l67 -51q-56 -117 -131 -179.5t-180 -62.5q-67 0 -123.5 29t-97.5 77.5t-64 111t-23 129.5z" />
    <glyph glyph-name="ori_seven" unicode="&#xb6d;" horiz-adv-x="1181" 
d="M213 738q0 -46 17 -81q11 35 32.5 68t49 58.5t60.5 40.5t68 15q47 0 84.5 -15.5t63.5 -43.5t40 -66.5t14 -84.5q0 -47 -17 -87.5t-48 -70.5t-74.5 -47.5t-96.5 -17.5q-60 0 -110.5 27.5t-87.5 73.5t-57.5 106t-20.5 124q0 82 27 155t78.5 127.5t127.5 86.5t174 32
q107 0 183 -39.5t124.5 -100.5t71 -133t22.5 -138q0 -42 -5.5 -88t-27.5 -97.5t-65.5 -110.5t-121 -128.5t-193.5 -149.5t-282 -174l-61 91q164 89 277 163.5t187 136.5t114.5 113.5t60 95t23.5 80t4 69.5q0 42 -19.5 90.5t-59 89.5t-100 68t-141.5 27q-71 0 -129 -19
t-99.5 -53.5t-64 -83.5t-22.5 -109zM439 756q-31 0 -56.5 -15.5t-45.5 -39.5t-35.5 -52.5t-25.5 -53.5q27 -26 63 -40t76 -14q60 0 96.5 31t36.5 77q0 22 -7 41.5t-21 34t-34 23t-47 8.5z" />
    <glyph glyph-name="ori_eight" unicode="&#xb6e;" horiz-adv-x="892" 
d="M788 982h-413q-84 0 -136 -42t-52 -130v-810h-104v810q0 82 23.5 140t64 95t93 54.5t111.5 17.5h413v-135z" />
    <glyph glyph-name="ori_nine" unicode="&#xb6f;" horiz-adv-x="944" 
d="M914 93q-33 -30 -65 -51.5t-67.5 -35.5t-75.5 -20.5t-89 -6.5q-130 0 -229.5 52t-167 138.5t-102.5 197.5t-35 230q0 173 73 309t207 232l373 -565v544h104v-681h-104l-387 574q-90 -72 -136.5 -174t-46.5 -239q0 -116 40 -206t104 -151.5t143.5 -93.5t158.5 -32
q36 0 69 7t62 18t53.5 25t43.5 28z" />
    <glyph glyph-name="ori_isshar" unicode="&#xb70;" horiz-adv-x="1100" 
d="M996 1022l-230 -535q-18 -41 -39 -87t-47 -91t-56.5 -85.5t-66.5 -71.5t-78.5 -49.5t-91.5 -18.5q-71 0 -124 28t-90 75.5t-59 111t-31 135.5l80 17q39 -232 219 -232q50 0 92 19t78.5 56.5t69.5 93t64 128.5l234 548zM474 493q0 -34 -22.5 -57.5t-54.5 -23.5
q-31 0 -53.5 23.5t-22.5 57.5t22.5 57t53.5 23q33 0 55 -22.5t22 -57.5z" />
    <glyph glyph-name="ori_wa" unicode="&#xb71;" horiz-adv-x="1127" 
d="M1023 324q0 -86 -36 -151t-96 -110v-465h-83v161q-32 -50 -80 -71.5t-99 -21.5q-39 0 -76 12t-66 36.5t-47 62.5t-18 89q0 44 8.5 78.5t20.5 60.5q-89 30 -157.5 87.5t-115.5 133.5t-71 165.5t-24 181.5q0 171 53.5 292.5t153.5 208.5l56 -71q-57 -45 -92.5 -95
t-55 -104.5t-26 -112.5t-6.5 -118q0 -99 31.5 -183t91 -145.5t144 -96t189.5 -34.5q47 0 102.5 10.5t103.5 35t80 64.5t32 100q0 49 -21 81t-55.5 50t-79 25t-90.5 7h-142v125h51q59 0 110 15t88.5 42.5t59 66.5t21.5 87q0 45 -20 78.5t-51 56t-68.5 34t-72.5 11.5
q-30 0 -62.5 -7.5t-59.5 -22.5t-44.5 -38.5t-17.5 -55.5q0 -25 7 -45.5t19 -37.5l-60 -43q-9 11 -18 28.5t-16 37.5t-11.5 40t-4.5 37q0 49 17.5 93t52 77t86 52.5t118.5 19.5q69 0 122.5 -23.5t90.5 -64.5t56.5 -95.5t19.5 -115.5q0 -41 -9.5 -82.5t-28 -77.5t-47 -63.5
t-66.5 -42.5q103 -26 155 -84.5t54 -164.5zM484 -115q0 -34 15.5 -57.5t39 -38.5t50 -21.5t49.5 -6.5q22 0 51.5 9.5t55.5 28t44.5 46.5t18.5 65v106q-89 -37 -187 -37q-60 0 -114 12q-9 -20 -16 -47t-7 -59z" />
    <glyph glyph-name="uni0B72" unicode="&#xb72;" horiz-adv-x="308" 
d="M204 0h-104v1117h104v-1117z" />
    <glyph glyph-name="uni0B73" unicode="&#xb73;" horiz-adv-x="700" 
d="M187 785q0 -98 40.5 -155t114.5 -57q33 0 61 16.5t47.5 44t30.5 64.5t11 79v340h104v-1117h-104v573q-38 -47 -85.5 -62t-92.5 -15q-33 0 -73.5 13.5t-75.5 45.5t-58.5 85t-23.5 133v344h104v-332z" />
    <glyph glyph-name="uni0B74" unicode="&#xb74;" horiz-adv-x="1109" 
d="M596 785q0 -98 40.5 -155t114.5 -57q33 0 61 16.5t47.5 44t30.5 64.5t11 79v340h104v-1117h-104v573q-38 -47 -85.5 -62t-92.5 -15q-24 0 -51.5 6.5t-54.5 21.5t-51.5 39t-42.5 59q-62 -126 -209 -126q-33 0 -73.5 13.5t-75.5 45.5t-58.5 85t-23.5 133v344h104v-332
q0 -98 40.5 -155t114.5 -57q33 0 60.5 16t47.5 43t31 63.5t11 77.5v344h104v-332z" />
    <glyph glyph-name="uni0B75" unicode="&#xb75;" horiz-adv-x="899" 
d="M839 1080l-686 -1100l-91 56l690 1102z" />
    <glyph glyph-name="uni0B76" unicode="&#xb76;" horiz-adv-x="1294" 
d="M1252 1080l-686 -1100l-91 56l106 169q14 37 14 78q0 48 -20.5 90.5t-54 75t-76.5 52t-89 19.5q46 -32 70.5 -79.5t24.5 -101.5q0 -35 -11.5 -70.5t-35.5 -64.5t-61 -47.5t-88 -18.5q-48 0 -84 20.5t-61 52.5t-37.5 70.5t-12.5 75.5q0 59 24.5 108t65.5 84t94 54.5
t111 19.5q63 0 116.5 -20.5t94.5 -57.5t68.5 -87t38.5 -108l493 788zM367 375q0 24 -9 44.5t-24 35.5t-35.5 24t-43.5 9q-24 0 -44.5 -9t-35.5 -24t-24 -35.5t-9 -44.5q0 -23 9 -43.5t24 -35.5t35.5 -24t44.5 -9q23 0 43.5 9t35.5 24t24 35.5t9 43.5z" />
    <glyph glyph-name="uni0B77" unicode="&#xb77;" horiz-adv-x="1450" 
d="M739 0h-103v254q0 25 -5.5 50t-16.5 44t-28 31t-40 12t-41.5 -11.5t-31 -30t-19.5 -42t-7 -48.5v-259h-104v254q0 25 -7 50t-20 44t-31.5 31t-41.5 12t-39.5 -12t-27.5 -31t-16.5 -44t-5.5 -50v-254h-103v297q0 52 15 94.5t41.5 72.5t61.5 46t75 16q47 0 86 -21.5
t65 -60.5q26 39 65.5 60.5t86.5 21.5q40 0 75 -16t61 -46t41 -72.5t15 -94.5v-95l587 936l87 -58z" />
    <glyph glyph-name="uni200B" unicode="&#x200b;" 
 />
    <glyph glyph-name="ZWNJ" unicode="&#x200c;" 
 />
    <glyph glyph-name="ZWJ" unicode="&#x200d;" 
 />
    <glyph glyph-name="endash" unicode="&#x2013;" horiz-adv-x="975" 
d="M927 496h-874l-6 98h873z" />
    <glyph glyph-name="emdash" unicode="&#x2014;" horiz-adv-x="1579" 
d="M1529 496h-1474l-8 100h1474z" />
    <glyph glyph-name="quoteleft" unicode="&#x2018;" horiz-adv-x="457" 
d="M385 1375q-46 -13 -85.5 -36t-69 -53.5t-46.5 -65.5t-17 -72q0 -22 9 -38.5t21 -16.5q13 0 21.5 5t17.5 11t20.5 11t30.5 5q20 0 37.5 -8.5t31 -23.5t21.5 -36t8 -45q0 -26 -11 -48t-29.5 -38t-43 -25.5t-52.5 -9.5q-37 0 -69 16.5t-56 45t-38 66t-14 80.5q0 68 25.5 125
t68 99.5t99.5 68t120 29.5v-46z" />
    <glyph glyph-name="quoteright" unicode="&#x2019;" horiz-adv-x="457" 
d="M72 937q45 13 85 36t70 53.5t47 65.5t17 72q0 22 -9 38.5t-23 16.5q-12 0 -20 -5t-17 -11t-20.5 -11t-30.5 -5q-20 0 -38 8.5t-31.5 24t-21.5 36t-8 44.5q0 26 10.5 48.5t29.5 38.5t43.5 25t53.5 9q37 0 69 -16.5t56 -45t37.5 -66t13.5 -80.5q0 -68 -25.5 -125t-68 -99.5
t-99.5 -68t-120 -29.5v46z" />
    <glyph glyph-name="quotedblleft" unicode="&#x201c;" horiz-adv-x="817" 
d="M385 1375q-46 -13 -85.5 -36t-69 -53.5t-46.5 -65.5t-17 -72q0 -22 9 -38.5t21 -16.5q13 0 21.5 5t17.5 11t20.5 11t30.5 5q20 0 37.5 -8.5t31 -23.5t21.5 -36t8 -45q0 -26 -11 -48t-29.5 -38t-43 -25.5t-52.5 -9.5q-37 0 -69 16.5t-56 45t-38 66t-14 80.5q0 68 25.5 125
t68 99.5t99.5 68t120 29.5v-46zM746 1375q-45 -13 -85 -36t-69 -53.5t-46 -65.5t-17 -72q0 -22 8.5 -38.5t21.5 -16.5t21.5 5t17 11t20 11t30.5 5q20 0 37.5 -8.5t31 -23.5t21.5 -36t8 -45q0 -26 -10.5 -48t-29 -38t-43.5 -25.5t-53 -9.5q-37 0 -69 16.5t-56 45t-38 66
t-14 80.5q0 68 25.5 125t68.5 99.5t99.5 68t119.5 29.5v-46z" />
    <glyph glyph-name="quotedblright" unicode="&#x201d;" horiz-adv-x="817" 
d="M72 937q45 13 85 36t70 53.5t47 65.5t17 72q0 22 -9 38.5t-23 16.5q-12 0 -20 -5t-17 -11t-20.5 -11t-30.5 -5q-20 0 -38 8.5t-31.5 24t-21.5 36t-8 44.5q0 26 10.5 48.5t29.5 38.5t43.5 25t53.5 9q37 0 69 -16.5t56 -45t37.5 -66t13.5 -80.5q0 -68 -25.5 -125t-68 -99.5
t-99.5 -68t-120 -29.5v46zM433 937q46 13 86 36t69.5 53.5t46.5 65.5t17 72q0 22 -8.5 38.5t-22.5 16.5q-12 0 -20 -5t-17 -11t-20.5 -11t-30.5 -5q-21 0 -39 8.5t-31.5 24t-21.5 36t-8 44.5q0 26 11 48.5t29.5 38.5t43.5 25t54 9q37 0 69 -16.5t55.5 -45t37 -66t13.5 -80.5
q0 -68 -25 -125t-68 -99.5t-100 -68t-120 -29.5v46z" />
    <glyph glyph-name="bullet" unicode="&#x2022;" horiz-adv-x="702" 
d="M72 485q0 58 22 108.5t60 88.5t89 60t109 22t108.5 -22t88.5 -60t60 -88.5t22 -108.5q0 -57 -22 -107.5t-60 -88t-88.5 -59t-108.5 -21.5t-109 21.5t-89 59t-60 88t-22 107.5z" />
    <glyph glyph-name="uni20B9.rupee" unicode="&#x20b9;" horiz-adv-x="1019" 
d="M774 -30l-138 -52l-554 568l58 96q66 1 140.5 15t140 44t113 77t61.5 114h-532l48 91h482q-15 55 -61.5 95.5t-110.5 67t-138 39.5t-144 13h-76l48 92h816l-37 -92h-326q68 -38 116.5 -91.5t62.5 -123.5h184l-37 -91h-145q-10 -71 -52 -130t-108.5 -103.5t-153.5 -73
t-187 -37.5z" />
    <glyph glyph-name="uni2219" unicode="&#x2219;" horiz-adv-x="492" 
d="M245 753q22 0 42 -8.5t34.5 -22.5t23 -33.5t8.5 -41.5t-8.5 -41t-23 -33.5t-34.5 -23t-42 -8.5q-23 0 -43 8.5t-35 23t-23.5 33.5t-8.5 41t8.5 41.5t23.5 33.5t35 22.5t43 8.5z" />
    <glyph glyph-name="uni25CC" unicode="&#x25cc;" horiz-adv-x="1268" 
d="M267 954q0 30 21 53t55 23q31 0 51.5 -23t20.5 -53q0 -36 -20.5 -55t-51.5 -19q-34 0 -55 19t-21 55zM113 736q0 36 20 55t54 19q28 0 50 -19t22 -55q0 -34 -22 -54t-50 -20q-34 0 -54 20t-20 54zM83 487q0 35 21 54.5t53 19.5t54 -19.5t22 -54.5q0 -30 -22 -51t-54 -21
t-53 21t-21 51zM187 259q0 34 21 54t51 20t52 -20t22 -54q0 -32 -22 -53t-52 -21t-51 21t-21 53zM383 111q0 34 21.5 53t56.5 19q28 0 48.5 -19t20.5 -53t-20.5 -54t-48.5 -20q-35 0 -56.5 20t-21.5 54zM636 81q0 30 20 52t52 22q35 0 54.5 -22t19.5 -52q0 -34 -19.5 -55
t-54.5 -21q-32 0 -52 21t-20 55zM873 183q0 34 19.5 55t51.5 21q36 0 55 -21t19 -55q0 -30 -19 -51t-55 -21q-32 0 -51.5 21t-19.5 51zM1014 376q0 35 22 54.5t52 19.5q32 0 53 -19.5t21 -54.5q0 -30 -21 -51.5t-53 -21.5q-30 0 -52 21.5t-22 51.5zM1036 641q0 35 20.5 54
t51.5 19q34 0 55 -19t21 -54t-21 -54.5t-55 -19.5q-31 0 -51.5 19.5t-20.5 54.5zM938 878q0 26 21 50t53 24q28 0 51 -24t23 -50q0 -36 -23 -57t-51 -21q-32 0 -53 21t-21 57zM750 1008q0 30 21 52t57 22q30 0 49 -22t19 -52q0 -32 -19 -53t-49 -21q-36 0 -57 21t-21 53z
M504 1036q0 32 19.5 53t54.5 21q32 0 52 -21t20 -53t-20 -54t-52 -22q-35 0 -54.5 22t-19.5 54z" />
    <glyph glyph-name="ori_ka.ssa" horiz-adv-x="1357" 
d="M260 768q0 91 32 160.5t88.5 116t133.5 70t167 23.5q79 0 149 -20t129.5 -50t107 -65t82.5 -65v179h104v-1117h-104v225q-24 -38 -65 -81t-93 -80t-112.5 -61t-124.5 -24q-66 0 -123 19.5t-99 57t-66 93t-24 127.5q0 33 5.5 63.5t16.5 56.5q-44 -16 -85.5 -35t-76 -40
t-60.5 -42.5t-38 -43.5q22 -3 41 -13t33 -24.5t22 -32t8 -36.5q0 -23 -8.5 -43.5t-23.5 -35.5t-35 -24t-43 -9t-44 8.5t-37 24t-25 37.5t-9 49q0 61 34.5 114.5t86.5 99t113.5 82t114.5 62.5q-37 18 -68.5 45.5t-54.5 62.5t-36 77t-13 89zM731 501q-41 -15 -78.5 -35
t-66 -46.5t-45 -60t-16.5 -76.5q0 -51 23.5 -83.5t58 -51.5t75 -26.5t75.5 -7.5q55 0 105.5 14.5t94.5 38.5t81 55t64 64l-592 685q-33 -13 -62.5 -32.5t-51.5 -46.5t-34.5 -61.5t-12.5 -76.5q0 -93 56 -146.5t160 -70.5q28 24 58.5 43.5t62.5 36.5zM1149 835
q-62 44 -117 76t-110.5 52.5t-114 30t-126.5 9.5q-32 0 -66 -6l534 -629v467z" />
    <glyph glyph-name="ori_ja.nya" horiz-adv-x="1164" 
d="M83 433q0 79 27.5 128.5t72.5 72.5q-46 51 -73 118t-27 155q0 68 24.5 130.5t58.5 105.5l73 -68q-11 -11 -23.5 -26t-23.5 -35t-18.5 -46t-7.5 -57q0 -69 30.5 -122.5t85.5 -90.5t130 -57t165 -22q73 3 144.5 17t128.5 42.5t92 71t35 102.5q0 29 -10.5 56.5t-30.5 48.5
t-50 33.5t-69 12.5q-23 0 -46.5 -8t-43 -24t-31.5 -40.5t-12 -57.5v-92h-83v120q0 46 -32 74t-80 28q-31 0 -52.5 -8.5t-35 -21t-19.5 -28t-6 -29.5q0 -33 14 -59.5t42 -51.5l-74 -56q-27 32 -46 76t-19 103q0 36 13.5 73.5t39 68t63 49.5t85.5 19q58 0 96.5 -29.5
t61.5 -82.5q31 59 78.5 85.5t113.5 26.5q49 0 88.5 -22t68 -60t44 -88.5t15.5 -106.5q0 -74 -25.5 -132t-68.5 -103q43 -27 68.5 -79.5t25.5 -124.5v-422h-104v409q0 25 -4.5 49.5t-14 44t-25.5 31.5t-39 12t-40 -12t-28 -31.5t-16 -44t-5 -49.5v-409h-93v214
q-48 -37 -112 -37q-50 0 -88 21.5t-64 58.5q-26 -37 -64 -58.5t-87 -21.5q-44 0 -80 19.5t-61 54t-38.5 81t-13.5 101.5zM166 424q0 -18 5.5 -43t18.5 -47t34 -37.5t52 -15.5q23 0 43 10.5t35 28t23.5 40.5t8.5 49q0 37 -9.5 65.5t-26.5 48.5q-20 7 -38 15.5t-36 19.5
q-47 0 -78.5 -32t-31.5 -102zM470 402q0 -25 8.5 -47t23 -38.5t34.5 -26t43 -9.5t43.5 9.5t35.5 26t23.5 38.5t8.5 47q0 26 -8.5 48t-22.5 39q-21 -3 -42.5 -4t-42.5 -1q-19 0 -37.5 1t-36.5 3q-14 -17 -22 -39t-8 -47z" />
    <glyph glyph-name="ori_reph" 
d="M-425 1467l373 150l43 -93l-268 -98l183 -211l-62 -56z" />
    <glyph glyph-name="ori_ka_phalaa" 
d="M-500 -237q0 109 51 168t142 59q51 0 87.5 -24t64.5 -72q25 47 62.5 71.5t88.5 24.5q48 0 85.5 -17t64 -48t40 -74.5t13.5 -95.5v-299h-104v268q0 28 -5.5 54t-16.5 45.5t-29.5 31t-43.5 11.5q-54 0 -78.5 -39.5t-24.5 -101.5v-269h-105v133q-20 -20 -48 -32t-60 -12
q-40 0 -73.5 15.5t-58 44t-38.5 69t-14 89.5zM-417 -238q0 -57 31.5 -85t77.5 -28q47 0 78.5 29t31.5 83q0 43 -27.5 74t-81.5 31q-51 0 -80.5 -30t-29.5 -74z" />
    <glyph glyph-name="ori_kha_phalaa" 
d="M193 -28v-590h-72v399q-42 -70 -110 -70q-25 0 -46.5 10.5t-37 28t-24 40t-8.5 47.5q0 23 8 47q-47 -1 -87 -14t-69.5 -35.5t-46 -52t-16.5 -63.5q0 -32 15 -61t43 -52q20 42 57.5 67.5t84.5 25.5q32 0 61 -13t50.5 -35t34 -52t12.5 -64t-12.5 -63.5t-34 -51.5t-50.5 -35
t-61 -13q-30 0 -57 11t-47.5 29.5t-34 44t-17.5 55.5q-49 35 -78 89.5t-29 118.5q0 54 21.5 102t59 83.5t89.5 56t112 20.5q19 0 44.5 -4t51.5 -12q-19 -25 -31 -50t-12 -42q0 -26 16.5 -45t52.5 -19q28 0 45.5 16.5t28.5 41.5t16 53t7 51h71zM-212 -465q0 -14 7.5 -28.5
t20.5 -27.5t30.5 -21t37.5 -8t37.5 8t30 21t20 27.5t7.5 28.5t-7.5 29t-20 28t-30 21t-37.5 8t-37.5 -8t-30.5 -21t-20.5 -28t-7.5 -29z" />
    <glyph glyph-name="ori_ga_phalaa" 
d="M218 -28h73v-590h-73v382q-10 26 -30 48t-47.5 38t-62.5 25t-74 9q-48 0 -88.5 -13t-70 -35.5t-46.5 -52.5t-17 -64q0 -67 58 -113q20 42 57.5 67.5t83.5 25.5q33 0 61.5 -13t50 -35t34 -52t12.5 -64t-12.5 -63.5t-34 -51.5t-50 -35t-61.5 -13q-30 0 -56.5 11t-47 29.5
t-34.5 44t-18 55.5q-48 35 -77 89.5t-29 118.5q0 54 21.5 102t59 83.5t89.5 56t112 20.5q66 0 121.5 -25t95.5 -67v82zM-114 -465q0 -27 27.5 -45.5t67.5 -18.5t68 18.5t28 45.5q0 28 -28 47t-68 19t-67.5 -19t-27.5 -47z" />
    <glyph glyph-name="ori_gha_phalaa" 
d="M216 -28h73v-590h-73v75q-22 -38 -53.5 -61.5t-64.5 -23.5q-31 0 -54.5 15t-37.5 38q-13 -21 -34 -37t-50 -16q-27 0 -47.5 12.5t-33.5 32.5t-19.5 44.5t-6.5 49.5v6q-42 35 -70 89t-28 114q0 54 21.5 102t59 83.5t89.5 56t112 20.5q66 0 121.5 -25t95.5 -67v82zM75 -439
q-13 -17 -18 -28t-5 -19q0 -23 16 -33t34 -10q21 0 39.5 10t33.5 26t25.5 35.5t15.5 38.5v183q-10 26 -30 48t-47.5 38t-62.5 25t-74 9q-48 0 -88.5 -13t-70 -35.5t-46.5 -52.5t-17 -64q0 -32 15.5 -61t42.5 -51q16 31 37 51t44 37l47 -56q-37 -23 -63 -53t-26 -63
q0 -26 13 -39t34 -13q17 0 36 13.5t30 30.5q2 19 9.5 40.5t25.5 48.5z" />
    <glyph glyph-name="ori_nga_phalaa" 
d="M138 -259q0 27 9.5 48.5t27.5 34.5q-30 29 -73.5 44.5t-98.5 15.5q-48 0 -88.5 -13t-70 -35.5t-46.5 -52.5t-17 -64q0 -26 11 -52.5t30 -46.5q15 42 47.5 71.5t75.5 43.5l23 -71q-22 -5 -39 -16.5t-29 -27t-18.5 -32.5t-6.5 -31q0 -18 8 -37t24 -34.5t39.5 -25.5
t53.5 -10q27 0 48 10.5t35.5 25.5t21.5 32t7 29q0 26 -20 40t-46 14l-20 -27l-58 38l115 172l55 -41l-45 -70q17 -8 32 -22.5t26 -31.5t17.5 -36.5t6.5 -38.5q0 -38 -12 -69.5t-34.5 -54t-55 -35.5t-72.5 -13q-37 0 -68 11t-55 30.5t-40 46t-22 58.5q-46 35 -72 87t-26 115
q0 54 21.5 102t59 83.5t89.5 56t112 20.5q39 0 76 -11t69.5 -30t59.5 -44.5t46 -53.5q32 -7 54.5 -34t22.5 -68q0 -45 -27.5 -74.5t-67.5 -29.5t-67.5 29.5t-27.5 74.5zM190 -259q0 -17 12.5 -29.5t30.5 -12.5t30.5 12.5t12.5 29.5t-12.5 29.5t-30.5 12.5t-30.5 -12.5
t-12.5 -29.5z" />
    <glyph glyph-name="ori_ca_phalaa" 
d="M167 -384q48 53 48 103q0 34 -16.5 64t-45.5 52.5t-67.5 35.5t-82.5 13t-82.5 -13t-67 -35.5t-45.5 -52.5t-17 -64q0 -32 15 -61t43 -52q20 42 57.5 67.5t84.5 25.5q32 0 61 -13t50.5 -35t34 -52t12.5 -64t-12.5 -63.5t-34 -51.5t-50.5 -35t-61 -13q-30 0 -56.5 11
t-47.5 29.5t-34.5 44t-17.5 55.5q-49 35 -77.5 89.5t-28.5 118.5q0 54 21 102t58 83.5t86 56t106 20.5t106.5 -20.5t86 -56t58 -83.5t21.5 -102q0 -42 -14 -82t-40 -76zM-105 -465q0 -14 7.5 -28.5t20.5 -27.5t30.5 -21t37.5 -8t37.5 8t30 21t20 27.5t7.5 28.5t-7.5 29
t-20 28t-30 21t-37.5 8t-37.5 -8t-30.5 -21t-20.5 -28t-7.5 -29z" />
    <glyph glyph-name="ori_cha_phalaa" 
d="M106 -315q26 20 41 42t15 43q0 24 -13 44.5t-35 35.5t-51.5 23.5t-62.5 8.5t-64 -8.5t-55 -23.5t-38.5 -35.5t-14.5 -44.5q0 -22 15.5 -40t34.5 -26q18 23 42.5 37t52.5 14q26 0 48.5 -11.5t39.5 -31t26.5 -45.5t9.5 -55v-13.5t-2 -13.5q29 0 50 -9t34 -24t19 -33.5
t6 -37.5q0 -22 -6 -42t-18.5 -35t-32 -24t-46.5 -9q-46 0 -75 16.5t-54 41.5q-23 -23 -53 -40.5t-74 -17.5q-27 0 -46.5 9t-32 24t-18.5 35t-6 42q0 24 7 44q-11 -1 -23 -2t-23 -3l12 76q11 -1 25 -1.5t25 -0.5h6q20 0 39 -0.5t40 -5.5q-1 4 -1 14.5v15.5q-37 23 -60 62
t-23 90q0 44 16 82.5t46 67t73.5 45t98.5 16.5q52 0 93.5 -16.5t70.5 -45t45 -67t16 -82.5q0 -42 -17.5 -80t-48.5 -69zM-99 -394q0 -37 20.5 -57.5t51.5 -20.5q29 0 50.5 23t21.5 55q0 15 -6 29t-15.5 24.5t-22.5 17t-28 6.5q-31 0 -51.5 -22t-20.5 -55zM-153 -472
q-8 0 -17 -1.5t-17 -5.5t-13.5 -11t-5.5 -18q0 -12 11.5 -25t42.5 -13q26 0 48.5 8t42.5 22q-18 18 -39.5 31t-52.5 13zM99 -546q32 0 42.5 12t10.5 24q0 10 -5.5 17.5t-13.5 12t-17.5 6.5t-16.5 2q-31 0 -52.5 -12.5t-39.5 -30.5q23 -13 46 -22t46 -9z" />
    <glyph glyph-name="ori_ja_phalaa" 
d="M104 -515h-104v417l-149 -95q23 -28 35.5 -59t12.5 -68q0 -36 -11.5 -73.5t-37.5 -68t-69 -50.5t-106 -20q-66 0 -110.5 23.5t-71.5 60.5t-39 83.5t-12 92.5q0 48 14.5 89.5t41 75t62.5 58t80 38.5l34 -106q-35 -8 -64.5 -20.5t-51 -31t-33.5 -44.5t-12 -60
q0 -30 10 -56.5t30 -46t50.5 -31t71.5 -11.5q79 0 116 32.5t37 81.5q0 50 -27.5 78t-81.5 45l322 194l63 -33v-495z" />
    <glyph glyph-name="ori_jha_phalaa" 
d="M280 -570l-50 -87l-119 80q-39 -27 -87 -27q-30 0 -56.5 11t-47.5 29.5t-34.5 44t-17.5 55.5q-49 35 -77.5 89.5t-28.5 118.5q0 55 18.5 99t50.5 75.5t75.5 48.5t93.5 17q34 0 70 -11t66 -36q-14 -13 -26 -29t-12 -30q0 -20 14 -35.5t48 -15.5q29 0 42.5 12.5t13.5 27.5
q0 9 -6.5 16t-16 13t-20 10.5t-19.5 7.5l58 81q32 -23 49.5 -56t17.5 -75q0 -16 -4.5 -39t-18 -44t-37 -36t-60.5 -15q-27 0 -49.5 9t-38.5 24.5t-25 36t-9 44.5q0 11 1.5 20.5t3.5 16.5q-9 4 -18.5 4.5t-23.5 0.5q-37 0 -69 -9.5t-56 -28t-37.5 -45t-13.5 -60.5
q0 -33 15 -61.5t43 -51.5q20 42 58 67.5t84 25.5q32 0 61 -13t50.5 -35t34 -52t12.5 -64q0 -42 -18 -75zM-72 -441q0 -14 7.5 -28.5t20.5 -27.5t30.5 -21t37.5 -8t37.5 8t30.5 21t20.5 27.5t7.5 28.5q0 13 -7.5 28.5t-20.5 28t-30.5 21t-37.5 8.5t-37.5 -8.5t-30.5 -21
t-20.5 -28t-7.5 -28.5z" />
    <glyph glyph-name="ori_tta_phalaa" 
d="M207 -28h73v-261h-73q0 37 -15.5 68.5t-42.5 55t-64.5 36.5t-81.5 13t-82.5 -13t-67 -35.5t-45.5 -52.5t-17 -64q0 -32 15 -61t43 -52q20 42 57.5 67.5t84.5 25.5q32 0 61 -13t50.5 -35t34 -52t12.5 -64t-12.5 -63.5t-34 -51.5t-50.5 -35t-61 -13q-30 0 -56.5 11
t-47.5 29.5t-34.5 44t-17.5 55.5q-49 35 -77.5 89.5t-28.5 118.5q0 54 21 102t58 83.5t86 56t106 20.5q65 0 117 -23t90 -67v80zM-105 -465q0 -14 7.5 -27t20.5 -24t30.5 -17.5t37.5 -6.5t37.5 6.5t30 17.5t20 24t7.5 27t-7.5 27.5t-20 24.5t-30 17.5t-37.5 6.5t-37.5 -6.5
t-30.5 -17.5t-20.5 -24.5t-7.5 -27.5z" />
    <glyph glyph-name="ori_ttha_phalaa" 
d="M-295 -313q0 63 23.5 118.5t64 97t94 65.5t113.5 24t113.5 -24t94 -66t64 -97.5t23.5 -118.5t-23.5 -118.5t-64 -96.5t-94 -65t-113.5 -24t-113.5 24t-94 65.5t-64 97t-23.5 118.5zM-233 -313q0 -43 18.5 -80.5t50 -65.5t74 -44t90.5 -16t90.5 16t74 44t50 65.5
t18.5 80.5t-18.5 80.5t-50 65.5t-74 44.5t-90.5 16.5t-90.5 -16.5t-74 -44.5t-50 -65.5t-18.5 -80.5z" />
    <glyph glyph-name="ori_dda_phalaa" 
d="M178 -382q23 26 35.5 52t12.5 51q0 34 -17 64t-47 52.5t-70.5 35.5t-88.5 13t-88.5 -13t-70 -35.5t-46.5 -52.5t-17 -64q0 -26 11 -52t30 -47q15 42 47.5 71.5t75.5 43.5l30 -93q-44 -9 -72 -32.5t-28 -52.5q0 -36 32 -61t93 -25q27 0 48 7t35.5 18.5t21.5 25t7 25.5
q0 26 -20 40t-47 14l-19 -27l-58 38l115 172l55 -41l-45 -69q17 -9 32 -23t26 -31.5t17.5 -37t6.5 -37.5q0 -38 -12 -69.5t-34.5 -54.5t-55 -36t-72.5 -13q-74 0 -123 41.5t-62 105.5q-46 35 -72 86.5t-26 114.5q0 54 21.5 102t59 83.5t89.5 56t112 20.5t112 -20.5t90 -56
t59.5 -83.5t21.5 -102q0 -42 -14.5 -82t-39.5 -76z" />
    <glyph glyph-name="ori_ddha_phalaa" 
d="M4 -379q-39 0 -81 23t-73 69q6 -75 45 -124.5t95.5 -79t121 -42t121.5 -12.5v-95q-104 0 -188 27.5t-143 78t-91.5 122t-32.5 159.5q0 55 13.5 105t41.5 87.5t69.5 60t97.5 22.5q42 0 76 -16.5t59 -45t38.5 -66.5t13.5 -81q0 -44 -15.5 -79.5t-41 -60.5t-58.5 -38.5
t-68 -13.5zM1 -256q50 0 82.5 18.5t32.5 54.5q0 22 -10.5 37.5t-27 25.5t-37 14.5t-41.5 4.5q-48 0 -80 -18.5t-49 -52.5q20 -47 57 -65.5t73 -18.5z" />
    <glyph glyph-name="ori_ra_phalaa" 
d="M-762 -165h710v165h104v-294h-814v129z" />
    <glyph glyph-name="ori_nna_phalaa" 
d="M-77 -156q0 -16 13 -34q23 0 44 -6t39 -14t31.5 -16t21.5 -13l-52 -74q-15 11 -42 19t-47 8q-63 0 -100.5 -28.5t-37.5 -81.5q0 -40 30 -70q12 31 30.5 54t41.5 38t47.5 22.5t48.5 7.5q30 0 57 -9.5t47.5 -27t32.5 -41.5t12 -53q0 -42 -17 -69.5t-43 -43.5t-57 -22
t-60 -6q-49 0 -91.5 15.5t-73.5 44t-48.5 69.5t-17.5 91q0 35 10.5 66.5t29 57.5t44.5 45t56 28q-4 12 -6.5 25t-2.5 24q0 60 38 94t101 34q45 0 91.5 -28.5t88.5 -87.5v106h71v-573h-71v341q-17 31 -36 57.5t-41.5 46t-50 30.5t-62.5 11q-32 0 -50.5 -9t-18.5 -28z
M-27 -520q17 0 36 3t34.5 8.5t26 13.5t10.5 19q0 9 -8 15.5t-21 11t-28.5 6.5t-31.5 2q-39 0 -68.5 -17.5t-43.5 -43.5q42 -18 94 -18z" />
    <glyph glyph-name="ori_da_phalaa" 
d="M167 -379q46 52 46 101q0 33 -16 62t-44 50.5t-65.5 34t-80.5 12.5q-42 0 -79.5 -11.5t-65.5 -32t-44.5 -48t-16.5 -59.5q0 -28 13 -48.5t34 -28.5q17 30 46.5 51.5t65.5 32.5l30 -90q-43 -9 -70 -25.5t-27 -40.5q0 -16 7 -26.5t18 -17t24.5 -9t26.5 -2.5q22 0 40.5 10
t32.5 26t23 35.5t14 38.5l46 27v-268h-62v79q-14 -15 -37 -28t-56 -13q-27 0 -51 10t-42 27t-29.5 41t-13.5 52q-43 21 -68.5 65.5t-25.5 105.5q0 51 20.5 95.5t56.5 77.5t84 52t103 19t103.5 -20t84.5 -54.5t56.5 -81t20.5 -99.5q0 -42 -14 -80.5t-39 -73.5z" />
    <glyph glyph-name="ori_dha_phalaa" 
d="M53 -307l-53 -42l-19 19q-24 14 -42 16.5t-29 2.5q-15 0 -36 -4t-40 -13.5t-32.5 -26t-13.5 -40.5t12.5 -45t34 -36.5t49.5 -24.5t58 -9q31 0 58.5 4.5t53.5 13.5t51.5 23t53.5 34v413h71v-573h-71v77q-18 -14 -42 -29.5t-52 -28.5t-59 -21t-64 -8q-47 0 -86 15.5
t-67.5 43t-44.5 66t-16 85.5q0 39 13.5 71t34.5 54.5t47.5 36.5t52.5 17l-132 144l54 53z" />
    <glyph glyph-name="ori_pa_phalaa" 
d="M-302 -217q0 48 16.5 84.5t45 61t68 37t85.5 12.5q34 0 65.5 -8.5t59.5 -21t51 -28t41 -29.5v77h71v-573h-71v90q-15 -18 -35.5 -36t-44 -32.5t-49.5 -23.5t-53 -9q-35 0 -64.5 10t-51 30.5t-34 50t-12.5 68.5q0 26 5.5 46.5t15.5 37.5q-46 16 -77.5 57t-31.5 99z
M-1 -342q-27 -8 -54 -17.5t-49 -23t-35.5 -30.5t-13.5 -40q0 -20 10 -33t25.5 -20.5t33.5 -10.5t34 -3q32 0 60.5 10t52 25.5t40.5 34t27 35.5v222q-28 20 -53.5 34t-51.5 23t-53.5 13t-58.5 4q-24 0 -51 -5.5t-49 -18t-36.5 -32.5t-14.5 -50q0 -37 24 -58.5t69 -29.5
q26 21 55.5 35t55.5 24z" />
    <glyph glyph-name="ori_pha_phalaa" 
d="M183 -87q22 0 43.5 -8.5t38 -24.5t26.5 -37.5t10 -47.5q0 -53 -29.5 -87.5t-74.5 -34.5q-17 0 -34.5 9.5t-26.5 23.5v-311h-70v90q-15 -18 -35.5 -36t-44 -32.5t-49.5 -23.5t-53 -9q-35 0 -64.5 10t-51.5 30.5t-34.5 50t-12.5 68.5q0 26 6 46.5t15 37.5q-45 16 -76.5 57
t-31.5 99q0 48 16 84.5t44.5 61t68 37t85.5 12.5q35 0 66.5 -8.5t59.5 -21t51 -28t41 -29.5v77h70v-67q11 5 23 8.5t24 3.5zM-66 -342q-27 -8 -53.5 -17.5t-48.5 -23t-35.5 -30.5t-13.5 -40q0 -20 10 -33t25.5 -20.5t33.5 -10.5t34 -3q32 0 60.5 10t52 25.5t40.5 34t27 35.5
v222q-56 40 -105.5 57t-112.5 17q-24 0 -50.5 -5.5t-49 -18t-37 -32.5t-14.5 -50q0 -37 24.5 -58.5t69.5 -29.5q26 21 55 35t55 24zM183 -256q19 0 38 13.5t19 37.5q0 22 -19 34.5t-38 12.5q-20 0 -33 -11.5t-14 -26.5v-14q1 -15 14 -30.5t33 -15.5z" />
    <glyph glyph-name="ori_ba_phalaa" 
d="M162 -389q22 25 34.5 51t12.5 50q0 33 -15.5 61.5t-42.5 50.5t-64 34.5t-80 12.5q-42 0 -79 -9.5t-64 -28t-42.5 -45t-15.5 -59.5q0 -31 12 -52t33 -35q13 50 49.5 83.5t89.5 33.5q32 0 58.5 -13t45.5 -34.5t29.5 -50.5t10.5 -62v-215h-61v81q-17 -11 -38.5 -18.5
t-44.5 -7.5q-51 0 -86.5 29t-49.5 74q-45 21 -77 67t-32 120q0 54 20 98t55 75.5t82 48.5t102 17t102.5 -20t82.5 -55t55 -81.5t20 -98.5q0 -42 -14 -80.5t-38 -73.5zM-93 -401q0 -27 22.5 -50t60.5 -23t60.5 23t22.5 50q0 13 -6 26t-16.5 23.5t-26 17t-34.5 6.5t-34.5 -6.5
t-26 -17t-16.5 -23.5t-6 -26z" />
    <glyph glyph-name="ori_bha_phalaa" 
d="M4 -123q-58 0 -102.5 -15t-75 -39t-46.5 -55t-16 -63q0 -25 10 -46t28 -41q14 47 47 76t75 50l26 -82q-44 -14 -69.5 -38t-25.5 -59q0 -38 31.5 -63.5t88.5 -25.5q37 0 62 10q-21 2 -38.5 11.5t-29.5 24.5t-18.5 33t-6.5 38q0 38 14 63.5t37 43.5l37 -37
q-20 -20 -24 -35.5t-4 -26.5q0 -16 14 -28t36 -12q17 0 30 12.5t13 30.5q0 20 -9.5 34t-29.5 27l64 42q26 -47 30.5 -82.5t4.5 -63.5q0 -26 -6 -51q23 13 41.5 33.5t31.5 44t20 48t7 45.5q0 34 -16.5 68.5t-48.5 63t-78 46.5t-104 18zM151 -491q-15 -56 -60 -92.5
t-114 -36.5q-67 0 -112.5 37t-62.5 92q-45 36 -71.5 86t-26.5 111q0 46 18.5 94t55.5 86.5t93.5 63t132.5 24.5q79 0 137 -25t96 -66t56.5 -93t18.5 -106q0 -48 -14 -100.5t-57 -102.5l96 -108l-67 -53z" />
    <glyph glyph-name="ori_ya_phalaa" horiz-adv-x="700" 
d="M187 785q0 -98 40.5 -155t114.5 -57q33 0 61 16.5t47.5 44t30.5 64.5t11 79v340h104v-1117h-104v573q-38 -47 -85.5 -62t-92.5 -15q-33 0 -73.5 13.5t-75.5 45.5t-58.5 85t-23.5 133v344h104v-332z" />
    <glyph glyph-name="ori_sha_phalaa" 
d="M213 -32h72v-573h-72v352q-24 66 -79.5 100t-129.5 34q-32 0 -60.5 -9t-30.5 -29q34 -3 68 -20.5t66 -52.5l-56 -51q-16 14 -42.5 25.5t-64.5 11.5q-18 0 -35 -5t-30.5 -14.5t-21.5 -24.5t-8 -34q0 -25 15.5 -43t36.5 -27q18 42 56 68.5t86 26.5q31 0 59 -12.5t49 -34.5
t33.5 -51t12.5 -62t-12.5 -62t-33.5 -50.5t-49 -34t-59 -12.5q-29 0 -54.5 10t-45 27.5t-33 41t-17.5 51.5q-45 19 -75 60t-30 105q0 30 10 56.5t27 47t39.5 35t47.5 21.5q-1 3 -1 7v7q0 56 42.5 90.5t110.5 34.5q66 0 119 -28t90 -74v92zM-110 -457q0 -26 27 -44.5
t66 -18.5q38 0 65.5 18.5t27.5 44.5q0 27 -27.5 45.5t-65.5 18.5q-39 0 -66 -18.5t-27 -45.5z" />
    <glyph glyph-name="ori_ssa_phalaa" 
d="M-366 -217q0 48 16 84.5t44.5 61t68 37t85.5 12.5q35 0 66.5 -8.5t59.5 -21t51 -28t41 -29.5v77h70v-573h-70v90q-15 -18 -35.5 -36t-44 -32.5t-49.5 -23.5t-53 -9q-35 0 -64.5 10t-51.5 30.5t-34.5 50t-12.5 68.5q0 26 6 46.5t15 37.5q-45 16 -76.5 57t-31.5 99z
M-112 -357q-21 -8 -40 -18t-33.5 -21.5t-23 -25.5t-8.5 -31q0 -20 10 -33t25.5 -20.5t33.5 -10.5t34 -3q46 0 85 20.5t65 47.5l-274 318q-28 -14 -46.5 -36t-18.5 -55q0 -74 93 -88q14 11 31 21.5t34 19.5zM66 -193q-56 40 -105.5 57t-112.5 17q-4 0 -4 -3l222 -257v186z
" />
    <glyph glyph-name="ori_sa_phalaa" 
d="M-386 -499l144 119q-54 17 -89 61t-35 107q0 47 16 82.5t44.5 59.5t68 36t85.5 12q35 0 66.5 -8.5t59.5 -21t51 -28t41 -29.5v77h70v-573h-62zM66 -193q-56 40 -105.5 57t-112.5 17q-24 0 -50.5 -6t-49 -18.5t-37 -32t-14.5 -46.5q0 -18 9.5 -34t26 -29.5t40 -23
t50.5 -14.5l83 69l44 -58l-156 -130q70 -17 135 -33.5t137 -33.5v316z" />
    <glyph glyph-name="ori_ha_phalaa" 
d="M167 -380q46 52 46 101q0 33 -16 62t-44 50.5t-65.5 34t-80.5 12.5q-42 0 -79.5 -11.5t-65.5 -32t-44.5 -48t-16.5 -59.5q0 -28 13 -48.5t34 -28.5q17 30 46.5 51.5t65.5 32.5l30 -90q-43 -9 -70 -27t-27 -43q0 -27 12.5 -36.5t24.5 -9.5t34.5 13t50 34t56.5 48t54 56
v-279h-62v126q-25 -27 -47 -40.5t-42 -21.5q-10 -6 -16.5 -10t-12.5 -7.5t-13 -7.5t-18 -11l230 -85l-69 -48l-312 116l109 70q-19 15 -27 35.5t-11 43.5q-43 21 -68.5 65.5t-25.5 105.5q0 51 20.5 95.5t56.5 77.5t84 52t103 19t103.5 -20t84.5 -54.5t56.5 -81t20.5 -99.5
q0 -42 -14 -80.5t-39 -73.5z" />
    <glyph glyph-name="ori_ka.ssa_phalaa" 
d="M-366 -218q0 48 16 84.5t44.5 61t68 37t85.5 12.5q35 0 66.5 -8.5t59.5 -21t51 -28t41 -29.5v77h70v-573h-70v90q-15 -18 -35.5 -36t-44 -32.5t-49.5 -23.5t-53 -9q-35 0 -64.5 10t-51.5 30.5t-34.5 50t-12.5 68.5q0 20 3 37q-26 -11 -49 -23.5t-36 -24.5q17 -8 28 -24
t11 -36q0 -29 -19.5 -49.5t-45.5 -20.5t-45.5 20t-19.5 53q0 29 14 55t36 48.5t48.5 40.5t51.5 32q-28 21 -46 55t-18 77zM-112 -358q-21 -8 -40 -18t-33.5 -21.5t-23 -25.5t-8.5 -31q0 -20 10 -33t25.5 -20.5t33.5 -10.5t34 -3q46 0 85 20.5t65 47.5l-274 318
q-28 -14 -46.5 -36t-18.5 -55q0 -74 93 -88q14 11 31 21.5t34 18.5zM66 -194q-56 40 -105.5 57t-112.5 17h-6q57 -67 110 -128.5t114 -131.5v186z" />
    <glyph glyph-name="ori_ta_phalaa" 
d="M-92 -222q0 -40 27 -66.5t65 -45.5q20 7 39 17t33.5 23.5t23 31t8.5 40.5q0 15 -7.5 30t-21 27t-33 19t-42.5 7q-15 0 -31.5 -5.5t-30 -16t-22 -26t-8.5 -35.5zM-142 -350h18.5t22.5 1q-32 26 -54 61.5t-22 80.5q0 31 12 61.5t35 53.5t55.5 37.5t74.5 14.5
q41 0 75.5 -13.5t59.5 -37t39 -56.5t14 -72q0 -55 -24 -98t-68 -72t-107.5 -44.5t-142.5 -15.5q-72 0 -144.5 14.5t-141.5 45.5t-132 79.5t-114 115.5l74 69q66 -75 130 -119.5t123 -68t114 -30.5t103 -7z" />
    <glyph glyph-name="ori_tha_phalaa" 
d="M-413 -388q-48 0 -83 15t-57.5 41t-33.5 60.5t-11 72.5q0 33 10.5 65t33.5 57t59.5 40.5t89.5 15.5q28 0 58 -10.5t61.5 -27.5t64 -39t65.5 -46q30 24 59 46t58.5 39.5t60.5 27.5t65 10q53 0 90.5 -15.5t61 -40.5t34.5 -57t11 -65q0 -38 -11 -72.5t-33.5 -60.5t-57.5 -41
t-83 -15q-47 0 -84 10.5t-68 27.5t-56 40t-48 47q-23 -24 -48 -47t-56 -40t-68 -27.5t-84 -10.5zM-409 -104q-15 0 -33 -3t-34.5 -11.5t-27.5 -22t-11 -34.5q0 -13 5.5 -26.5t18 -25t33.5 -19t52 -7.5q52 0 96.5 17.5t85.5 43.5q-36 37 -79.5 62.5t-105.5 25.5zM95 -253
q33 0 53.5 7t32.5 17.5t16 23.5t4 26q0 21 -11 35.5t-27.5 23t-34.5 12.5t-33 4q-61 0 -103.5 -24.5t-78.5 -59.5q46 -28 91 -46.5t91 -18.5z" />
    <glyph glyph-name="ori_na_phalaa" 
d="M147 10v-513h-104v383q-97 0 -171.5 -11.5t-125.5 -40.5t-77 -78.5t-26 -124.5q0 -36 5.5 -62.5t7.5 -31.5l-95 -34v11q0 5 0.5 12.5t0.5 18.5q0 111 27.5 198.5t85.5 148t149 92.5t217 32h106z" />
    <glyph glyph-name="ori_ma_phalaa" 
d="M-443 -344q0 64 38 142q-40 14 -83.5 24t-90.5 18l22 82q28 -5 60 -12q27 -6 62.5 -16t75.5 -24q61 76 162 108t238 32h116v-538h-104v438q-103 0 -183 -20.5t-134 -60.5q39 -20 74 -40.5t61.5 -45.5t42.5 -55t16 -69q0 -46 -17.5 -75.5t-44.5 -47t-59 -24t-62 -6.5
q-35 0 -69 10.5t-61 33t-43.5 58.5t-16.5 88zM-361 -343q0 -45 31 -70t77 -25q33 0 57.5 19.5t24.5 54.5q0 37 -41.5 66t-111.5 64q-10 -12 -23.5 -41.5t-13.5 -67.5z" />
    <glyph glyph-name="ori_la_phalaa" 
d="M-521 -217q0 52 18.5 89.5t48.5 62t68.5 36t78.5 11.5q47 0 86 -21.5t65 -60.5q26 39 65.5 60.5t86.5 21.5q40 0 78.5 -11.5t68.5 -36t48 -62t18 -89.5v-205h144v-81h-248v263q0 25 -8.5 46.5t-23.5 37.5t-35 24.5t-43 8.5q-46 0 -72.5 -31t-26.5 -81v-268h-104v263
q0 51 -26.5 84t-73.5 33q-23 0 -43 -8.5t-34.5 -24.5t-23 -37.5t-8.5 -46.5v-263h-104v286z" />
    <glyph glyph-name="ori_lla_phalaa" 
d="M-521 -217q0 52 18.5 89.5t48.5 62t68.5 36t78.5 11.5q47 0 86 -21.5t65 -60.5q26 39 65.5 60.5t86.5 21.5q40 0 78.5 -11.5t68.5 -36t48 -62t18 -89.5v-286h-104v263q0 25 -8.5 46.5t-23.5 37.5t-35 24.5t-43 8.5q-46 0 -72.5 -31t-26.5 -81v-268h-104v263
q0 51 -26.5 84t-73.5 33q-23 0 -43 -8.5t-34.5 -24.5t-23 -37.5t-8.5 -46.5v-263h-104v286z" />
    <glyph glyph-name="ori_va_phalaa" 
d="M-52 -295q-6 -15 -22 -42.5t-43 -54.5t-66.5 -46.5t-91.5 -19.5q-51 0 -94 19t-74 52t-48 78t-17 98q0 51 16 88.5t38 64.5t45.5 43.5t38.5 24.5l51 -62q-20 -11 -39 -24.5t-34 -30.5t-24 -38t-9 -46q0 -37 14.5 -62.5t36.5 -41.5t48.5 -23t50.5 -7q71 0 130 59.5
t93 170.5v105h104v-513h-104v208z" />
    <glyph glyph-name="ori_ta.ra_phalaa" 
d="M44 -46q-43 0 -75.5 -2t-59.5 -8t-50 -18.5t-46 -33.5q34 -14 50 -38t16 -55q0 -24 -10.5 -42t-26.5 -30.5t-35.5 -18.5t-37.5 -6t-38.5 5.5t-38.5 18t-29.5 33.5t-11.5 52q0 62 30.5 104.5t80 69t112 38t126.5 11.5h148v-556q-116 0 -205.5 6.5t-160 17.5t-124 26.5
t-96.5 33.5t-78 37t-68 39l39 75q39 -18 72 -34.5t67.5 -31t74 -27t92 -21.5t121.5 -14t162 -5v374z" />
    <glyph glyph-name="ori_ra_phalaa.short" 
d="M-612 -165h560v165h104v-294h-664v129z" />
    <glyph glyph-name="ori_ka.virama" horiz-adv-x="1306" 
d="M1046 437q39 44 61 96t22 110q0 74 -36 139.5t-99.5 114.5t-152 77.5t-193.5 28.5t-193.5 -26t-152.5 -72t-100 -109t-36 -138q0 -70 35 -124.5t86 -83.5q5 45 20 83t39.5 65.5t57.5 43t74 15.5q51 0 89 -23t63 -63q24 40 62 63t89 23q48 0 85.5 -20.5t63.5 -55
t39.5 -81.5t13.5 -99v-401h-104v373q0 28 -4 55t-15 48t-30 33.5t-49 12.5q-28 0 -47 -13t-30.5 -34.5t-16.5 -49.5t-5 -59v-366h-104v212q-16 -17 -42.5 -31.5t-58.5 -14.5t-59 11t-49 30t-39 45t-27 56q-42 22 -81.5 57t-70.5 80t-49.5 99t-18.5 116q0 102 41 189.5
t115 151.5t177 100.5t227 36.5t227 -39t177 -105.5t115 -156.5t41 -192q0 -77 -23.5 -147t-65.5 -129zM368 392q0 -57 31.5 -89.5t77.5 -32.5q47 0 79 33.5t32 88.5v5q-1 25 -8 47.5t-20.5 39.5t-34 27.5t-47.5 10.5q-51 0 -80.5 -36.5t-29.5 -93.5zM1245 -306l-82 -90
l-296 276l64 65z" />
    <glyph glyph-name="ori_kha.virama" horiz-adv-x="1290" 
d="M1186 1117v-1117h-104v861q-41 -100 -100.5 -152t-139.5 -52q-46 0 -84.5 18.5t-66.5 49.5t-44 71t-16 83q0 30 8 62t21 61q-7 0 -13.5 0.5t-14.5 0.5q-100 0 -185 -28.5t-147.5 -77.5t-98 -114.5t-35.5 -139.5q0 -80 39 -147.5t105 -115.5q16 42 43.5 77.5t63.5 61
t79 40t91 14.5q61 0 115 -23.5t94 -63.5t63 -94.5t23 -115.5q0 -62 -23 -116t-63 -94.5t-94 -63.5t-115 -23q-58 0 -109.5 21t-91 57.5t-64 86.5t-29.5 107q-48 33 -87 76t-66 93.5t-42 107t-15 117.5q0 102 41.5 192t114.5 156.5t172.5 105.5t215.5 39q35 0 73.5 -5.5
t71.5 -15.5q-27 -35 -44 -79t-17 -85q0 -33 9 -62.5t28.5 -51t49.5 -34.5t71 -13q62 0 101.5 33.5t63 83t34 106t14.5 102.5h104zM375 276q0 -34 16.5 -63.5t45 -51.5t67.5 -34.5t83 -12.5t82.5 12.5t67.5 34.5t45.5 51.5t16.5 63.5q0 33 -16.5 62.5t-45.5 51.5t-67.5 35
t-82.5 13t-83 -13t-67.5 -35t-45 -51.5t-16.5 -62.5zM1447 -306l-82 -90l-296 276l64 65z" />
    <glyph glyph-name="ori_ga.virama" horiz-adv-x="1290" 
d="M1082 1117h104v-1117h-104v739q-20 57 -61.5 105.5t-100.5 83.5t-132 55t-156 20q-100 0 -185 -28.5t-147.5 -77.5t-98 -114.5t-35.5 -139.5q0 -80 39 -147.5t105 -115.5q16 42 43.5 77.5t63.5 61t79 40t91 14.5q61 0 115 -23.5t94 -63.5t63 -94.5t23 -115.5
q0 -62 -23 -116t-63 -94.5t-94 -63.5t-115 -23q-58 0 -109.5 21t-91 57.5t-64 86.5t-29.5 107q-48 33 -87 76t-66 93.5t-42 107t-15 117.5q0 102 41.5 192t114.5 156.5t172.5 105.5t215.5 39q73 0 139.5 -15.5t124.5 -44t106.5 -69t84.5 -89.5v197zM375 276
q0 -34 16.5 -63.5t45 -51.5t67.5 -34.5t83 -12.5t82.5 12.5t67.5 34.5t45.5 51.5t16.5 63.5q0 33 -16.5 62.5t-45.5 51.5t-67.5 35t-82.5 13t-83 -13t-67.5 -35t-45 -51.5t-16.5 -62.5zM1448 -306l-82 -90l-296 276l64 65z" />
    <glyph glyph-name="ori_gha.virama" horiz-adv-x="1290" 
d="M1082 1117h104v-1117h-104v208q-19 -52 -46.5 -94t-61 -72t-72 -46.5t-78.5 -16.5q-70 0 -115 35.5t-65 92.5q-11 -24 -26.5 -47t-36.5 -41t-48 -29t-60 -11q-49 0 -85.5 22t-60.5 57.5t-35.5 80t-11.5 89.5v15.5t1 15.5q-45 33 -82 75.5t-62.5 92t-39.5 104.5t-14 114
q0 102 41.5 192t114.5 156.5t172.5 105.5t215.5 39q73 0 139.5 -15.5t124.5 -44t106.5 -69t84.5 -89.5v197zM681 374l63 -53q-18 -23 -25.5 -45.5t-7.5 -42.5q0 -30 10.5 -52.5t28 -37.5t39 -22t43.5 -7q46 0 87 22.5t73 57.5t55 78.5t35 85.5v381q-20 57 -61.5 105.5
t-100.5 83.5t-132 55t-156 20q-100 0 -185 -28.5t-147.5 -77.5t-98 -114.5t-35.5 -139.5q0 -79 39 -147t105 -116q26 61 69 105.5t86 74.5l56 -68q-33 -21 -61.5 -47t-50 -56t-34 -64.5t-12.5 -73.5q0 -65 31.5 -101t82.5 -36q20 0 41.5 9t41.5 24t38 35t30 42q2 35 14 73.5
t39 76.5zM1444 -306l-82 -90l-296 276l64 65z" />
    <glyph glyph-name="ori_nga.virama" horiz-adv-x="1366" 
d="M924 687q0 55 25.5 97.5t67.5 63.5q-62 70 -161.5 112.5t-223.5 42.5q-100 0 -185 -28.5t-147.5 -77.5t-98 -114.5t-35.5 -139.5q0 -71 31 -132.5t85 -109.5q21 85 80.5 148t141.5 91l41 -125q-41 -9 -75.5 -27.5t-60 -44.5t-39.5 -58t-14 -67q0 -42 17.5 -79t51.5 -65
t84.5 -44t116.5 -16q60 0 106 18t77 45.5t47 59.5t16 61q0 33 -12.5 59t-34 43.5t-49 27t-57.5 9.5h-12l-32 -50l-77 52l199 297l73 -54l-100 -152q43 -10 77.5 -33.5t58.5 -55.5t36.5 -70t12.5 -77q0 -69 -22.5 -127t-65 -99.5t-103 -65t-136.5 -23.5q-72 0 -132 21.5
t-105.5 59.5t-75 90t-38.5 112q-90 68 -142 167t-52 216q0 102 41.5 192t114.5 156.5t172.5 105.5t215.5 39q83 0 158 -20t138 -56.5t112.5 -87.5t82.5 -112q30 -5 56.5 -19.5t46 -37.5t30.5 -53t11 -65q0 -39 -13.5 -71t-36.5 -55.5t-54 -36.5t-66 -13t-66 13t-53.5 36.5
t-35.5 55.5t-13 71zM1007 687q0 -43 24.5 -68t60.5 -25t61 25t25 68q0 44 -25 69t-61 25t-60.5 -25t-24.5 -69zM1103 -306l-82 -90l-296 276l64 65z" />
    <glyph glyph-name="ori_ca.virama" horiz-adv-x="1234" 
d="M973 437q39 44 61.5 96t22.5 110q0 74 -35 139.5t-95.5 114.5t-141.5 77.5t-173 28.5t-173.5 -28.5t-142 -77.5t-95.5 -114.5t-35 -139.5q0 -80 39 -147.5t105 -115.5q16 42 43.5 77.5t63.5 61t79 40t91 14.5q61 0 115 -23.5t94 -63.5t63 -94.5t23 -115.5q0 -62 -23 -116
t-63 -94.5t-94 -63.5t-115 -23q-58 0 -109.5 21t-91 57.5t-64 86.5t-29.5 107q-48 33 -87 76t-66 93.5t-42 107t-15 117.5q0 102 41 192t112 156.5t166.5 105.5t203.5 39t203.5 -39t167 -105.5t112.5 -156.5t41 -192q0 -77 -23.5 -147t-65.5 -129zM375 276q0 -34 16.5 -63.5
t45 -51.5t67.5 -34.5t83 -12.5t82.5 12.5t67.5 34.5t45.5 51.5t16.5 63.5q0 33 -16.5 62.5t-45.5 51.5t-67.5 35t-82.5 13t-83 -13t-67.5 -35t-45 -51.5t-16.5 -62.5zM1085 -306l-82 -90l-296 276l64 65z" />
    <glyph glyph-name="ori_cha.virama" horiz-adv-x="1146" 
d="M864 573q44 35 69.5 79.5t25.5 95.5q0 52 -27 98.5t-73.5 81.5t-109.5 55t-134 20q-72 0 -138 -20t-116.5 -55t-80.5 -81.5t-30 -98.5q0 -29 11 -55.5t28.5 -48.5t40 -38.5t45.5 -25.5q31 48 79.5 76t105.5 28q47 0 88.5 -20.5t72 -55t48.5 -80t18 -96.5q0 -23 -4 -45.5
t-12 -43.5q15 3 33 3q53 0 90 -15.5t60.5 -40.5t34.5 -57t11 -65q0 -38 -11 -72t-33.5 -60t-57.5 -41.5t-83 -15.5q-47 0 -84 10t-68 27.5t-56.5 40t-48.5 46.5q-23 -24 -48 -46.5t-55 -40t-67.5 -27.5t-83.5 -10q-48 0 -83 15.5t-57.5 41.5t-33.5 60t-11 72q0 33 10.5 65
t33.5 58q-31 -1 -62 -4t-54 -5l13 85q21 -2 42 -2h42h12q50 0 97.5 -3t95.5 -19q-16 41 -16 88v16.5t2 17.5q-37 20 -68 49t-53.5 65.5t-35 79t-12.5 89.5q0 81 30.5 152t88 124t141 83.5t189.5 30.5q99 0 178 -30.5t134.5 -83.5t85 -124t29.5 -152q0 -75 -28.5 -142
t-80.5 -118zM416 419q0 -37 11 -66t30.5 -49t46 -30.5t56.5 -10.5t56 12.5t45.5 33.5t31 49.5t11.5 60.5q0 31 -11.5 59t-31 49t-45.5 33.5t-56 12.5t-56.5 -12t-46 -32.5t-30.5 -48.5t-11 -61zM308 263q-15 0 -33.5 -3t-34.5 -11t-27 -22t-11 -35q0 -13 5.5 -26.5t18 -25
t33.5 -19t52 -7.5q52 0 96 17.5t85 43.5q-36 37 -79.5 62.5t-104.5 25.5zM811 114q33 0 54 7t32.5 17.5t15.5 23.5t4 26q0 21 -11 35.5t-27 23t-34.5 12.5t-33.5 4q-61 0 -103.5 -24.5t-78.5 -60.5q46 -28 91.5 -46t90.5 -18zM1129 -306l-82 -90l-296 276l64 65z" />
    <glyph glyph-name="ori_ja.virama" horiz-adv-x="1282" 
d="M960 0h-104v545l-165 -119q27 -33 41.5 -81t14.5 -93q0 -42 -13.5 -90t-44 -88.5t-81 -67.5t-123.5 -27q-77 0 -130 31t-85 79.5t-46 107t-14 113.5v13q-60 65 -93.5 146.5t-33.5 175.5q0 102 41 192t115 156.5t177 105.5t227 39t227 -39t177 -105.5t115 -156.5t41 -192
q0 -77 -23.5 -147t-65.5 -129l-68 68q39 44 61 96t22 110q0 74 -36 139.5t-99.5 114.5t-152 77.5t-193.5 28.5t-193.5 -28.5t-152.5 -77.5t-100 -114.5t-36 -139.5q0 -55 18.5 -104.5t53.5 -91.5q29 69 82 119.5t122 73.5l41 -125q-41 -9 -76 -27.5t-60.5 -44.5t-39.5 -60
t-14 -74q0 -36 11.5 -70.5t35.5 -62.5t60 -45t85 -17q46 0 79.5 13.5t55.5 36t33 50.5t11 57q0 58 -32.5 103.5t-95.5 64.5l424 283v-722zM1223 -306l-82 -90l-296 276l64 65z" />
    <glyph glyph-name="ori_jha.virama" horiz-adv-x="1180" 
d="M1061 0l-68 -120l-232 156q-37 -27 -81 -42t-93 -15q-58 0 -109.5 21t-91 57.5t-64 86.5t-29.5 107q-48 33 -87 76t-66 93.5t-42 107t-15 117.5q0 102 35.5 185t97.5 142t145 91t179 32q63 0 125.5 -16.5t105.5 -50.5q-21 -19 -39 -48.5t-18 -65.5q0 -25 8 -49
t25.5 -42.5t45.5 -30t67 -11.5q34 0 59 9.5t41.5 25t24.5 35t8 39.5q0 25 -11 44t-26.5 33t-33.5 23t-32 13l77 106q52 -36 80.5 -92.5t28.5 -131.5q0 -29 -8.5 -69.5t-32 -78t-66.5 -64t-112 -26.5q-49 0 -89.5 15.5t-70 42t-46 62.5t-16.5 77q0 32 6 56.5t13 35.5
q-40 24 -114 24q-78 0 -146 -21.5t-119 -62.5t-80 -100t-29 -133q0 -80 39 -147.5t105 -115.5q16 42 43.5 77.5t63.5 61t79 40t91 14.5q61 0 115 -23.5t94 -63.5t63 -94.5t23 -115.5q0 -48 -13.5 -89.5t-37.5 -77.5zM375 276q0 -34 16.5 -63.5t45 -51.5t67.5 -34.5t83 -12.5
t82.5 12.5t67.5 34.5t45.5 51.5t16.5 63.5q0 33 -16.5 62.5t-45.5 51.5t-67.5 35t-82.5 13t-83 -13t-67.5 -35t-45 -51.5t-16.5 -62.5zM982 -306l-82 -90l-296 276l64 65z" />
    <glyph glyph-name="ori_nya.virama" horiz-adv-x="1164" 
d="M166 911q0 -71 32 -125.5t87 -91.5t128.5 -56t157.5 -19q65 0 136.5 12.5t131.5 40t99 72t39 108.5q0 29 -10.5 56.5t-30.5 48.5t-50 33.5t-69 12.5q-23 0 -46.5 -8t-43 -24t-31.5 -40.5t-12 -57.5v-92h-83v120q0 46 -32 74t-80 28q-31 0 -52.5 -8.5t-35 -21t-19.5 -28
t-6 -29.5q0 -33 14 -59.5t42 -51.5l-74 -56q-27 32 -46 76t-19 103q0 36 13.5 73.5t39 68t63 49.5t85.5 19q58 0 96.5 -29.5t61.5 -82.5q31 59 78.5 85.5t113.5 26.5q49 0 88.5 -22t68 -60t44 -88.5t15.5 -106.5q0 -83 -31.5 -146.5t-85.5 -110.5q55 -35 86 -100.5
t31 -146.5q0 -96 -42 -167t-111 -118t-156 -70t-177 -23q-95 0 -183.5 25.5t-156.5 78t-109.5 132t-41.5 187.5q0 68 26 132.5t63 112.5q-42 50 -65.5 114.5t-23.5 145.5q0 68 24.5 130.5t58.5 105.5l73 -68q-11 -11 -23.5 -26t-23.5 -35t-18.5 -46t-7.5 -57zM166 407
q0 -71 32 -126t87 -92t128.5 -56t157.5 -19q65 0 136.5 12.5t131.5 40.5t99 72.5t39 107.5q0 29 -10.5 56.5t-30.5 48.5t-50 33.5t-69 12.5q-23 0 -46.5 -7.5t-43 -23.5t-31.5 -40.5t-12 -58.5v-91h-83v119q0 23 -10 40t-26 27.5t-36.5 15.5t-41.5 5q-54 0 -82.5 -22.5
t-28.5 -49.5q0 -34 14 -60t42 -51l-74 -57q-27 33 -46 76.5t-19 102.5q0 60 33 111q-23 9 -43 20.5t-39 24.5q-12 -11 -25.5 -27.5t-25.5 -38.5t-19.5 -48.5t-7.5 -57.5zM958 -306l-82 -90l-296 276l64 65z" />
    <glyph glyph-name="ori_tta.virama" horiz-adv-x="1249" 
d="M1041 1117h104v-460h-104q0 75 -32.5 138t-90 109.5t-136 72.5t-170.5 26t-173.5 -28.5t-142 -77.5t-95.5 -114.5t-35 -139.5q0 -80 39 -147.5t105 -115.5q16 42 43.5 77.5t63.5 61t79 40t91 14.5q61 0 115 -23.5t94 -63.5t63 -94.5t23 -115.5q0 -62 -23 -116t-63 -94.5
t-94 -63.5t-115 -23q-58 0 -109.5 21t-91 57.5t-64 86.5t-29.5 107q-48 33 -87 76t-66 93.5t-42 107t-15 117.5q0 102 41 192t112 156.5t166.5 105.5t203.5 39q69 0 133 -15t119.5 -43.5t102 -68.5t80.5 -90v196zM375 276q0 -34 16.5 -63.5t45 -51.5t67.5 -34.5t83 -12.5
t82.5 12.5t67.5 34.5t45.5 51.5t16.5 63.5q0 33 -16.5 62.5t-45.5 51.5t-67.5 35t-82.5 13t-83 -13t-67.5 -35t-45 -51.5t-16.5 -62.5zM1154 -306l-82 -90l-296 276l64 65z" />
    <glyph glyph-name="ori_ttha.virama" horiz-adv-x="1327" 
d="M83 558q0 120 45.5 225.5t123.5 184.5t181.5 124.5t219.5 45.5t219.5 -46t181.5 -125t123.5 -185t45.5 -226t-45.5 -225t-123.5 -183t-181.5 -123.5t-219.5 -45.5t-219.5 45.5t-181.5 124.5t-123.5 184t-45.5 225zM166 558q0 -92 38.5 -173t104.5 -141t154.5 -95
t189.5 -35q100 0 189 35t155 95t104.5 141t38.5 173t-38.5 173t-104.5 141.5t-155 95.5t-189 35q-101 0 -189.5 -35t-154.5 -95.5t-104.5 -141.5t-38.5 -173zM1232 -306l-82 -90l-296 276l64 65z" />
    <glyph glyph-name="ori_dda.virama" horiz-adv-x="1276" 
d="M1015 437q39 44 61 96t22 110q0 74 -35.5 139.5t-97.5 114.5t-147.5 77.5t-185.5 28.5t-185 -28.5t-147.5 -77.5t-98 -114.5t-35.5 -139.5q0 -71 31 -132.5t85 -109.5q21 85 80.5 148t141.5 91l41 -125q-41 -9 -75.5 -27.5t-60 -44.5t-39.5 -58t-14 -67q0 -42 17.5 -79
t51.5 -65t84.5 -44t116.5 -16q60 0 106 18t77 45.5t47 59.5t16 61q0 33 -12.5 59t-34 43.5t-49 27t-57.5 9.5h-12l-32 -50l-77 52l199 297l73 -54l-100 -152q43 -10 77.5 -33.5t58.5 -55.5t36.5 -70t12.5 -77q0 -69 -22.5 -127t-65 -99.5t-103 -65t-136.5 -23.5
q-72 0 -132 21.5t-105.5 59.5t-75 90t-38.5 112q-90 68 -142 167t-52 216q0 102 41.5 192t114.5 156.5t172.5 105.5t215.5 39t216 -39t173 -105.5t114.5 -156.5t41.5 -192q0 -77 -23.5 -147t-65.5 -129zM1124 -306l-82 -90l-296 276l64 65z" />
    <glyph glyph-name="ori_ddha.virama" horiz-adv-x="1276" 
d="M1015 437q39 44 61 96t22 110q0 74 -35.5 139.5t-97.5 114.5t-147.5 77.5t-185.5 28.5t-185 -28.5t-147.5 -77.5t-98 -114.5t-35.5 -139.5q0 -75 33.5 -138.5t93.5 -112.5q15 75 59 135.5t108 95.5l54 -93q-32 -13 -59 -34.5t-46 -48.5t-29.5 -59.5t-10.5 -68.5
q0 -48 20.5 -90.5t54 -75t76.5 -52t89 -19.5q-46 32 -70.5 79.5t-24.5 101.5q0 34 11.5 70t35.5 65t61 47.5t88 18.5q48 0 84 -20.5t61 -52.5t37.5 -70.5t12.5 -75.5q0 -59 -24.5 -108t-65.5 -84t-94 -54.5t-111 -19.5q-63 0 -116.5 20.5t-94.5 57.5t-69 86.5t-38 108.5
q-48 33 -86.5 76t-65.5 93t-42 106.5t-15 117.5q0 102 41.5 192t114.5 156.5t172.5 105.5t215.5 39t216 -39t173 -105.5t114.5 -156.5t41.5 -192q0 -77 -23.5 -147t-65.5 -129zM597 227q0 -24 9 -44.5t24 -35.5t35.5 -24t43.5 -9q24 0 44.5 9t35.5 24t24 35.5t9 44.5
q0 23 -9 43.5t-24 35.5t-35.5 24t-44.5 9q-23 0 -43.5 -9t-35.5 -24t-24 -35.5t-9 -43.5zM1075 -306l-82 -90l-296 276l64 65z" />
    <glyph glyph-name="ori_nna.virama" horiz-adv-x="1217" 
d="M473 792q48 0 89.5 -9t73.5 -21.5t55 -25.5t35 -22l-75 -107q-14 10 -35.5 19t-46 16t-50 11t-47.5 4q-68 0 -124.5 -16.5t-97 -49t-62.5 -80.5t-22 -111q0 -58 25.5 -105.5t69.5 -83.5q19 67 55.5 116.5t82.5 82t97 48.5t100 16q57 0 108.5 -17t91.5 -48t63.5 -74.5
t23.5 -96.5q0 -78 -33 -128t-84 -79t-112 -40.5t-117 -11.5q-97 0 -180 29.5t-144 84t-95.5 132.5t-34.5 175q0 71 23 134.5t64.5 114t97.5 85.5t122 49q-17 29 -27 62t-10 62q0 55 19 98t54 72.5t84 45t108 15.5q103 0 202 -68.5t189 -215.5v263h104v-1117h-104v682
q-37 67 -77.5 125.5t-89 102t-108.5 68.5t-136 25q-75 0 -118.5 -28t-43.5 -82q0 -24 10 -51t27 -50zM558 114q38 0 80.5 8t78.5 23.5t59.5 38t23.5 52.5q0 26 -18 45.5t-47 32t-65.5 19t-73.5 6.5q-50 0 -92.5 -13.5t-76.5 -37.5t-57.5 -56.5t-33.5 -69.5
q49 -23 105.5 -35.5t116.5 -12.5zM1377 -306l-82 -90l-296 276l64 65z" />
    <glyph glyph-name="ori_ta.virama" horiz-adv-x="1276" 
d="M1015 437q39 44 61 96t22 110q0 74 -35.5 139.5t-97.5 114.5t-147.5 77.5t-185.5 28.5t-185 -28.5t-147.5 -77.5t-98 -114.5t-35.5 -139.5q0 -75 33.5 -138.5t93.5 -112.5q15 75 59 135.5t108 95.5l54 -93q-32 -13 -59 -34.5t-46 -48.5t-29.5 -59.5t-10.5 -68.5
q0 -48 20.5 -86t53.5 -64.5t74.5 -40.5t83.5 -14q40 0 79.5 12.5t71 36t50.5 57.5t19 77q0 21 -7 42.5t-21 39.5t-35.5 31t-50.5 16q15 -13 23 -27.5t8 -34.5q0 -32 -22 -54t-54 -22q-37 0 -61.5 23.5t-24.5 64.5q0 28 11.5 50t30.5 37.5t44.5 23.5t53.5 8q46 0 81 -20.5
t59 -53t36 -73.5t12 -82q0 -64 -22.5 -117t-62.5 -90.5t-95 -58.5t-120 -21q-63 0 -116 20.5t-93.5 57.5t-67 86.5t-36.5 108.5q-48 33 -86.5 76t-65.5 93t-41.5 106.5t-14.5 117.5q0 102 41.5 192t114.5 156.5t172.5 105.5t215.5 39t216 -39t173 -105.5t114.5 -156.5
t41.5 -192q0 -77 -23.5 -147t-65.5 -129zM1069 -306l-82 -90l-296 276l64 65z" />
    <glyph glyph-name="ori_tha.virama" horiz-adv-x="1217" 
d="M543 1138q85 0 144 -30.5t96 -75.5t53.5 -96.5t16.5 -92.5q0 -91 -29.5 -150.5t-77.5 -97.5t-110 -59t-126 -35t-126 -25t-110 -29t-77.5 -47.5t-29.5 -80.5t23.5 -89.5t63 -64t91 -38.5t106.5 -13q73 0 139 24.5t123.5 64t106 89.5t86.5 101t64 98.5t39 81.5v544h104
v-1117h-104v404q-25 -41 -55.5 -88t-68.5 -94t-85 -91t-103.5 -78t-124.5 -54t-149 -20q-52 0 -111.5 20t-110.5 61t-84.5 103.5t-33.5 146.5q0 81 29.5 133t78 85.5t110 52.5t126 33t126 27.5t110 36t78 58t29.5 94.5q0 42 -19 74.5t-50.5 54.5t-72.5 33t-85 11
q-41 0 -83.5 -10t-76.5 -29t-55.5 -47t-21.5 -64q0 -23 5.5 -43t14.5 -37t19.5 -31t19.5 -24l-77 -61q-24 32 -44 85.5t-20 122.5q0 49 22.5 97.5t64 87.5t100.5 63.5t132 24.5zM1374 -306l-82 -90l-296 276l64 65z" />
    <glyph glyph-name="ori_da.virama" horiz-adv-x="1165" 
d="M942 437q39 44 61 96t22 110q0 74 -30 139.5t-84.5 114.5t-130.5 77.5t-168 28.5t-173.5 -26t-142 -72.5t-95.5 -109.5t-35 -138q0 -36 10 -67t27 -56t40 -43t50 -27q27 64 82.5 107.5t128.5 68.5l41 -125q-41 -9 -75.5 -23.5t-60 -34.5t-39.5 -46t-14 -58
q0 -42 16.5 -69.5t42 -44.5t57.5 -24t62 -7q49 0 90 22t71.5 56t51 76t29.5 81l67 35v-478h-104v203q-6 -11 -20.5 -31.5t-39.5 -41t-60.5 -35.5t-83.5 -15q-54 0 -101 20.5t-82 56t-56 83t-24 101.5q-86 40 -137.5 123.5t-51.5 203.5q0 97 41 183t112 149.5t166.5 100.5
t203.5 37t199 -39t156 -105.5t101.5 -156.5t36.5 -192q0 -77 -23.5 -147t-65.5 -129zM1104 -306l-82 -90l-296 276l64 65z" />
    <glyph glyph-name="ori_dha.virama" horiz-adv-x="1179" 
d="M696 567l-69 -57l-32 34q-58 30 -96 35t-62 5q-33 0 -79.5 -9t-89 -32t-72.5 -62.5t-30 -99.5q0 -57 28 -105.5t75 -84.5t107.5 -56.5t126.5 -20.5q68 0 126.5 9.5t114 30t110.5 52.5t117 76v835h104v-1117h-104v179q-35 -30 -82.5 -65t-106.5 -65t-129 -50t-150 -20
q-90 0 -167 29.5t-133 82.5t-88 127.5t-32 163.5q0 80 30 143t76.5 106.5t103.5 66t111 22.5h14t16 -1l-301 324l75 74zM1337 -306l-82 -90l-296 276l64 65z" />
    <glyph glyph-name="ori_na.virama" horiz-adv-x="1171" 
d="M773 657h76v-657h-104v522q-88 0 -158.5 -21.5t-119.5 -62.5t-75 -100.5t-26 -135.5q0 -36 5 -77t12 -78l-120 -47v58q0 126 28 228q-44 23 -82 59.5t-66 83t-44 101.5t-16 115q0 102 41 192t112 156.5t166.5 105.5t203.5 39t200.5 -39t160 -105.5t105.5 -156.5t38 -192
q0 -77 -24 -147t-66 -129l-67 68q39 44 61 96t22 110q0 74 -32 139.5t-88.5 114.5t-134 77.5t-169.5 28.5t-173.5 -28.5t-142 -77.5t-95.5 -114.5t-35 -139.5q0 -44 14.5 -81.5t38 -68.5t54 -53.5t63.5 -35.5q62 122 172 187.5t265 65.5zM1110 -306l-82 -90l-296 276l64 65z
" />
    <glyph glyph-name="ori_pa.virama" horiz-adv-x="1180" 
d="M83 768q0 91 32 160.5t88.5 116t133.5 70t167 23.5q80 0 150 -20t129 -50t106.5 -65t82.5 -65v179h104v-1117h-104v225q-24 -38 -65 -81t-93 -80t-112.5 -61t-124.5 -24q-66 0 -123 19.5t-99 57t-66 93t-24 127.5q0 59 16.5 106.5t45.5 86.5q-50 11 -94.5 37.5t-77.5 65
t-52.5 88.5t-19.5 108zM604 657l48 -125q-54 -15 -108 -35t-97.5 -49t-71 -69.5t-27.5 -95.5q0 -51 23.5 -83.5t58 -51.5t75 -26.5t75.5 -7.5q69 0 131 22.5t113 58t89 77.5t59 81v482q-62 44 -117 76t-110.5 52.5t-114 30t-126.5 9.5q-53 0 -111.5 -13t-107 -42t-80.5 -77
t-32 -117q0 -93 56 -146.5t159 -70.5q49 43 107 71.5t109 48.5zM1338 -306l-82 -90l-296 276l64 65z" />
    <glyph glyph-name="ori_pha.virama" horiz-adv-x="1496" 
d="M1192 1003q41 0 77.5 -15.5t63.5 -41.5t43 -61.5t16 -75.5t-16 -75t-43 -61.5t-63.5 -41.5t-77.5 -15q-33 0 -62 9t-54 26v-651h-104v225q-24 -38 -65 -81t-93 -80t-112.5 -61t-124.5 -24q-66 0 -123 19.5t-99 57t-66 93t-24 127.5q0 59 16.5 106.5t45.5 86.5
q-50 11 -94.5 37.5t-77.5 65t-52.5 88.5t-19.5 108q0 91 32 160.5t88.5 116t133.5 70t167 23.5q80 0 150 -20t129 -50t106.5 -65t82.5 -65v179h104v-151q25 17 54 27t62 10zM604 657l48 -125q-54 -15 -108 -35t-97.5 -49t-71 -69.5t-27.5 -95.5q0 -51 23.5 -83.5t58 -51.5
t75 -26.5t75.5 -7.5q69 0 131 22.5t113 58t89 77.5t59 81v482q-62 44 -117 76t-110.5 52.5t-114 30t-126.5 9.5q-53 0 -111.5 -13t-107 -42t-80.5 -77t-32 -117q0 -93 56 -146.5t159 -70.5q49 43 107 71.5t109 48.5zM1192 699q24 0 45 8.5t37 23.5t25 35t9 43t-9 43t-25 35
t-37 23.5t-45 8.5t-45 -8t-36.5 -22.5t-24.5 -34t-10 -41.5v-9q1 -22 10 -41t24.5 -33.5t36.5 -22.5t45 -8zM1336 -306l-82 -90l-296 276l64 65z" />
    <glyph glyph-name="ori_ba.virama" horiz-adv-x="1173" 
d="M953 437q39 44 61 96t22 110q0 74 -33.5 139.5t-92 114.5t-138 77.5t-171.5 28.5t-171.5 -22t-138 -64t-92 -102.5t-33.5 -136.5q0 -79 36 -134.5t93 -84.5q7 53 29.5 98.5t57.5 79t81.5 52.5t102.5 19q61 0 111.5 -23.5t86.5 -63.5t56 -94.5t20 -115.5v-411h-104v186
q-29 -27 -70.5 -49.5t-99.5 -22.5q-50 0 -92.5 15.5t-76 43t-57.5 65.5t-36 83q-45 20 -85 52.5t-70.5 76.5t-48 101t-17.5 127q0 105 39.5 190t108.5 145t163 92.5t202 32.5t202 -39t163.5 -105.5t109 -156.5t39.5 -192q0 -77 -24 -147t-66 -129zM375 411q0 -34 13 -63.5
t38 -51t60.5 -34t79.5 -12.5t79.5 12.5t60 34t38 51t13.5 63.5q0 33 -13.5 62.5t-38 51.5t-60 35t-79.5 13t-79.5 -13t-60.5 -35t-38 -51.5t-13 -62.5zM1112 -306l-82 -90l-296 276l64 65z" />
    <glyph glyph-name="ori_bha.virama" horiz-adv-x="1441" 
d="M681 1003q-123 0 -219 -34t-162 -88.5t-100.5 -124t-34.5 -139.5q0 -69 30 -123.5t83 -99.5q9 49 30.5 89t51.5 72.5t66.5 58t76.5 46.5l37 -110q-87 -29 -136 -82.5t-49 -138.5q0 -46 18 -85.5t52 -68t83.5 -45t111.5 -16.5q95 0 154 30t88 80q-41 -28 -93 -28
q-44 0 -79.5 16t-60.5 42.5t-38.5 61t-13.5 71.5q0 68 22.5 111t59.5 75l55 -54q-33 -34 -43.5 -61t-10.5 -57q0 -21 9 -41.5t25 -36t38.5 -25t50.5 -9.5q43 0 72 20.5t35 62.5q-3 35 -16 71.5t-45 80.5l86 59q22 -39 34 -75t17.5 -69t6.5 -62.5t1 -55.5q0 -69 -24.5 -131
t-69.5 -109t-110 -74.5t-146 -27.5q-67 0 -124 19.5t-101 54t-74 81.5t-43 102q-92 70 -145.5 167.5t-53.5 215.5q0 60 16.5 122t49 119.5t82 108t116 88t150 59.5t184.5 22q105 0 191 -22.5t154 -61.5t118.5 -93t83.5 -116.5t49 -132t16 -140.5q0 -46 -8 -98t-26.5 -106
t-49 -108t-75.5 -104l193 -218l-96 -75l-216 339q45 25 81 67.5t61.5 92.5t39 103.5t13.5 100.5q0 76 -36 153.5t-104 140.5t-166 103t-223 40zM1175 -306l-82 -90l-296 276l64 65z" />
    <glyph glyph-name="ori_ma.virama" horiz-adv-x="1180" 
d="M656 564q-36 -11 -80.5 -35.5t-91.5 -56.5t-92.5 -68.5t-83.5 -71.5t-66 -65t-38 -49q22 -3 41 -13t33 -24.5t22 -32t8 -36.5q0 -23 -8.5 -43.5t-23.5 -35.5t-35 -24t-43 -9t-44 8.5t-37 24t-25 38t-9 49.5q0 43 23.5 92t61.5 99t87.5 98.5t100.5 91.5q-51 1 -100 21.5
t-87.5 56t-62 84t-23.5 105.5q0 91 32 160.5t88.5 116t133.5 70t167 23.5q80 0 150 -20t129 -50t106.5 -65t82.5 -65v179h104v-1117h-104v835q-70 40 -132 71.5t-122 53t-121 32.5t-129 11q-42 0 -93.5 -12.5t-96.5 -39t-75 -68.5t-30 -101q0 -46 21 -78.5t52.5 -52.5
t69 -29.5t70.5 -9.5q14 0 32 1t37 2.5t37 3.5t33 5q18 11 34 19.5t29 13.5zM1338 -306l-82 -90l-296 276l64 65z" />
    <glyph glyph-name="ori_ya.virama" horiz-adv-x="1332" 
d="M235 768q0 91 32 160.5t88.5 116t133.5 70t167 23.5q79 0 149 -20t129.5 -50t107 -65t82.5 -65v179h104v-1117h-104v225q-24 -38 -65 -81t-93 -80t-112.5 -61t-124.5 -24q-66 0 -123 19.5t-99 57t-66 93t-24 127.5q0 59 18 109q-39 -16 -76 -34t-68 -37t-53.5 -39
t-33.5 -40q22 -3 41 -13t33 -24.5t22 -32t8 -36.5q0 -23 -8.5 -43.5t-23.5 -35.5t-35 -24t-43 -9t-44 8.5t-37 24t-25 37.5t-9 49q0 39 15 76t41 70.5t59.5 63t71 56t76 48.5t73.5 39q-39 17 -73 44.5t-58.5 63t-38.5 78.5t-14 93zM756 657l48 -125q-54 -15 -108.5 -35
t-98 -49t-70.5 -69.5t-27 -95.5q0 -51 23.5 -83.5t58 -51.5t75 -26.5t75.5 -7.5q69 0 131 22.5t113 58t89 77.5t59 81v482q-62 44 -117 76t-110.5 52.5t-114 30t-126.5 9.5q-53 0 -111.5 -13t-107.5 -42t-81 -77t-32 -117q0 -93 56 -146.5t160 -70.5q49 43 106.5 71.5
t109.5 48.5zM1488 -306l-82 -90l-296 276l64 65z" />
    <glyph glyph-name="ori_ra.virama" horiz-adv-x="1338" 
d="M651 1138q104 0 187.5 -22.5t148 -61.5t111.5 -93t77 -116.5t44 -132t14 -140.5q0 -46 -7.5 -98t-26 -106t-49 -108t-76.5 -104l194 -218l-96 -75l-216 339q44 25 80 67.5t61.5 92.5t39 103.5t13.5 100.5q0 76 -31 153.5t-93.5 140.5t-156 103t-218.5 40q-98 0 -186 -29
t-154.5 -79.5t-105.5 -117.5t-39 -143q0 -77 38 -144t104 -118q15 44 42 81t63.5 63.5t80.5 41.5t93 15q61 0 115 -23.5t94 -63.5t63 -94.5t23 -115.5q0 -62 -23 -116t-63 -94.5t-94 -63.5t-115 -23q-55 0 -104.5 19t-88 52t-64.5 78.5t-35 98.5q-48 35 -87.5 79t-67 95
t-42.5 107.5t-15 117.5q0 106 42 199.5t117.5 163t179.5 109.5t229 40zM375 276q0 -34 16.5 -63.5t45 -51.5t67.5 -34.5t83 -12.5t82.5 12.5t67.5 34.5t45.5 51.5t16.5 63.5q0 33 -16.5 62.5t-45.5 51.5t-67.5 35t-82.5 13t-83 -13t-67.5 -35t-45 -51.5t-16.5 -62.5z
M1115 -306l-82 -90l-296 276l64 65z" />
    <glyph glyph-name="ori_la.virama" horiz-adv-x="1441" 
d="M984 0h-104v385q0 25 -7 49.5t-20 44t-31.5 31.5t-41.5 12t-41 -11.5t-30.5 -30t-19.5 -42t-7 -48.5v-390h-104v385q0 25 -7 49.5t-20 44t-32 31.5t-42 12t-41 -12t-31 -31.5t-19.5 -44t-6.5 -49.5v-385h-104v234q-94 70 -143 168t-49 217q0 60 17.5 122t51.5 119.5
t85.5 108t119.5 88t152.5 59.5t185.5 22q105 0 191 -22.5t154 -61.5t118 -93t83 -116.5t49 -132t16 -140.5q0 -46 -7.5 -98t-26 -106t-49 -108t-76.5 -104l194 -218l-96 -75l-216 339q44 25 80 67.5t61.5 92.5t39 103.5t13.5 100.5q0 76 -35.5 153.5t-103.5 140.5t-166 103
t-223 40q-124 0 -222 -34t-166.5 -88.5t-105 -124t-36.5 -139.5q0 -71 26.5 -127t83.5 -101v38q0 52 16.5 94.5t44.5 72.5t65 46.5t77 16.5q47 0 86 -21.5t65 -60.5q27 39 66.5 60.5t85.5 21.5q40 0 77 -16.5t65 -46.5t44.5 -72.5t16.5 -94.5v-427zM1244 -306l-82 -90
l-296 276l64 65z" />
    <glyph glyph-name="ori_lla.virama" horiz-adv-x="1307" 
d="M275 427q0 52 16.5 94.5t44.5 72.5t65 46.5t77 16.5q47 0 86 -21.5t65 -60.5q27 39 66.5 60.5t85.5 21.5q40 0 77 -16.5t65 -46.5t44.5 -72.5t16.5 -94.5v-427h-104v385q0 25 -7 49.5t-20 44t-31.5 31.5t-41.5 12t-41 -11.5t-30.5 -30t-19.5 -42t-7 -48.5v-390h-104v385
q0 25 -7 49.5t-20 44t-32 31.5t-42 12t-41 -12t-31 -31.5t-19.5 -44t-6.5 -49.5v-385h-104v263q-88 68 -140 166.5t-52 215.5q0 102 41 192t115 156.5t177 105.5t227 39t227 -39t177 -105.5t115 -156.5t41 -192q0 -77 -23.5 -147t-65.5 -129l-68 68q39 44 61 96t22 110
q0 74 -36 139.5t-99.5 114.5t-152 77.5t-193.5 28.5t-193.5 -28.5t-152.5 -77.5t-100 -114.5t-36 -139.5q0 -69 29 -128t80 -107v19zM1244 -306l-82 -90l-296 276l64 65z" />
    <glyph glyph-name="ori_va.virama" horiz-adv-x="1214" 
d="M497 410q0 29 20.5 49.5t49.5 20.5t49 -20.5t20 -49.5q0 -30 -20 -50.5t-49 -20.5t-49.5 20.5t-20.5 50.5zM953 437q39 44 61 96t22 110q0 74 -33.5 139.5t-92 114.5t-138 77.5t-171.5 28.5t-171.5 -22t-138 -64t-92 -102.5t-33.5 -136.5q0 -79 36 -134.5t93 -84.5
q7 53 29.5 98.5t57.5 79t81.5 52.5t102.5 19q61 0 111.5 -23.5t86.5 -63.5t56 -94.5t20 -115.5v-411h-104v186q-29 -27 -70.5 -49.5t-99.5 -22.5q-50 0 -92.5 15.5t-76 43t-57.5 65.5t-36 83q-45 20 -85 52.5t-70.5 76.5t-48 101t-17.5 127q0 105 39.5 190t108.5 145
t163 92.5t202 32.5t202 -39t163.5 -105.5t109 -156.5t39.5 -192q0 -77 -24 -147t-66 -129zM375 411q0 -34 13 -63.5t38 -51t60.5 -34t79.5 -12.5t79.5 12.5t60 34t38 51t13.5 63.5q0 33 -13.5 62.5t-38 51.5t-60 35t-79.5 13t-79.5 -13t-60.5 -35t-38 -51.5t-13 -62.5z
M1114 -306l-82 -90l-296 276l64 65z" />
    <glyph glyph-name="ori_sha.virama" horiz-adv-x="1290" 
d="M1082 1117h104v-1117h-104v700q-27 72 -71 128t-102.5 95t-128.5 59.5t-149 20.5q-39 0 -76.5 -7t-67 -21t-48 -36.5t-18.5 -53.5q0 -14 3 -26q73 -3 137 -30t120 -86l-79 -71q-16 13 -37 26t-48 23t-60 16.5t-73 6.5q-41 0 -80.5 -12.5t-70 -36.5t-49 -60t-18.5 -83
q0 -33 12.5 -61.5t33 -52t45.5 -41t51 -27.5q14 44 41 81.5t64 64.5t81 42t93 15q61 0 115 -23.5t94 -63.5t63 -94.5t23 -115.5q0 -62 -23 -116t-63 -94.5t-94 -63.5t-115 -23q-57 0 -108 20.5t-90 55.5t-64.5 83t-31.5 104q-42 17 -80.5 46t-67 68t-45.5 89t-17 109
q0 61 21 112.5t57 90.5t84 64t102 34q-9 27 -9 58q0 50 21.5 91.5t60 71t92 46t118.5 16.5q74 0 140.5 -18t124 -50t104.5 -77t83 -100v224zM375 276q0 -34 16.5 -63.5t45 -51.5t67.5 -34.5t83 -12.5t82.5 12.5t67.5 34.5t45.5 51.5t16.5 63.5q0 33 -16.5 62.5t-45.5 51.5
t-67.5 35t-82.5 13t-83 -13t-67.5 -35t-45 -51.5t-16.5 -62.5zM1447 -306l-82 -90l-296 276l64 65z" />
    <glyph glyph-name="ori_ssa.virama" horiz-adv-x="1180" 
d="M83 768q0 91 32 160.5t88.5 116t133.5 70t167 23.5q80 0 150 -20t129 -50t106.5 -65t82.5 -65v179h104v-1117h-104v225q-24 -38 -65 -81t-93 -80t-112.5 -61t-124.5 -24q-66 0 -123 19.5t-99 57t-66 93t-24 127.5q0 59 16.5 106.5t45.5 86.5q-50 11 -94.5 37.5t-77.5 65
t-52.5 88.5t-19.5 108zM554 501q-41 -15 -78.5 -35t-66 -46.5t-45 -60t-16.5 -76.5q0 -51 23.5 -83.5t58 -51.5t75 -26.5t75.5 -7.5q55 0 105.5 14.5t95 38.5t81 55t64.5 64l-593 685q-33 -13 -62.5 -32.5t-51 -46.5t-34 -61.5t-12.5 -76.5q0 -93 56 -146.5t159 -70.5
q28 24 59 43.5t63 36.5zM972 835q-62 44 -117 76t-110.5 52.5t-114 30t-126.5 9.5q-33 0 -66 -6l534 -629v467zM1338 -306l-82 -90l-296 276l64 65z" />
    <glyph glyph-name="ori_sa.virama" horiz-adv-x="1180" 
d="M83 206l291 244q-59 12 -111.5 40t-92.5 70.5t-63.5 97.5t-23.5 121q0 88 32 155t88.5 112.5t133.5 68.5t167 23q80 0 150 -20t129 -50t106.5 -65t82.5 -65v179h104v-1117h-104zM972 835q-62 44 -117 76t-110.5 52.5t-114 30t-126.5 9.5q-53 0 -111.5 -14t-107 -43
t-80.5 -75.5t-32 -110.5q0 -44 21 -84t58 -72t88.5 -54.5t113.5 -32.5l167 140l57 -78l-350 -290l644 -158v704zM1342 -306l-82 -90l-296 276l64 65z" />
    <glyph glyph-name="ori_ha.virama" horiz-adv-x="1234" 
d="M973 437q39 44 61.5 96t22.5 110q0 74 -35 139.5t-95.5 114.5t-141.5 77.5t-173 28.5t-173.5 -26t-142 -72.5t-95.5 -109.5t-35 -138q0 -36 10 -67t27 -56t40 -43t50 -27q27 64 82.5 107.5t128.5 68.5l41 -125q-41 -9 -75.5 -25t-60 -37.5t-39.5 -49t-14 -59.5
q0 -36 9.5 -60t24 -38.5t32 -20.5t32.5 -6q25 0 72 25t102 65.5t112 92t103 104.5v-486h-104v279q-57 -68 -108.5 -102t-95.5 -49l-179 -113l476 -173l-83 -59l-575 217l214 134q-58 25 -85 77t-31 110q-86 39 -137.5 122.5t-51.5 204.5q0 97 41 183t112 149.5t166.5 100.5
t203.5 37t203.5 -39t167 -105.5t112.5 -156.5t41 -192q0 -77 -23.5 -147t-65.5 -129zM876 -496l-82 -90l-296 276l64 65z" />
    <glyph glyph-name="ori_rra.virama" horiz-adv-x="1276" 
d="M1015 437q39 44 61 96t22 110q0 74 -35.5 139.5t-97.5 114.5t-147.5 77.5t-185.5 28.5t-185 -28.5t-147.5 -77.5t-98 -114.5t-35.5 -139.5q0 -71 31 -132.5t85 -109.5q21 85 80.5 148t141.5 91l41 -125q-41 -9 -75.5 -27.5t-60 -44.5t-39.5 -58t-14 -67q0 -42 17.5 -79
t51.5 -65t84.5 -44t116.5 -16q60 0 106 18t77 45.5t47 59.5t16 61q0 33 -12.5 59t-34 43.5t-49 27t-57.5 9.5h-12l-32 -50l-77 52l199 297l73 -54l-100 -152q43 -10 77.5 -33.5t58.5 -55.5t36.5 -70t12.5 -77q0 -69 -22.5 -127t-65 -99.5t-103 -65t-136.5 -23.5
q-72 0 -132 21.5t-105.5 59.5t-75 90t-38.5 112q-90 68 -142 167t-52 216q0 102 41.5 192t114.5 156.5t172.5 105.5t215.5 39t216 -39t173 -105.5t114.5 -156.5t41.5 -192q0 -77 -23.5 -147t-65.5 -129zM525 -318q0 21 8 39t21.5 31.5t31.5 21t38 7.5q42 0 71 -28.5
t29 -70.5t-29 -70.5t-71 -28.5q-20 0 -38 7.5t-31.5 21t-21.5 31.5t-8 39zM1204 -306l-82 -90l-296 276l64 65z" />
    <glyph glyph-name="ori_rha.virama" horiz-adv-x="1276" 
d="M1226 -306l-82 -90l-296 276l64 65zM1015 437q39 44 61 96t22 110q0 74 -35.5 139.5t-97.5 114.5t-147.5 77.5t-185.5 28.5t-185 -28.5t-147.5 -77.5t-98 -114.5t-35.5 -139.5q0 -75 33.5 -138.5t93.5 -112.5q15 75 59 135.5t108 95.5l54 -93q-32 -13 -59 -34.5
t-46 -48.5t-29.5 -59.5t-10.5 -68.5q0 -48 20.5 -90.5t54 -75t76.5 -52t89 -19.5q-46 32 -70.5 79.5t-24.5 101.5q0 34 11.5 70t35.5 65t61 47.5t88 18.5q48 0 84 -20.5t61 -52.5t37.5 -70.5t12.5 -75.5q0 -59 -24.5 -108t-65.5 -84t-94 -54.5t-111 -19.5q-63 0 -116.5 20.5
t-94.5 57.5t-69 86.5t-38 108.5q-48 33 -86.5 76t-65.5 93t-42 106.5t-15 117.5q0 102 41.5 192t114.5 156.5t172.5 105.5t215.5 39t216 -39t173 -105.5t114.5 -156.5t41.5 -192q0 -77 -23.5 -147t-65.5 -129zM597 227q0 -24 9 -44.5t24 -35.5t35.5 -24t43.5 -9q24 0 44.5 9
t35.5 24t24 35.5t9 44.5q0 23 -9 43.5t-24 35.5t-35.5 24t-44.5 9q-23 0 -43.5 -9t-35.5 -24t-24 -35.5t-9 -43.5zM508 -214q0 21 8 39t21.5 31.5t31.5 21t38 7.5q42 0 71 -28.5t29 -70.5t-29 -70.5t-71 -28.5q-20 0 -38 7.5t-31.5 21t-21.5 31.5t-8 39z" />
    <glyph glyph-name="ori_yya.virama" horiz-adv-x="1459" 
d="M698 -21q-61 0 -112.5 19.5t-89 57t-58.5 93t-21 127.5q0 59 18 109q-39 -16 -76 -34t-68 -37t-53.5 -39t-33.5 -40q22 -3 41 -13t33 -24.5t22 -32t8 -36.5q0 -23 -8.5 -43.5t-23.5 -35.5t-35 -24t-43 -9t-44 8.5t-37 24t-25 37.5t-9 49q0 39 15 76t41 70.5t59.5 63
t71 56t76 48.5t73.5 39q-39 17 -73 44.5t-58.5 63t-38.5 78.5t-14 93q0 91 32 160.5t88.5 116t133.5 70t167 23.5q79 0 149 -20t129.5 -50t107 -65t82.5 -65v179h104v-718q62 -19 94.5 -67.5t32.5 -114.5q0 -37 -16.5 -68t-41.5 -55.5t-54 -42t-54 -26.5l166 -113l-63 -64
l-252 211q28 5 67.5 19t76 35.5t62.5 51t26 65.5q0 45 -29 70.5t-74 25.5q-41 0 -72.5 -25.5t-61 -64.5t-60.5 -83.5t-70 -83.5t-89 -64.5t-118 -25.5zM1124 835q-62 44 -117 76t-110.5 52.5t-114 30t-126.5 9.5q-53 0 -111.5 -13t-107.5 -42t-81 -77t-32 -117
q0 -93 56 -146.5t160 -70.5q49 43 106.5 71.5t109.5 48.5l48 -125q-54 -15 -108.5 -35t-98 -49t-70.5 -69.5t-27 -95.5q0 -44 17.5 -76t44 -52.5t57.5 -30.5t58 -10q51 0 93 19t78.5 48.5t69 65t65 68t67 57t74.5 33.5v430zM1305 -306l-82 -90l-296 276l64 65z" />
    <glyph glyph-name="ori_wa.virama" horiz-adv-x="1127" 
d="M1023 324q0 -86 -36 -151t-96 -110v-465h-83v161q-32 -50 -80 -71.5t-99 -21.5q-39 0 -76 12t-66 36.5t-47 62.5t-18 89q0 44 8.5 78.5t20.5 60.5q-89 30 -157.5 87.5t-115.5 133.5t-71 165.5t-24 181.5q0 171 53.5 292.5t153.5 208.5l56 -71q-57 -45 -92.5 -95
t-55 -104.5t-26 -112.5t-6.5 -118q0 -99 31.5 -183t91 -145.5t144 -96t189.5 -34.5q47 0 102.5 10.5t103.5 35t80 64.5t32 100q0 49 -21 81t-55.5 50t-79 25t-90.5 7h-142v125h51q59 0 110 15t88.5 42.5t59 66.5t21.5 87q0 45 -20 78.5t-51 56t-68.5 34t-72.5 11.5
q-30 0 -62.5 -7.5t-59.5 -22.5t-44.5 -38.5t-17.5 -55.5q0 -25 7 -45.5t19 -37.5l-60 -43q-9 11 -18 28.5t-16 37.5t-11.5 40t-4.5 37q0 49 17.5 93t52 77t86 52.5t118.5 19.5q69 0 122.5 -23.5t90.5 -64.5t56.5 -95.5t19.5 -115.5q0 -41 -9.5 -82.5t-28 -77.5t-47 -63.5
t-66.5 -42.5q103 -26 155 -84.5t54 -164.5zM484 -115q0 -34 15.5 -57.5t39 -38.5t50 -21.5t49.5 -6.5q22 0 51.5 9.5t55.5 28t44.5 46.5t18.5 65v106q-89 -37 -187 -37q-60 0 -114 12q-9 -20 -16 -47t-7 -59zM1294 -479l-82 -90l-296 276l64 65z" />
    <glyph glyph-name="ori_ka.ssa.virama" horiz-adv-x="1357" 
d="M260 768q0 91 32 160.5t88.5 116t133.5 70t167 23.5q79 0 149 -20t129.5 -50t107 -65t82.5 -65v179h104v-1117h-104v225q-24 -38 -65 -81t-93 -80t-112.5 -61t-124.5 -24q-66 0 -123 19.5t-99 57t-66 93t-24 127.5q0 33 5.5 63.5t16.5 56.5q-44 -16 -85.5 -35t-76 -40
t-60.5 -42.5t-38 -43.5q22 -3 41 -13t33 -24.5t22 -32t8 -36.5q0 -23 -8.5 -43.5t-23.5 -35.5t-35 -24t-43 -9t-44 8.5t-37 24t-25 37.5t-9 49q0 61 34.5 114.5t86.5 99t113.5 82t114.5 62.5q-37 18 -68.5 45.5t-54.5 62.5t-36 77t-13 89zM731 501q-41 -15 -78.5 -35
t-66 -46.5t-45 -60t-16.5 -76.5q0 -51 23.5 -83.5t58 -51.5t75 -26.5t75.5 -7.5q55 0 105.5 14.5t94.5 38.5t81 55t64 64l-592 685q-33 -13 -62.5 -32.5t-51.5 -46.5t-34.5 -61.5t-12.5 -76.5q0 -93 56 -146.5t160 -70.5q28 24 58.5 43.5t62.5 36.5zM1149 835
q-62 44 -117 76t-110.5 52.5t-114 30t-126.5 9.5q-32 0 -66 -6l534 -629v467zM1516 -306l-82 -90l-296 276l64 65z" />
    <glyph glyph-name="ori_ja.nya.virama" horiz-adv-x="1164" 
d="M83 433q0 79 27.5 128.5t72.5 72.5q-46 51 -73 118t-27 155q0 68 24.5 130.5t58.5 105.5l73 -68q-11 -11 -23.5 -26t-23.5 -35t-18.5 -46t-7.5 -57q0 -69 30.5 -122.5t85.5 -90.5t130 -57t165 -22q73 3 144.5 17t128.5 42.5t92 71t35 102.5q0 29 -10.5 56.5t-30.5 48.5
t-50 33.5t-69 12.5q-23 0 -46.5 -8t-43 -24t-31.5 -40.5t-12 -57.5v-92h-83v120q0 46 -32 74t-80 28q-31 0 -52.5 -8.5t-35 -21t-19.5 -28t-6 -29.5q0 -33 14 -59.5t42 -51.5l-74 -56q-27 32 -46 76t-19 103q0 36 13.5 73.5t39 68t63 49.5t85.5 19q58 0 96.5 -29.5
t61.5 -82.5q31 59 78.5 85.5t113.5 26.5q49 0 88.5 -22t68 -60t44 -88.5t15.5 -106.5q0 -74 -25.5 -132t-68.5 -103q43 -27 68.5 -79.5t25.5 -124.5v-422h-104v409q0 25 -4.5 49.5t-14 44t-25.5 31.5t-39 12t-40 -12t-28 -31.5t-16 -44t-5 -49.5v-409h-93v214
q-48 -37 -112 -37q-50 0 -88 21.5t-64 58.5q-26 -37 -64 -58.5t-87 -21.5q-44 0 -80 19.5t-61 54t-38.5 81t-13.5 101.5zM166 424q0 -18 5.5 -43t18.5 -47t34 -37.5t52 -15.5q23 0 43 10.5t35 28t23.5 40.5t8.5 49q0 37 -9.5 65.5t-26.5 48.5q-20 7 -38 15.5t-36 19.5
q-47 0 -78.5 -32t-31.5 -102zM470 402q0 -25 8.5 -47t23 -38.5t34.5 -26t43 -9.5t43.5 9.5t35.5 26t23.5 38.5t8.5 47q0 26 -8.5 48t-22.5 39q-21 -3 -42.5 -4t-42.5 -1q-19 0 -37.5 1t-36.5 3q-14 -17 -22 -39t-8 -47zM1323 -306l-82 -90l-296 276l64 65z" />
    <glyph glyph-name="ori_ka.nukta" horiz-adv-x="1306" 
d="M1046 437q39 44 61 96t22 110q0 74 -36 139.5t-99.5 114.5t-152 77.5t-193.5 28.5t-193.5 -26t-152.5 -72t-100 -109t-36 -138q0 -70 35 -124.5t86 -83.5q5 45 20 83t39.5 65.5t57.5 43t74 15.5q51 0 89 -23t63 -63q24 40 62 63t89 23q48 0 85.5 -20.5t63.5 -55
t39.5 -81.5t13.5 -99v-401h-104v373q0 28 -4 55t-15 48t-30 33.5t-49 12.5q-28 0 -47 -13t-30.5 -34.5t-16.5 -49.5t-5 -59v-366h-104v212q-16 -17 -42.5 -31.5t-58.5 -14.5t-59 11t-49 30t-39 45t-27 56q-42 22 -81.5 57t-70.5 80t-49.5 99t-18.5 116q0 102 41 189.5
t115 151.5t177 100.5t227 36.5t227 -39t177 -105.5t115 -156.5t41 -192q0 -77 -23.5 -147t-65.5 -129zM368 392q0 -57 31.5 -89.5t77.5 -32.5q47 0 79 33.5t32 88.5v5q-1 25 -8 47.5t-20.5 39.5t-34 27.5t-47.5 10.5q-51 0 -80.5 -36.5t-29.5 -93.5zM749 -318q0 21 8 39
t21.5 31.5t31.5 21t38 7.5q42 0 71 -28.5t29 -70.5t-29 -70.5t-71 -28.5q-20 0 -38 7.5t-31.5 21t-21.5 31.5t-8 39z" />
    <glyph glyph-name="ori_kha.nukta" horiz-adv-x="1290" 
d="M1186 1117v-1117h-104v861q-41 -100 -100.5 -152t-139.5 -52q-46 0 -84.5 18.5t-66.5 49.5t-44 71t-16 83q0 30 8 62t21 61q-7 0 -13.5 0.5t-14.5 0.5q-100 0 -185 -28.5t-147.5 -77.5t-98 -114.5t-35.5 -139.5q0 -80 39 -147.5t105 -115.5q16 42 43.5 77.5t63.5 61
t79 40t91 14.5q61 0 115 -23.5t94 -63.5t63 -94.5t23 -115.5q0 -62 -23 -116t-63 -94.5t-94 -63.5t-115 -23q-58 0 -109.5 21t-91 57.5t-64 86.5t-29.5 107q-48 33 -87 76t-66 93.5t-42 107t-15 117.5q0 102 41.5 192t114.5 156.5t172.5 105.5t215.5 39q35 0 73.5 -5.5
t71.5 -15.5q-27 -35 -44 -79t-17 -85q0 -33 9 -62.5t28.5 -51t49.5 -34.5t71 -13q62 0 101.5 33.5t63 83t34 106t14.5 102.5h104zM375 276q0 -34 16.5 -63.5t45 -51.5t67.5 -34.5t83 -12.5t82.5 12.5t67.5 34.5t45.5 51.5t16.5 63.5q0 33 -16.5 62.5t-45.5 51.5t-67.5 35
t-82.5 13t-83 -13t-67.5 -35t-45 -51.5t-16.5 -62.5zM950 -318q0 21 8 39t21.5 31.5t31.5 21t38 7.5q42 0 71 -28.5t29 -70.5t-29 -70.5t-71 -28.5q-20 0 -38 7.5t-31.5 21t-21.5 31.5t-8 39z" />
    <glyph glyph-name="ori_ga.nukta" horiz-adv-x="1290" 
d="M1082 1117h104v-1117h-104v739q-20 57 -61.5 105.5t-100.5 83.5t-132 55t-156 20q-100 0 -185 -28.5t-147.5 -77.5t-98 -114.5t-35.5 -139.5q0 -80 39 -147.5t105 -115.5q16 42 43.5 77.5t63.5 61t79 40t91 14.5q61 0 115 -23.5t94 -63.5t63 -94.5t23 -115.5
q0 -62 -23 -116t-63 -94.5t-94 -63.5t-115 -23q-58 0 -109.5 21t-91 57.5t-64 86.5t-29.5 107q-48 33 -87 76t-66 93.5t-42 107t-15 117.5q0 102 41.5 192t114.5 156.5t172.5 105.5t215.5 39q73 0 139.5 -15.5t124.5 -44t106.5 -69t84.5 -89.5v197zM375 276
q0 -34 16.5 -63.5t45 -51.5t67.5 -34.5t83 -12.5t82.5 12.5t67.5 34.5t45.5 51.5t16.5 63.5q0 33 -16.5 62.5t-45.5 51.5t-67.5 35t-82.5 13t-83 -13t-67.5 -35t-45 -51.5t-16.5 -62.5zM951 -318q0 21 8 39t21.5 31.5t31.5 21t38 7.5q42 0 71 -28.5t29 -70.5t-29 -70.5
t-71 -28.5q-20 0 -38 7.5t-31.5 21t-21.5 31.5t-8 39z" />
    <glyph glyph-name="ori_gha.nukta" horiz-adv-x="1290" 
d="M1082 1117h104v-1117h-104v208q-19 -52 -46.5 -94t-61 -72t-72 -46.5t-78.5 -16.5q-70 0 -115 35.5t-65 92.5q-11 -24 -26.5 -47t-36.5 -41t-48 -29t-60 -11q-49 0 -85.5 22t-60.5 57.5t-35.5 80t-11.5 89.5v15.5t1 15.5q-45 33 -82 75.5t-62.5 92t-39.5 104.5t-14 114
q0 102 41.5 192t114.5 156.5t172.5 105.5t215.5 39q73 0 139.5 -15.5t124.5 -44t106.5 -69t84.5 -89.5v197zM681 374l63 -53q-18 -23 -25.5 -45.5t-7.5 -42.5q0 -30 10.5 -52.5t28 -37.5t39 -22t43.5 -7q46 0 87 22.5t73 57.5t55 78.5t35 85.5v381q-20 57 -61.5 105.5
t-100.5 83.5t-132 55t-156 20q-100 0 -185 -28.5t-147.5 -77.5t-98 -114.5t-35.5 -139.5q0 -79 39 -147t105 -116q26 61 69 105.5t86 74.5l56 -68q-33 -21 -61.5 -47t-50 -56t-34 -64.5t-12.5 -73.5q0 -65 31.5 -101t82.5 -36q20 0 41.5 9t41.5 24t38 35t30 42q2 35 14 73.5
t39 76.5zM948 -318q0 21 8 39t21.5 31.5t31.5 21t38 7.5q42 0 71 -28.5t29 -70.5t-29 -70.5t-71 -28.5q-20 0 -38 7.5t-31.5 21t-21.5 31.5t-8 39z" />
    <glyph glyph-name="ori_nga.nukta" horiz-adv-x="1366" 
d="M924 687q0 55 25.5 97.5t67.5 63.5q-62 70 -161.5 112.5t-223.5 42.5q-100 0 -185 -28.5t-147.5 -77.5t-98 -114.5t-35.5 -139.5q0 -71 31 -132.5t85 -109.5q21 85 80.5 148t141.5 91l41 -125q-41 -9 -75.5 -27.5t-60 -44.5t-39.5 -58t-14 -67q0 -42 17.5 -79t51.5 -65
t84.5 -44t116.5 -16q60 0 106 18t77 45.5t47 59.5t16 61q0 33 -12.5 59t-34 43.5t-49 27t-57.5 9.5h-12l-32 -50l-77 52l199 297l73 -54l-100 -152q43 -10 77.5 -33.5t58.5 -55.5t36.5 -70t12.5 -77q0 -69 -22.5 -127t-65 -99.5t-103 -65t-136.5 -23.5q-72 0 -132 21.5
t-105.5 59.5t-75 90t-38.5 112q-90 68 -142 167t-52 216q0 102 41.5 192t114.5 156.5t172.5 105.5t215.5 39q83 0 158 -20t138 -56.5t112.5 -87.5t82.5 -112q30 -5 56.5 -19.5t46 -37.5t30.5 -53t11 -65q0 -39 -13.5 -71t-36.5 -55.5t-54 -36.5t-66 -13t-66 13t-53.5 36.5
t-35.5 55.5t-13 71zM1007 687q0 -43 24.5 -68t60.5 -25t61 25t25 68q0 44 -25 69t-61 25t-60.5 -25t-24.5 -69zM607 -318q0 21 8 39t21.5 31.5t31.5 21t38 7.5q42 0 71 -28.5t29 -70.5t-29 -70.5t-71 -28.5q-20 0 -38 7.5t-31.5 21t-21.5 31.5t-8 39z" />
    <glyph glyph-name="ori_ca.nukta" horiz-adv-x="1234" 
d="M973 437q39 44 61.5 96t22.5 110q0 74 -35 139.5t-95.5 114.5t-141.5 77.5t-173 28.5t-173.5 -28.5t-142 -77.5t-95.5 -114.5t-35 -139.5q0 -80 39 -147.5t105 -115.5q16 42 43.5 77.5t63.5 61t79 40t91 14.5q61 0 115 -23.5t94 -63.5t63 -94.5t23 -115.5q0 -62 -23 -116
t-63 -94.5t-94 -63.5t-115 -23q-58 0 -109.5 21t-91 57.5t-64 86.5t-29.5 107q-48 33 -87 76t-66 93.5t-42 107t-15 117.5q0 102 41 192t112 156.5t166.5 105.5t203.5 39t203.5 -39t167 -105.5t112.5 -156.5t41 -192q0 -77 -23.5 -147t-65.5 -129zM375 276q0 -34 16.5 -63.5
t45 -51.5t67.5 -34.5t83 -12.5t82.5 12.5t67.5 34.5t45.5 51.5t16.5 63.5q0 33 -16.5 62.5t-45.5 51.5t-67.5 35t-82.5 13t-83 -13t-67.5 -35t-45 -51.5t-16.5 -62.5zM588 -318q0 21 8 39t21.5 31.5t31.5 21t38 7.5q42 0 71 -28.5t29 -70.5t-29 -70.5t-71 -28.5
q-20 0 -38 7.5t-31.5 21t-21.5 31.5t-8 39z" />
    <glyph glyph-name="ori_cha.nukta" horiz-adv-x="1146" 
d="M864 573q44 35 69.5 79.5t25.5 95.5q0 52 -27 98.5t-73.5 81.5t-109.5 55t-134 20q-72 0 -138 -20t-116.5 -55t-80.5 -81.5t-30 -98.5q0 -29 11 -55.5t28.5 -48.5t40 -38.5t45.5 -25.5q31 48 79.5 76t105.5 28q47 0 88.5 -20.5t72 -55t48.5 -80t18 -96.5q0 -23 -4 -45.5
t-12 -43.5q15 3 33 3q53 0 90 -15.5t60.5 -40.5t34.5 -57t11 -65q0 -38 -11 -72t-33.5 -60t-57.5 -41.5t-83 -15.5q-47 0 -84 10t-68 27.5t-56.5 40t-48.5 46.5q-23 -24 -48 -46.5t-55 -40t-67.5 -27.5t-83.5 -10q-48 0 -83 15.5t-57.5 41.5t-33.5 60t-11 72q0 33 10.5 65
t33.5 58q-31 -1 -62 -4t-54 -5l13 85q21 -2 42 -2h42h12q50 0 97.5 -3t95.5 -19q-16 41 -16 88v16.5t2 17.5q-37 20 -68 49t-53.5 65.5t-35 79t-12.5 89.5q0 81 30.5 152t88 124t141 83.5t189.5 30.5q99 0 178 -30.5t134.5 -83.5t85 -124t29.5 -152q0 -75 -28.5 -142
t-80.5 -118zM416 419q0 -37 11 -66t30.5 -49t46 -30.5t56.5 -10.5t56 12.5t45.5 33.5t31 49.5t11.5 60.5q0 31 -11.5 59t-31 49t-45.5 33.5t-56 12.5t-56.5 -12t-46 -32.5t-30.5 -48.5t-11 -61zM308 263q-15 0 -33.5 -3t-34.5 -11t-27 -22t-11 -35q0 -13 5.5 -26.5t18 -25
t33.5 -19t52 -7.5q52 0 96 17.5t85 43.5q-36 37 -79.5 62.5t-104.5 25.5zM811 114q33 0 54 7t32.5 17.5t15.5 23.5t4 26q0 21 -11 35.5t-27 23t-34.5 12.5t-33.5 4q-61 0 -103.5 -24.5t-78.5 -60.5q46 -28 91.5 -46t90.5 -18zM633 -318q0 21 8 39t21.5 31.5t31.5 21t38 7.5
q42 0 71 -28.5t29 -70.5t-29 -70.5t-71 -28.5q-20 0 -38 7.5t-31.5 21t-21.5 31.5t-8 39z" />
    <glyph glyph-name="ori_ja.nukta" horiz-adv-x="1282" 
d="M960 0h-104v545l-165 -119q27 -33 41.5 -81t14.5 -93q0 -42 -13.5 -90t-44 -88.5t-81 -67.5t-123.5 -27q-77 0 -130 31t-85 79.5t-46 107t-14 113.5v13q-60 65 -93.5 146.5t-33.5 175.5q0 102 41 192t115 156.5t177 105.5t227 39t227 -39t177 -105.5t115 -156.5t41 -192
q0 -77 -23.5 -147t-65.5 -129l-68 68q39 44 61 96t22 110q0 74 -36 139.5t-99.5 114.5t-152 77.5t-193.5 28.5t-193.5 -28.5t-152.5 -77.5t-100 -114.5t-36 -139.5q0 -55 18.5 -104.5t53.5 -91.5q29 69 82 119.5t122 73.5l41 -125q-41 -9 -76 -27.5t-60.5 -44.5t-39.5 -60
t-14 -74q0 -36 11.5 -70.5t35.5 -62.5t60 -45t85 -17q46 0 79.5 13.5t55.5 36t33 50.5t11 57q0 58 -32.5 103.5t-95.5 64.5l424 283v-722zM727 -318q0 21 8 39t21.5 31.5t31.5 21t38 7.5q42 0 71 -28.5t29 -70.5t-29 -70.5t-71 -28.5q-20 0 -38 7.5t-31.5 21t-21.5 31.5
t-8 39z" />
    <glyph glyph-name="ori_jha.nukta" horiz-adv-x="1180" 
d="M1061 0l-68 -120l-232 156q-37 -27 -81 -42t-93 -15q-58 0 -109.5 21t-91 57.5t-64 86.5t-29.5 107q-48 33 -87 76t-66 93.5t-42 107t-15 117.5q0 102 35.5 185t97.5 142t145 91t179 32q63 0 125.5 -16.5t105.5 -50.5q-21 -19 -39 -48.5t-18 -65.5q0 -25 8 -49
t25.5 -42.5t45.5 -30t67 -11.5q34 0 59 9.5t41.5 25t24.5 35t8 39.5q0 25 -11 44t-26.5 33t-33.5 23t-32 13l77 106q52 -36 80.5 -92.5t28.5 -131.5q0 -29 -8.5 -69.5t-32 -78t-66.5 -64t-112 -26.5q-49 0 -89.5 15.5t-70 42t-46 62.5t-16.5 77q0 32 6 56.5t13 35.5
q-40 24 -114 24q-78 0 -146 -21.5t-119 -62.5t-80 -100t-29 -133q0 -80 39 -147.5t105 -115.5q16 42 43.5 77.5t63.5 61t79 40t91 14.5q61 0 115 -23.5t94 -63.5t63 -94.5t23 -115.5q0 -48 -13.5 -89.5t-37.5 -77.5zM375 276q0 -34 16.5 -63.5t45 -51.5t67.5 -34.5t83 -12.5
t82.5 12.5t67.5 34.5t45.5 51.5t16.5 63.5q0 33 -16.5 62.5t-45.5 51.5t-67.5 35t-82.5 13t-83 -13t-67.5 -35t-45 -51.5t-16.5 -62.5zM485 -318q0 21 8 39t21.5 31.5t31.5 21t38 7.5q42 0 71 -28.5t29 -70.5t-29 -70.5t-71 -28.5q-20 0 -38 7.5t-31.5 21t-21.5 31.5t-8 39z
" />
    <glyph glyph-name="ori_nya.nukta" horiz-adv-x="1164" 
d="M166 911q0 -71 32 -125.5t87 -91.5t128.5 -56t157.5 -19q65 0 136.5 12.5t131.5 40t99 72t39 108.5q0 29 -10.5 56.5t-30.5 48.5t-50 33.5t-69 12.5q-23 0 -46.5 -8t-43 -24t-31.5 -40.5t-12 -57.5v-92h-83v120q0 46 -32 74t-80 28q-31 0 -52.5 -8.5t-35 -21t-19.5 -28
t-6 -29.5q0 -33 14 -59.5t42 -51.5l-74 -56q-27 32 -46 76t-19 103q0 36 13.5 73.5t39 68t63 49.5t85.5 19q58 0 96.5 -29.5t61.5 -82.5q31 59 78.5 85.5t113.5 26.5q49 0 88.5 -22t68 -60t44 -88.5t15.5 -106.5q0 -83 -31.5 -146.5t-85.5 -110.5q55 -35 86 -100.5
t31 -146.5q0 -96 -42 -167t-111 -118t-156 -70t-177 -23q-95 0 -183.5 25.5t-156.5 78t-109.5 132t-41.5 187.5q0 68 26 132.5t63 112.5q-42 50 -65.5 114.5t-23.5 145.5q0 68 24.5 130.5t58.5 105.5l73 -68q-11 -11 -23.5 -26t-23.5 -35t-18.5 -46t-7.5 -57zM166 407
q0 -71 32 -126t87 -92t128.5 -56t157.5 -19q65 0 136.5 12.5t131.5 40.5t99 72.5t39 107.5q0 29 -10.5 56.5t-30.5 48.5t-50 33.5t-69 12.5q-23 0 -46.5 -7.5t-43 -23.5t-31.5 -40.5t-12 -58.5v-91h-83v119q0 23 -10 40t-26 27.5t-36.5 15.5t-41.5 5q-54 0 -82.5 -22.5
t-28.5 -49.5q0 -34 14 -60t42 -51l-74 -57q-27 33 -46 76.5t-19 102.5q0 60 33 111q-23 9 -43 20.5t-39 24.5q-12 -11 -25.5 -27.5t-25.5 -38.5t-19.5 -48.5t-7.5 -57.5zM462 -318q0 21 8 39t21.5 31.5t31.5 21t38 7.5q42 0 71 -28.5t29 -70.5t-29 -70.5t-71 -28.5
q-20 0 -38 7.5t-31.5 21t-21.5 31.5t-8 39z" />
    <glyph glyph-name="ori_tta.nukta" horiz-adv-x="1249" 
d="M1041 1117h104v-460h-104q0 75 -32.5 138t-90 109.5t-136 72.5t-170.5 26t-173.5 -28.5t-142 -77.5t-95.5 -114.5t-35 -139.5q0 -80 39 -147.5t105 -115.5q16 42 43.5 77.5t63.5 61t79 40t91 14.5q61 0 115 -23.5t94 -63.5t63 -94.5t23 -115.5q0 -62 -23 -116t-63 -94.5
t-94 -63.5t-115 -23q-58 0 -109.5 21t-91 57.5t-64 86.5t-29.5 107q-48 33 -87 76t-66 93.5t-42 107t-15 117.5q0 102 41 192t112 156.5t166.5 105.5t203.5 39q69 0 133 -15t119.5 -43.5t102 -68.5t80.5 -90v196zM375 276q0 -34 16.5 -63.5t45 -51.5t67.5 -34.5t83 -12.5
t82.5 12.5t67.5 34.5t45.5 51.5t16.5 63.5q0 33 -16.5 62.5t-45.5 51.5t-67.5 35t-82.5 13t-83 -13t-67.5 -35t-45 -51.5t-16.5 -62.5zM658 -318q0 21 8 39t21.5 31.5t31.5 21t38 7.5q42 0 71 -28.5t29 -70.5t-29 -70.5t-71 -28.5q-20 0 -38 7.5t-31.5 21t-21.5 31.5t-8 39z
" />
    <glyph glyph-name="ori_ttha.nukta" horiz-adv-x="1327" 
d="M83 558q0 120 45.5 225.5t123.5 184.5t181.5 124.5t219.5 45.5t219.5 -46t181.5 -125t123.5 -185t45.5 -226t-45.5 -225t-123.5 -183t-181.5 -123.5t-219.5 -45.5t-219.5 45.5t-181.5 124.5t-123.5 184t-45.5 225zM166 558q0 -92 38.5 -173t104.5 -141t154.5 -95
t189.5 -35q100 0 189 35t155 95t104.5 141t38.5 173t-38.5 173t-104.5 141.5t-155 95.5t-189 35q-101 0 -189.5 -35t-154.5 -95.5t-104.5 -141.5t-38.5 -173zM736 -318q0 21 8 39t21.5 31.5t31.5 21t38 7.5q42 0 71 -28.5t29 -70.5t-29 -70.5t-71 -28.5q-20 0 -38 7.5
t-31.5 21t-21.5 31.5t-8 39z" />
    <glyph glyph-name="ori_nna.nukta" horiz-adv-x="1217" 
d="M473 792q48 0 89.5 -9t73.5 -21.5t55 -25.5t35 -22l-75 -107q-14 10 -35.5 19t-46 16t-50 11t-47.5 4q-68 0 -124.5 -16.5t-97 -49t-62.5 -80.5t-22 -111q0 -58 25.5 -105.5t69.5 -83.5q19 67 55.5 116.5t82.5 82t97 48.5t100 16q57 0 108.5 -17t91.5 -48t63.5 -74.5
t23.5 -96.5q0 -78 -33 -128t-84 -79t-112 -40.5t-117 -11.5q-97 0 -180 29.5t-144 84t-95.5 132.5t-34.5 175q0 71 23 134.5t64.5 114t97.5 85.5t122 49q-17 29 -27 62t-10 62q0 55 19 98t54 72.5t84 45t108 15.5q103 0 202 -68.5t189 -215.5v263h104v-1117h-104v682
q-37 67 -77.5 125.5t-89 102t-108.5 68.5t-136 25q-75 0 -118.5 -28t-43.5 -82q0 -24 10 -51t27 -50zM558 114q38 0 80.5 8t78.5 23.5t59.5 38t23.5 52.5q0 26 -18 45.5t-47 32t-65.5 19t-73.5 6.5q-50 0 -92.5 -13.5t-76.5 -37.5t-57.5 -56.5t-33.5 -69.5
q49 -23 105.5 -35.5t116.5 -12.5zM881 -318q0 21 8 39t21.5 31.5t31.5 21t38 7.5q42 0 71 -28.5t29 -70.5t-29 -70.5t-71 -28.5q-20 0 -38 7.5t-31.5 21t-21.5 31.5t-8 39z" />
    <glyph glyph-name="ori_ta.nukta" horiz-adv-x="1276" 
d="M1015 437q39 44 61 96t22 110q0 74 -35.5 139.5t-97.5 114.5t-147.5 77.5t-185.5 28.5t-185 -28.5t-147.5 -77.5t-98 -114.5t-35.5 -139.5q0 -75 33.5 -138.5t93.5 -112.5q15 75 59 135.5t108 95.5l54 -93q-32 -13 -59 -34.5t-46 -48.5t-29.5 -59.5t-10.5 -68.5
q0 -48 20.5 -86t53.5 -64.5t74.5 -40.5t83.5 -14q40 0 79.5 12.5t71 36t50.5 57.5t19 77q0 21 -7 42.5t-21 39.5t-35.5 31t-50.5 16q15 -13 23 -27.5t8 -34.5q0 -32 -22 -54t-54 -22q-37 0 -61.5 23.5t-24.5 64.5q0 28 11.5 50t30.5 37.5t44.5 23.5t53.5 8q46 0 81 -20.5
t59 -53t36 -73.5t12 -82q0 -64 -22.5 -117t-62.5 -90.5t-95 -58.5t-120 -21q-63 0 -116 20.5t-93.5 57.5t-67 86.5t-36.5 108.5q-48 33 -86.5 76t-65.5 93t-41.5 106.5t-14.5 117.5q0 102 41.5 192t114.5 156.5t172.5 105.5t215.5 39t216 -39t173 -105.5t114.5 -156.5
t41.5 -192q0 -77 -23.5 -147t-65.5 -129zM573 -318q0 21 8 39t21.5 31.5t31.5 21t38 7.5q42 0 71 -28.5t29 -70.5t-29 -70.5t-71 -28.5q-20 0 -38 7.5t-31.5 21t-21.5 31.5t-8 39z" />
    <glyph glyph-name="ori_tha.nukta" horiz-adv-x="1217" 
d="M543 1138q85 0 144 -30.5t96 -75.5t53.5 -96.5t16.5 -92.5q0 -91 -29.5 -150.5t-77.5 -97.5t-110 -59t-126 -35t-126 -25t-110 -29t-77.5 -47.5t-29.5 -80.5t23.5 -89.5t63 -64t91 -38.5t106.5 -13q73 0 139 24.5t123.5 64t106 89.5t86.5 101t64 98.5t39 81.5v544h104
v-1117h-104v404q-25 -41 -55.5 -88t-68.5 -94t-85 -91t-103.5 -78t-124.5 -54t-149 -20q-52 0 -111.5 20t-110.5 61t-84.5 103.5t-33.5 146.5q0 81 29.5 133t78 85.5t110 52.5t126 33t126 27.5t110 36t78 58t29.5 94.5q0 42 -19 74.5t-50.5 54.5t-72.5 33t-85 11
q-41 0 -83.5 -10t-76.5 -29t-55.5 -47t-21.5 -64q0 -23 5.5 -43t14.5 -37t19.5 -31t19.5 -24l-77 -61q-24 32 -44 85.5t-20 122.5q0 49 22.5 97.5t64 87.5t100.5 63.5t132 24.5zM878 -318q0 21 8 39t21.5 31.5t31.5 21t38 7.5q42 0 71 -28.5t29 -70.5t-29 -70.5t-71 -28.5
q-20 0 -38 7.5t-31.5 21t-21.5 31.5t-8 39z" />
    <glyph glyph-name="ori_da.nukta" horiz-adv-x="1165" 
d="M942 437q39 44 61 96t22 110q0 74 -30 139.5t-84.5 114.5t-130.5 77.5t-168 28.5t-173.5 -26t-142 -72.5t-95.5 -109.5t-35 -138q0 -36 10 -67t27 -56t40 -43t50 -27q27 64 82.5 107.5t128.5 68.5l41 -125q-41 -9 -75.5 -23.5t-60 -34.5t-39.5 -46t-14 -58
q0 -42 16.5 -69.5t42 -44.5t57.5 -24t62 -7q49 0 90 22t71.5 56t51 76t29.5 81l67 35v-478h-104v203q-6 -11 -20.5 -31.5t-39.5 -41t-60.5 -35.5t-83.5 -15q-54 0 -101 20.5t-82 56t-56 83t-24 101.5q-86 40 -137.5 123.5t-51.5 203.5q0 97 41 183t112 149.5t166.5 100.5
t203.5 37t199 -39t156 -105.5t101.5 -156.5t36.5 -192q0 -77 -23.5 -147t-65.5 -129zM608 -318q0 21 8 39t21.5 31.5t31.5 21t38 7.5q42 0 71 -28.5t29 -70.5t-29 -70.5t-71 -28.5q-20 0 -38 7.5t-31.5 21t-21.5 31.5t-8 39z" />
    <glyph glyph-name="ori_dha.nukta" horiz-adv-x="1179" 
d="M696 567l-69 -57l-32 34q-58 30 -96 35t-62 5q-33 0 -79.5 -9t-89 -32t-72.5 -62.5t-30 -99.5q0 -57 28 -105.5t75 -84.5t107.5 -56.5t126.5 -20.5q68 0 126.5 9.5t114 30t110.5 52.5t117 76v835h104v-1117h-104v179q-35 -30 -82.5 -65t-106.5 -65t-129 -50t-150 -20
q-90 0 -167 29.5t-133 82.5t-88 127.5t-32 163.5q0 80 30 143t76.5 106.5t103.5 66t111 22.5h14t16 -1l-301 324l75 74zM841 -318q0 21 8 39t21.5 31.5t31.5 21t38 7.5q42 0 71 -28.5t29 -70.5t-29 -70.5t-71 -28.5q-20 0 -38 7.5t-31.5 21t-21.5 31.5t-8 39z" />
    <glyph glyph-name="ori_na.nukta" horiz-adv-x="1171" 
d="M773 657h76v-657h-104v522q-88 0 -158.5 -21.5t-119.5 -62.5t-75 -100.5t-26 -135.5q0 -36 5 -77t12 -78l-120 -47v58q0 126 28 228q-44 23 -82 59.5t-66 83t-44 101.5t-16 115q0 102 41 192t112 156.5t166.5 105.5t203.5 39t200.5 -39t160 -105.5t105.5 -156.5t38 -192
q0 -77 -24 -147t-66 -129l-67 68q39 44 61 96t22 110q0 74 -32 139.5t-88.5 114.5t-134 77.5t-169.5 28.5t-173.5 -28.5t-142 -77.5t-95.5 -114.5t-35 -139.5q0 -44 14.5 -81.5t38 -68.5t54 -53.5t63.5 -35.5q62 122 172 187.5t265 65.5zM613 -318q0 21 8 39t21.5 31.5
t31.5 21t38 7.5q42 0 71 -28.5t29 -70.5t-29 -70.5t-71 -28.5q-20 0 -38 7.5t-31.5 21t-21.5 31.5t-8 39z" />
    <glyph glyph-name="ori_pa.nukta" horiz-adv-x="1180" 
d="M83 768q0 91 32 160.5t88.5 116t133.5 70t167 23.5q80 0 150 -20t129 -50t106.5 -65t82.5 -65v179h104v-1117h-104v225q-24 -38 -65 -81t-93 -80t-112.5 -61t-124.5 -24q-66 0 -123 19.5t-99 57t-66 93t-24 127.5q0 59 16.5 106.5t45.5 86.5q-50 11 -94.5 37.5t-77.5 65
t-52.5 88.5t-19.5 108zM604 657l48 -125q-54 -15 -108 -35t-97.5 -49t-71 -69.5t-27.5 -95.5q0 -51 23.5 -83.5t58 -51.5t75 -26.5t75.5 -7.5q69 0 131 22.5t113 58t89 77.5t59 81v482q-62 44 -117 76t-110.5 52.5t-114 30t-126.5 9.5q-53 0 -111.5 -13t-107 -42t-80.5 -77
t-32 -117q0 -93 56 -146.5t159 -70.5q49 43 107 71.5t109 48.5zM842 -318q0 21 8 39t21.5 31.5t31.5 21t38 7.5q42 0 71 -28.5t29 -70.5t-29 -70.5t-71 -28.5q-20 0 -38 7.5t-31.5 21t-21.5 31.5t-8 39z" />
    <glyph glyph-name="ori_pha.nukta" horiz-adv-x="1496" 
d="M1192 1003q41 0 77.5 -15.5t63.5 -41.5t43 -61.5t16 -75.5t-16 -75t-43 -61.5t-63.5 -41.5t-77.5 -15q-33 0 -62 9t-54 26v-651h-104v225q-24 -38 -65 -81t-93 -80t-112.5 -61t-124.5 -24q-66 0 -123 19.5t-99 57t-66 93t-24 127.5q0 59 16.5 106.5t45.5 86.5
q-50 11 -94.5 37.5t-77.5 65t-52.5 88.5t-19.5 108q0 91 32 160.5t88.5 116t133.5 70t167 23.5q80 0 150 -20t129 -50t106.5 -65t82.5 -65v179h104v-151q25 17 54 27t62 10zM604 657l48 -125q-54 -15 -108 -35t-97.5 -49t-71 -69.5t-27.5 -95.5q0 -51 23.5 -83.5t58 -51.5
t75 -26.5t75.5 -7.5q69 0 131 22.5t113 58t89 77.5t59 81v482q-62 44 -117 76t-110.5 52.5t-114 30t-126.5 9.5q-53 0 -111.5 -13t-107 -42t-80.5 -77t-32 -117q0 -93 56 -146.5t159 -70.5q49 43 107 71.5t109 48.5zM1192 699q24 0 45 8.5t37 23.5t25 35t9 43t-9 43t-25 35
t-37 23.5t-45 8.5t-45 -8t-36.5 -22.5t-24.5 -34t-10 -41.5v-9q1 -22 10 -41t24.5 -33.5t36.5 -22.5t45 -8zM840 -318q0 21 8 39t21.5 31.5t31.5 21t38 7.5q42 0 71 -28.5t29 -70.5t-29 -70.5t-71 -28.5q-20 0 -38 7.5t-31.5 21t-21.5 31.5t-8 39z" />
    <glyph glyph-name="ori_ba.nukta" horiz-adv-x="1173" 
d="M953 437q39 44 61 96t22 110q0 74 -33.5 139.5t-92 114.5t-138 77.5t-171.5 28.5t-171.5 -22t-138 -64t-92 -102.5t-33.5 -136.5q0 -79 36 -134.5t93 -84.5q7 53 29.5 98.5t57.5 79t81.5 52.5t102.5 19q61 0 111.5 -23.5t86.5 -63.5t56 -94.5t20 -115.5v-411h-104v186
q-29 -27 -70.5 -49.5t-99.5 -22.5q-50 0 -92.5 15.5t-76 43t-57.5 65.5t-36 83q-45 20 -85 52.5t-70.5 76.5t-48 101t-17.5 127q0 105 39.5 190t108.5 145t163 92.5t202 32.5t202 -39t163.5 -105.5t109 -156.5t39.5 -192q0 -77 -24 -147t-66 -129zM375 411q0 -34 13 -63.5
t38 -51t60.5 -34t79.5 -12.5t79.5 12.5t60 34t38 51t13.5 63.5q0 33 -13.5 62.5t-38 51.5t-60 35t-79.5 13t-79.5 -13t-60.5 -35t-38 -51.5t-13 -62.5zM615 -318q0 21 8 39t21.5 31.5t31.5 21t38 7.5q42 0 71 -28.5t29 -70.5t-29 -70.5t-71 -28.5q-20 0 -38 7.5t-31.5 21
t-21.5 31.5t-8 39z" />
    <glyph glyph-name="ori_bha.nukta" horiz-adv-x="1441" 
d="M681 1003q-123 0 -219 -34t-162 -88.5t-100.5 -124t-34.5 -139.5q0 -69 30 -123.5t83 -99.5q9 49 30.5 89t51.5 72.5t66.5 58t76.5 46.5l37 -110q-87 -29 -136 -82.5t-49 -138.5q0 -46 18 -85.5t52 -68t83.5 -45t111.5 -16.5q95 0 154 30t88 80q-41 -28 -93 -28
q-44 0 -79.5 16t-60.5 42.5t-38.5 61t-13.5 71.5q0 68 22.5 111t59.5 75l55 -54q-33 -34 -43.5 -61t-10.5 -57q0 -21 9 -41.5t25 -36t38.5 -25t50.5 -9.5q43 0 72 20.5t35 62.5q-3 35 -16 71.5t-45 80.5l86 59q22 -39 34 -75t17.5 -69t6.5 -62.5t1 -55.5q0 -69 -24.5 -131
t-69.5 -109t-110 -74.5t-146 -27.5q-67 0 -124 19.5t-101 54t-74 81.5t-43 102q-92 70 -145.5 167.5t-53.5 215.5q0 60 16.5 122t49 119.5t82 108t116 88t150 59.5t184.5 22q105 0 191 -22.5t154 -61.5t118.5 -93t83.5 -116.5t49 -132t16 -140.5q0 -46 -8 -98t-26.5 -106
t-49 -108t-75.5 -104l193 -218l-96 -75l-216 339q45 25 81 67.5t61.5 92.5t39 103.5t13.5 100.5q0 76 -36 153.5t-104 140.5t-166 103t-223 40zM679 -318q0 21 8 39t21.5 31.5t31.5 21t38 7.5q42 0 71 -28.5t29 -70.5t-29 -70.5t-71 -28.5q-20 0 -38 7.5t-31.5 21
t-21.5 31.5t-8 39z" />
    <glyph glyph-name="ori_ma.nukta" horiz-adv-x="1180" 
d="M656 564q-36 -11 -80.5 -35.5t-91.5 -56.5t-92.5 -68.5t-83.5 -71.5t-66 -65t-38 -49q22 -3 41 -13t33 -24.5t22 -32t8 -36.5q0 -23 -8.5 -43.5t-23.5 -35.5t-35 -24t-43 -9t-44 8.5t-37 24t-25 38t-9 49.5q0 43 23.5 92t61.5 99t87.5 98.5t100.5 91.5q-51 1 -100 21.5
t-87.5 56t-62 84t-23.5 105.5q0 91 32 160.5t88.5 116t133.5 70t167 23.5q80 0 150 -20t129 -50t106.5 -65t82.5 -65v179h104v-1117h-104v835q-70 40 -132 71.5t-122 53t-121 32.5t-129 11q-42 0 -93.5 -12.5t-96.5 -39t-75 -68.5t-30 -101q0 -46 21 -78.5t52.5 -52.5
t69 -29.5t70.5 -9.5q14 0 32 1t37 2.5t37 3.5t33 5q18 11 34 19.5t29 13.5zM842 -318q0 21 8 39t21.5 31.5t31.5 21t38 7.5q42 0 71 -28.5t29 -70.5t-29 -70.5t-71 -28.5q-20 0 -38 7.5t-31.5 21t-21.5 31.5t-8 39z" />
    <glyph glyph-name="ori_ya.nukta" horiz-adv-x="1332" 
d="M235 768q0 91 32 160.5t88.5 116t133.5 70t167 23.5q79 0 149 -20t129.5 -50t107 -65t82.5 -65v179h104v-1117h-104v225q-24 -38 -65 -81t-93 -80t-112.5 -61t-124.5 -24q-66 0 -123 19.5t-99 57t-66 93t-24 127.5q0 59 18 109q-39 -16 -76 -34t-68 -37t-53.5 -39
t-33.5 -40q22 -3 41 -13t33 -24.5t22 -32t8 -36.5q0 -23 -8.5 -43.5t-23.5 -35.5t-35 -24t-43 -9t-44 8.5t-37 24t-25 37.5t-9 49q0 39 15 76t41 70.5t59.5 63t71 56t76 48.5t73.5 39q-39 17 -73 44.5t-58.5 63t-38.5 78.5t-14 93zM756 657l48 -125q-54 -15 -108.5 -35
t-98 -49t-70.5 -69.5t-27 -95.5q0 -51 23.5 -83.5t58 -51.5t75 -26.5t75.5 -7.5q69 0 131 22.5t113 58t89 77.5t59 81v482q-62 44 -117 76t-110.5 52.5t-114 30t-126.5 9.5q-53 0 -111.5 -13t-107.5 -42t-81 -77t-32 -117q0 -93 56 -146.5t160 -70.5q49 43 106.5 71.5
t109.5 48.5zM992 -318q0 21 8 39t21.5 31.5t31.5 21t38 7.5q42 0 71 -28.5t29 -70.5t-29 -70.5t-71 -28.5q-20 0 -38 7.5t-31.5 21t-21.5 31.5t-8 39z" />
    <glyph glyph-name="ori_ra.nukta" horiz-adv-x="1338" 
d="M651 1138q104 0 187.5 -22.5t148 -61.5t111.5 -93t77 -116.5t44 -132t14 -140.5q0 -46 -7.5 -98t-26 -106t-49 -108t-76.5 -104l194 -218l-96 -75l-216 339q44 25 80 67.5t61.5 92.5t39 103.5t13.5 100.5q0 76 -31 153.5t-93.5 140.5t-156 103t-218.5 40q-98 0 -186 -29
t-154.5 -79.5t-105.5 -117.5t-39 -143q0 -77 38 -144t104 -118q15 44 42 81t63.5 63.5t80.5 41.5t93 15q61 0 115 -23.5t94 -63.5t63 -94.5t23 -115.5q0 -62 -23 -116t-63 -94.5t-94 -63.5t-115 -23q-55 0 -104.5 19t-88 52t-64.5 78.5t-35 98.5q-48 35 -87.5 79t-67 95
t-42.5 107.5t-15 117.5q0 106 42 199.5t117.5 163t179.5 109.5t229 40zM375 276q0 -34 16.5 -63.5t45 -51.5t67.5 -34.5t83 -12.5t82.5 12.5t67.5 34.5t45.5 51.5t16.5 63.5q0 33 -16.5 62.5t-45.5 51.5t-67.5 35t-82.5 13t-83 -13t-67.5 -35t-45 -51.5t-16.5 -62.5z
M619 -318q0 21 8 39t21.5 31.5t31.5 21t38 7.5q42 0 71 -28.5t29 -70.5t-29 -70.5t-71 -28.5q-20 0 -38 7.5t-31.5 21t-21.5 31.5t-8 39z" />
    <glyph glyph-name="ori_la.nukta" horiz-adv-x="1441" 
d="M984 0h-104v385q0 25 -7 49.5t-20 44t-31.5 31.5t-41.5 12t-41 -11.5t-30.5 -30t-19.5 -42t-7 -48.5v-390h-104v385q0 25 -7 49.5t-20 44t-32 31.5t-42 12t-41 -12t-31 -31.5t-19.5 -44t-6.5 -49.5v-385h-104v234q-94 70 -143 168t-49 217q0 60 17.5 122t51.5 119.5
t85.5 108t119.5 88t152.5 59.5t185.5 22q105 0 191 -22.5t154 -61.5t118 -93t83 -116.5t49 -132t16 -140.5q0 -46 -7.5 -98t-26 -106t-49 -108t-76.5 -104l194 -218l-96 -75l-216 339q44 25 80 67.5t61.5 92.5t39 103.5t13.5 100.5q0 76 -35.5 153.5t-103.5 140.5t-166 103
t-223 40q-124 0 -222 -34t-166.5 -88.5t-105 -124t-36.5 -139.5q0 -71 26.5 -127t83.5 -101v38q0 52 16.5 94.5t44.5 72.5t65 46.5t77 16.5q47 0 86 -21.5t65 -60.5q27 39 66.5 60.5t85.5 21.5q40 0 77 -16.5t65 -46.5t44.5 -72.5t16.5 -94.5v-427zM748 -318q0 21 8 39
t21.5 31.5t31.5 21t38 7.5q42 0 71 -28.5t29 -70.5t-29 -70.5t-71 -28.5q-20 0 -38 7.5t-31.5 21t-21.5 31.5t-8 39z" />
    <glyph glyph-name="ori_lla.nukta" horiz-adv-x="1307" 
d="M275 427q0 52 16.5 94.5t44.5 72.5t65 46.5t77 16.5q47 0 86 -21.5t65 -60.5q27 39 66.5 60.5t85.5 21.5q40 0 77 -16.5t65 -46.5t44.5 -72.5t16.5 -94.5v-427h-104v385q0 25 -7 49.5t-20 44t-31.5 31.5t-41.5 12t-41 -11.5t-30.5 -30t-19.5 -42t-7 -48.5v-390h-104v385
q0 25 -7 49.5t-20 44t-32 31.5t-42 12t-41 -12t-31 -31.5t-19.5 -44t-6.5 -49.5v-385h-104v263q-88 68 -140 166.5t-52 215.5q0 102 41 192t115 156.5t177 105.5t227 39t227 -39t177 -105.5t115 -156.5t41 -192q0 -77 -23.5 -147t-65.5 -129l-68 68q39 44 61 96t22 110
q0 74 -36 139.5t-99.5 114.5t-152 77.5t-193.5 28.5t-193.5 -28.5t-152.5 -77.5t-100 -114.5t-36 -139.5q0 -69 29 -128t80 -107v19zM748 -318q0 21 8 39t21.5 31.5t31.5 21t38 7.5q42 0 71 -28.5t29 -70.5t-29 -70.5t-71 -28.5q-20 0 -38 7.5t-31.5 21t-21.5 31.5t-8 39z
" />
    <glyph glyph-name="ori_va.nukta" horiz-adv-x="1214" 
d="M497 410q0 29 20.5 49.5t49.5 20.5t49 -20.5t20 -49.5q0 -30 -20 -50.5t-49 -20.5t-49.5 20.5t-20.5 50.5zM953 437q39 44 61 96t22 110q0 74 -33.5 139.5t-92 114.5t-138 77.5t-171.5 28.5t-171.5 -22t-138 -64t-92 -102.5t-33.5 -136.5q0 -79 36 -134.5t93 -84.5
q7 53 29.5 98.5t57.5 79t81.5 52.5t102.5 19q61 0 111.5 -23.5t86.5 -63.5t56 -94.5t20 -115.5v-411h-104v186q-29 -27 -70.5 -49.5t-99.5 -22.5q-50 0 -92.5 15.5t-76 43t-57.5 65.5t-36 83q-45 20 -85 52.5t-70.5 76.5t-48 101t-17.5 127q0 105 39.5 190t108.5 145
t163 92.5t202 32.5t202 -39t163.5 -105.5t109 -156.5t39.5 -192q0 -77 -24 -147t-66 -129zM375 411q0 -34 13 -63.5t38 -51t60.5 -34t79.5 -12.5t79.5 12.5t60 34t38 51t13.5 63.5q0 33 -13.5 62.5t-38 51.5t-60 35t-79.5 13t-79.5 -13t-60.5 -35t-38 -51.5t-13 -62.5z
M618 -318q0 21 8 39t21.5 31.5t31.5 21t38 7.5q42 0 71 -28.5t29 -70.5t-29 -70.5t-71 -28.5q-20 0 -38 7.5t-31.5 21t-21.5 31.5t-8 39z" />
    <glyph glyph-name="ori_sha.nukta" horiz-adv-x="1290" 
d="M1082 1117h104v-1117h-104v700q-27 72 -71 128t-102.5 95t-128.5 59.5t-149 20.5q-39 0 -76.5 -7t-67 -21t-48 -36.5t-18.5 -53.5q0 -14 3 -26q73 -3 137 -30t120 -86l-79 -71q-16 13 -37 26t-48 23t-60 16.5t-73 6.5q-41 0 -80.5 -12.5t-70 -36.5t-49 -60t-18.5 -83
q0 -33 12.5 -61.5t33 -52t45.5 -41t51 -27.5q14 44 41 81.5t64 64.5t81 42t93 15q61 0 115 -23.5t94 -63.5t63 -94.5t23 -115.5q0 -62 -23 -116t-63 -94.5t-94 -63.5t-115 -23q-57 0 -108 20.5t-90 55.5t-64.5 83t-31.5 104q-42 17 -80.5 46t-67 68t-45.5 89t-17 109
q0 61 21 112.5t57 90.5t84 64t102 34q-9 27 -9 58q0 50 21.5 91.5t60 71t92 46t118.5 16.5q74 0 140.5 -18t124 -50t104.5 -77t83 -100v224zM375 276q0 -34 16.5 -63.5t45 -51.5t67.5 -34.5t83 -12.5t82.5 12.5t67.5 34.5t45.5 51.5t16.5 63.5q0 33 -16.5 62.5t-45.5 51.5
t-67.5 35t-82.5 13t-83 -13t-67.5 -35t-45 -51.5t-16.5 -62.5zM950 -318q0 21 8 39t21.5 31.5t31.5 21t38 7.5q42 0 71 -28.5t29 -70.5t-29 -70.5t-71 -28.5q-20 0 -38 7.5t-31.5 21t-21.5 31.5t-8 39z" />
    <glyph glyph-name="ori_ssa.nukta" horiz-adv-x="1180" 
d="M83 768q0 91 32 160.5t88.5 116t133.5 70t167 23.5q80 0 150 -20t129 -50t106.5 -65t82.5 -65v179h104v-1117h-104v225q-24 -38 -65 -81t-93 -80t-112.5 -61t-124.5 -24q-66 0 -123 19.5t-99 57t-66 93t-24 127.5q0 59 16.5 106.5t45.5 86.5q-50 11 -94.5 37.5t-77.5 65
t-52.5 88.5t-19.5 108zM554 501q-41 -15 -78.5 -35t-66 -46.5t-45 -60t-16.5 -76.5q0 -51 23.5 -83.5t58 -51.5t75 -26.5t75.5 -7.5q55 0 105.5 14.5t95 38.5t81 55t64.5 64l-593 685q-33 -13 -62.5 -32.5t-51 -46.5t-34 -61.5t-12.5 -76.5q0 -93 56 -146.5t159 -70.5
q28 24 59 43.5t63 36.5zM972 835q-62 44 -117 76t-110.5 52.5t-114 30t-126.5 9.5q-33 0 -66 -6l534 -629v467zM842 -318q0 21 8 39t21.5 31.5t31.5 21t38 7.5q42 0 71 -28.5t29 -70.5t-29 -70.5t-71 -28.5q-20 0 -38 7.5t-31.5 21t-21.5 31.5t-8 39z" />
    <glyph glyph-name="ori_sa.nukta" horiz-adv-x="1180" 
d="M83 206l291 244q-59 12 -111.5 40t-92.5 70.5t-63.5 97.5t-23.5 121q0 88 32 155t88.5 112.5t133.5 68.5t167 23q80 0 150 -20t129 -50t106.5 -65t82.5 -65v179h104v-1117h-104zM972 835q-62 44 -117 76t-110.5 52.5t-114 30t-126.5 9.5q-53 0 -111.5 -14t-107 -43
t-80.5 -75.5t-32 -110.5q0 -44 21 -84t58 -72t88.5 -54.5t113.5 -32.5l167 140l57 -78l-350 -290l644 -158v704zM845 -318q0 21 8 39t21.5 31.5t31.5 21t38 7.5q42 0 71 -28.5t29 -70.5t-29 -70.5t-71 -28.5q-20 0 -38 7.5t-31.5 21t-21.5 31.5t-8 39z" />
    <glyph glyph-name="ori_ha.nukta" horiz-adv-x="1234" 
d="M973 437q39 44 61.5 96t22.5 110q0 74 -35 139.5t-95.5 114.5t-141.5 77.5t-173 28.5t-173.5 -26t-142 -72.5t-95.5 -109.5t-35 -138q0 -36 10 -67t27 -56t40 -43t50 -27q27 64 82.5 107.5t128.5 68.5l41 -125q-41 -9 -75.5 -25t-60 -37.5t-39.5 -49t-14 -59.5
q0 -36 9.5 -60t24 -38.5t32 -20.5t32.5 -6q25 0 72 25t102 65.5t112 92t103 104.5v-486h-104v279q-57 -68 -108.5 -102t-95.5 -49l-179 -113l476 -173l-83 -59l-575 217l214 134q-58 25 -85 77t-31 110q-86 39 -137.5 122.5t-51.5 204.5q0 97 41 183t112 149.5t166.5 100.5
t203.5 37t203.5 -39t167 -105.5t112.5 -156.5t41 -192q0 -77 -23.5 -147t-65.5 -129zM379 -318q0 21 8 39t21.5 31.5t31.5 21t38 7.5q42 0 71 -28.5t29 -70.5t-29 -70.5t-71 -28.5q-20 0 -38 7.5t-31.5 21t-21.5 31.5t-8 39z" />
    <glyph glyph-name="ori_ka.ra" horiz-adv-x="1306" 
d="M1046 437q39 44 61 96t22 110q0 74 -36 139.5t-99.5 114.5t-152 77.5t-193.5 28.5t-193.5 -26t-152.5 -72t-100 -109t-36 -138q0 -70 35 -124.5t86 -83.5q5 45 20 83t39.5 65.5t57.5 43t74 15.5q51 0 89 -23t63 -63q24 40 62 63t89 23q48 0 85.5 -20.5t63.5 -55
t39.5 -81.5t13.5 -99v-401h-104v373q0 28 -4 55t-15 48t-30 33.5t-49 12.5q-28 0 -47 -13t-30.5 -34.5t-16.5 -49.5t-5 -59v-366h-104v212q-16 -17 -42.5 -31.5t-58.5 -14.5t-59 11t-49 30t-39 45t-27 56q-42 22 -81.5 57t-70.5 80t-49.5 99t-18.5 116q0 102 41 189.5
t115 151.5t177 100.5t227 36.5t227 -39t177 -105.5t115 -156.5t41 -192q0 -77 -23.5 -147t-65.5 -129zM368 392q0 -57 31.5 -89.5t77.5 -32.5q47 0 79 33.5t32 88.5v5q-1 25 -8 47.5t-20.5 39.5t-34 27.5t-47.5 10.5q-51 0 -80.5 -36.5t-29.5 -93.5zM169 -165h710v165h104
v-294h-814v129z" />
    <glyph glyph-name="ori_kha.ra" horiz-adv-x="1290" 
d="M1186 1117v-1117h-104v861q-41 -100 -100.5 -152t-139.5 -52q-46 0 -84.5 18.5t-66.5 49.5t-44 71t-16 83q0 30 8 62t21 61q-7 0 -13.5 0.5t-14.5 0.5q-100 0 -185 -28.5t-147.5 -77.5t-98 -114.5t-35.5 -139.5q0 -80 39 -147.5t105 -115.5q16 42 43.5 77.5t63.5 61
t79 40t91 14.5q61 0 115 -23.5t94 -63.5t63 -94.5t23 -115.5q0 -62 -23 -116t-63 -94.5t-94 -63.5t-115 -23q-58 0 -109.5 21t-91 57.5t-64 86.5t-29.5 107q-48 33 -87 76t-66 93.5t-42 107t-15 117.5q0 102 41.5 192t114.5 156.5t172.5 105.5t215.5 39q35 0 73.5 -5.5
t71.5 -15.5q-27 -35 -44 -79t-17 -85q0 -33 9 -62.5t28.5 -51t49.5 -34.5t71 -13q62 0 101.5 33.5t63 83t34 106t14.5 102.5h104zM375 276q0 -34 16.5 -63.5t45 -51.5t67.5 -34.5t83 -12.5t82.5 12.5t67.5 34.5t45.5 51.5t16.5 63.5q0 33 -16.5 62.5t-45.5 51.5t-67.5 35
t-82.5 13t-83 -13t-67.5 -35t-45 -51.5t-16.5 -62.5zM372 -165h710v165h104v-294h-814v129z" />
    <glyph glyph-name="ori_ga.ra" horiz-adv-x="1290" 
d="M1082 1117h104v-1117h-104v739q-20 57 -61.5 105.5t-100.5 83.5t-132 55t-156 20q-100 0 -185 -28.5t-147.5 -77.5t-98 -114.5t-35.5 -139.5q0 -80 39 -147.5t105 -115.5q16 42 43.5 77.5t63.5 61t79 40t91 14.5q61 0 115 -23.5t94 -63.5t63 -94.5t23 -115.5
q0 -62 -23 -116t-63 -94.5t-94 -63.5t-115 -23q-58 0 -109.5 21t-91 57.5t-64 86.5t-29.5 107q-48 33 -87 76t-66 93.5t-42 107t-15 117.5q0 102 41.5 192t114.5 156.5t172.5 105.5t215.5 39q73 0 139.5 -15.5t124.5 -44t106.5 -69t84.5 -89.5v197zM375 276
q0 -34 16.5 -63.5t45 -51.5t67.5 -34.5t83 -12.5t82.5 12.5t67.5 34.5t45.5 51.5t16.5 63.5q0 33 -16.5 62.5t-45.5 51.5t-67.5 35t-82.5 13t-83 -13t-67.5 -35t-45 -51.5t-16.5 -62.5zM372 -165h710v165h104v-294h-814v129z" />
    <glyph glyph-name="ori_gha.ra" horiz-adv-x="1290" 
d="M1082 1117h104v-1117h-104v208q-19 -52 -46.5 -94t-61 -72t-72 -46.5t-78.5 -16.5q-70 0 -115 35.5t-65 92.5q-11 -24 -26.5 -47t-36.5 -41t-48 -29t-60 -11q-49 0 -85.5 22t-60.5 57.5t-35.5 80t-11.5 89.5v15.5t1 15.5q-45 33 -82 75.5t-62.5 92t-39.5 104.5t-14 114
q0 102 41.5 192t114.5 156.5t172.5 105.5t215.5 39q73 0 139.5 -15.5t124.5 -44t106.5 -69t84.5 -89.5v197zM681 374l63 -53q-18 -23 -25.5 -45.5t-7.5 -42.5q0 -30 10.5 -52.5t28 -37.5t39 -22t43.5 -7q46 0 87 22.5t73 57.5t55 78.5t35 85.5v381q-20 57 -61.5 105.5
t-100.5 83.5t-132 55t-156 20q-100 0 -185 -28.5t-147.5 -77.5t-98 -114.5t-35.5 -139.5q0 -79 39 -147t105 -116q26 61 69 105.5t86 74.5l56 -68q-33 -21 -61.5 -47t-50 -56t-34 -64.5t-12.5 -73.5q0 -65 31.5 -101t82.5 -36q20 0 41.5 9t41.5 24t38 35t30 42q2 35 14 73.5
t39 76.5zM372 -165h710v165h104v-294h-814v129z" />
    <glyph glyph-name="ori_nga.ra" horiz-adv-x="1366" 
d="M924 687q0 55 25.5 97.5t67.5 63.5q-62 70 -161.5 112.5t-223.5 42.5q-100 0 -185 -28.5t-147.5 -77.5t-98 -114.5t-35.5 -139.5q0 -71 31 -132.5t85 -109.5q21 85 80.5 148t141.5 91l41 -125q-41 -9 -75.5 -27.5t-60 -44.5t-39.5 -58t-14 -67q0 -42 17.5 -79t51.5 -65
t84.5 -44t116.5 -16q60 0 106 18t77 45.5t47 59.5t16 61q0 33 -12.5 59t-34 43.5t-49 27t-57.5 9.5h-12l-32 -50l-77 52l199 297l73 -54l-100 -152q43 -10 77.5 -33.5t58.5 -55.5t36.5 -70t12.5 -77q0 -69 -22.5 -127t-65 -99.5t-103 -65t-136.5 -23.5q-72 0 -132 21.5
t-105.5 59.5t-75 90t-38.5 112q-90 68 -142 167t-52 216q0 102 41.5 192t114.5 156.5t172.5 105.5t215.5 39q83 0 158 -20t138 -56.5t112.5 -87.5t82.5 -112q30 -5 56.5 -19.5t46 -37.5t30.5 -53t11 -65q0 -39 -13.5 -71t-36.5 -55.5t-54 -36.5t-66 -13t-66 13t-53.5 36.5
t-35.5 55.5t-13 71zM1007 687q0 -43 24.5 -68t60.5 -25t61 25t25 68q0 44 -25 69t-61 25t-60.5 -25t-24.5 -69zM245 -165h710v165h104v-294h-814v129z" />
    <glyph glyph-name="ori_ca.ra" horiz-adv-x="1234" 
d="M973 437q39 44 61.5 96t22.5 110q0 74 -35 139.5t-95.5 114.5t-141.5 77.5t-173 28.5t-173.5 -28.5t-142 -77.5t-95.5 -114.5t-35 -139.5q0 -80 39 -147.5t105 -115.5q16 42 43.5 77.5t63.5 61t79 40t91 14.5q61 0 115 -23.5t94 -63.5t63 -94.5t23 -115.5q0 -62 -23 -116
t-63 -94.5t-94 -63.5t-115 -23q-58 0 -109.5 21t-91 57.5t-64 86.5t-29.5 107q-48 33 -87 76t-66 93.5t-42 107t-15 117.5q0 102 41 192t112 156.5t166.5 105.5t203.5 39t203.5 -39t167 -105.5t112.5 -156.5t41 -192q0 -77 -23.5 -147t-65.5 -129zM375 276q0 -34 16.5 -63.5
t45 -51.5t67.5 -34.5t83 -12.5t82.5 12.5t67.5 34.5t45.5 51.5t16.5 63.5q0 33 -16.5 62.5t-45.5 51.5t-67.5 35t-82.5 13t-83 -13t-67.5 -35t-45 -51.5t-16.5 -62.5zM270 -165h560v165h104v-294h-664v129z" />
    <glyph glyph-name="ori_cha.ra" horiz-adv-x="1146" 
d="M864 573q44 35 69.5 79.5t25.5 95.5q0 52 -27 98.5t-73.5 81.5t-109.5 55t-134 20q-72 0 -138 -20t-116.5 -55t-80.5 -81.5t-30 -98.5q0 -29 11 -55.5t28.5 -48.5t40 -38.5t45.5 -25.5q31 48 79.5 76t105.5 28q47 0 88.5 -20.5t72 -55t48.5 -80t18 -96.5q0 -23 -4 -45.5
t-12 -43.5q15 3 33 3q53 0 90 -15.5t60.5 -40.5t34.5 -57t11 -65q0 -38 -11 -72t-33.5 -60t-57.5 -41.5t-83 -15.5q-47 0 -84 10t-68 27.5t-56.5 40t-48.5 46.5q-23 -24 -48 -46.5t-55 -40t-67.5 -27.5t-83.5 -10q-48 0 -83 15.5t-57.5 41.5t-33.5 60t-11 72q0 33 10.5 65
t33.5 58q-31 -1 -62 -4t-54 -5l13 85q21 -2 42 -2h42h12q50 0 97.5 -3t95.5 -19q-16 41 -16 88v16.5t2 17.5q-37 20 -68 49t-53.5 65.5t-35 79t-12.5 89.5q0 81 30.5 152t88 124t141 83.5t189.5 30.5q99 0 178 -30.5t134.5 -83.5t85 -124t29.5 -152q0 -75 -28.5 -142
t-80.5 -118zM416 419q0 -37 11 -66t30.5 -49t46 -30.5t56.5 -10.5t56 12.5t45.5 33.5t31 49.5t11.5 60.5q0 31 -11.5 59t-31 49t-45.5 33.5t-56 12.5t-56.5 -12t-46 -32.5t-30.5 -48.5t-11 -61zM308 263q-15 0 -33.5 -3t-34.5 -11t-27 -22t-11 -35q0 -13 5.5 -26.5t18 -25
t33.5 -19t52 -7.5q52 0 96 17.5t85 43.5q-36 37 -79.5 62.5t-104.5 25.5zM811 114q33 0 54 7t32.5 17.5t15.5 23.5t4 26q0 21 -11 35.5t-27 23t-34.5 12.5t-33.5 4q-61 0 -103.5 -24.5t-78.5 -60.5q46 -28 91.5 -46t90.5 -18zM203 -165h560v165h104v-294h-664v129z" />
    <glyph glyph-name="ori_ja.ra" horiz-adv-x="1282" 
d="M960 0h-104v545l-165 -119q27 -33 41.5 -81t14.5 -93q0 -42 -13.5 -90t-44 -88.5t-81 -67.5t-123.5 -27q-77 0 -130 31t-85 79.5t-46 107t-14 113.5v13q-60 65 -93.5 146.5t-33.5 175.5q0 102 41 192t115 156.5t177 105.5t227 39t227 -39t177 -105.5t115 -156.5t41 -192
q0 -77 -23.5 -147t-65.5 -129l-68 68q39 44 61 96t22 110q0 74 -36 139.5t-99.5 114.5t-152 77.5t-193.5 28.5t-193.5 -28.5t-152.5 -77.5t-100 -114.5t-36 -139.5q0 -55 18.5 -104.5t53.5 -91.5q29 69 82 119.5t122 73.5l41 -125q-41 -9 -76 -27.5t-60.5 -44.5t-39.5 -60
t-14 -74q0 -36 11.5 -70.5t35.5 -62.5t60 -45t85 -17q46 0 79.5 13.5t55.5 36t33 50.5t11 57q0 58 -32.5 103.5t-95.5 64.5l424 283v-722zM146 -165h710v165h104v-294h-814v129z" />
    <glyph glyph-name="ori_jha.ra" horiz-adv-x="1180" 
d="M1061 0l-68 -120l-232 156q-37 -27 -81 -42t-93 -15q-58 0 -109.5 21t-91 57.5t-64 86.5t-29.5 107q-48 33 -87 76t-66 93.5t-42 107t-15 117.5q0 102 35.5 185t97.5 142t145 91t179 32q63 0 125.5 -16.5t105.5 -50.5q-21 -19 -39 -48.5t-18 -65.5q0 -25 8 -49
t25.5 -42.5t45.5 -30t67 -11.5q34 0 59 9.5t41.5 25t24.5 35t8 39.5q0 25 -11 44t-26.5 33t-33.5 23t-32 13l77 106q52 -36 80.5 -92.5t28.5 -131.5q0 -29 -8.5 -69.5t-32 -78t-66.5 -64t-112 -26.5q-49 0 -89.5 15.5t-70 42t-46 62.5t-16.5 77q0 32 6 56.5t13 35.5
q-40 24 -114 24q-78 0 -146 -21.5t-119 -62.5t-80 -100t-29 -133q0 -80 39 -147.5t105 -115.5q16 42 43.5 77.5t63.5 61t79 40t91 14.5q61 0 115 -23.5t94 -63.5t63 -94.5t23 -115.5q0 -48 -13.5 -89.5t-37.5 -77.5zM375 276q0 -34 16.5 -63.5t45 -51.5t67.5 -34.5t83 -12.5
t82.5 12.5t67.5 34.5t45.5 51.5t16.5 63.5q0 33 -16.5 62.5t-45.5 51.5t-67.5 35t-82.5 13t-83 -13t-67.5 -35t-45 -51.5t-16.5 -62.5zM256 -165h560v165h104v-294h-664v129z" />
    <glyph glyph-name="ori_nya.ra" horiz-adv-x="1164" 
d="M166 911q0 -71 32 -125.5t87 -91.5t128.5 -56t157.5 -19q65 0 136.5 12.5t131.5 40t99 72t39 108.5q0 29 -10.5 56.5t-30.5 48.5t-50 33.5t-69 12.5q-23 0 -46.5 -8t-43 -24t-31.5 -40.5t-12 -57.5v-92h-83v120q0 46 -32 74t-80 28q-31 0 -52.5 -8.5t-35 -21t-19.5 -28
t-6 -29.5q0 -33 14 -59.5t42 -51.5l-74 -56q-27 32 -46 76t-19 103q0 36 13.5 73.5t39 68t63 49.5t85.5 19q58 0 96.5 -29.5t61.5 -82.5q31 59 78.5 85.5t113.5 26.5q49 0 88.5 -22t68 -60t44 -88.5t15.5 -106.5q0 -83 -31.5 -146.5t-85.5 -110.5q55 -35 86 -100.5
t31 -146.5q0 -96 -42 -167t-111 -118t-156 -70t-177 -23q-95 0 -183.5 25.5t-156.5 78t-109.5 132t-41.5 187.5q0 68 26 132.5t63 112.5q-42 50 -65.5 114.5t-23.5 145.5q0 68 24.5 130.5t58.5 105.5l73 -68q-11 -11 -23.5 -26t-23.5 -35t-18.5 -46t-7.5 -57zM166 407
q0 -71 32 -126t87 -92t128.5 -56t157.5 -19q65 0 136.5 12.5t131.5 40.5t99 72.5t39 107.5q0 29 -10.5 56.5t-30.5 48.5t-50 33.5t-69 12.5q-23 0 -46.5 -7.5t-43 -23.5t-31.5 -40.5t-12 -58.5v-91h-83v119q0 23 -10 40t-26 27.5t-36.5 15.5t-41.5 5q-54 0 -82.5 -22.5
t-28.5 -49.5q0 -34 14 -60t42 -51l-74 -57q-27 33 -46 76.5t-19 102.5q0 60 33 111q-23 9 -43 20.5t-39 24.5q-12 -11 -25.5 -27.5t-25.5 -38.5t-19.5 -48.5t-7.5 -57.5zM155 -165h710v165h104v-294h-814v129z" />
    <glyph glyph-name="ori_tta.ra" horiz-adv-x="1249" 
d="M1041 1117h104v-460h-104q0 75 -32.5 138t-90 109.5t-136 72.5t-170.5 26t-173.5 -28.5t-142 -77.5t-95.5 -114.5t-35 -139.5q0 -80 39 -147.5t105 -115.5q16 42 43.5 77.5t63.5 61t79 40t91 14.5q61 0 115 -23.5t94 -63.5t63 -94.5t23 -115.5q0 -62 -23 -116t-63 -94.5
t-94 -63.5t-115 -23q-58 0 -109.5 21t-91 57.5t-64 86.5t-29.5 107q-48 33 -87 76t-66 93.5t-42 107t-15 117.5q0 102 41 192t112 156.5t166.5 105.5t203.5 39q69 0 133 -15t119.5 -43.5t102 -68.5t80.5 -90v196zM375 276q0 -34 16.5 -63.5t45 -51.5t67.5 -34.5t83 -12.5
t82.5 12.5t67.5 34.5t45.5 51.5t16.5 63.5q0 33 -16.5 62.5t-45.5 51.5t-67.5 35t-82.5 13t-83 -13t-67.5 -35t-45 -51.5t-16.5 -62.5zM278 -165h710v165h104v-294h-814v129z" />
    <glyph glyph-name="ori_ttha.ra" horiz-adv-x="1327" 
d="M83 558q0 120 45.5 225.5t123.5 184.5t181.5 124.5t219.5 45.5t219.5 -46t181.5 -125t123.5 -185t45.5 -226t-45.5 -225t-123.5 -183t-181.5 -123.5t-219.5 -45.5t-219.5 45.5t-181.5 124.5t-123.5 184t-45.5 225zM166 558q0 -92 38.5 -173t104.5 -141t154.5 -95
t189.5 -35q100 0 189 35t155 95t104.5 141t38.5 173t-38.5 173t-104.5 141.5t-155 95.5t-189 35q-101 0 -189.5 -35t-154.5 -95.5t-104.5 -141.5t-38.5 -173zM256 -165h710v165h104v-294h-814v129z" />
    </font>
</defs>
</svg>
